<svg xmlns="http://www.w3.org/2000/svg" width="1144" height="644" fill="none" xmlns:v="https://vecta.io/nano"><g clip-path="url(#B)"><rect width="1144" height="643.5" rx="10" fill="#f5f5f5"/><path d="M372.83 645C438.646 645 492 591.646 492 525.83V120.17C492 54.354 438.646 1 372.83 1H0v644h372.83z" fill="url(#A)"/><g fill="#000"><path d="M599.438 280.33h-2.04v-1.56h2.04v-2.12c0-1.267.24-2.207.72-2.82.493-.627 1.333-.94 2.52-.94l.62.02c.226.013.466.053.72.12l-.2 1.6a2.59 2.59 0 0 0-.5-.14c-.16-.027-.334-.04-.52-.04-.334 0-.6.053-.8.16a1.12 1.12 0 0 0-.48.42c-.107.187-.18.413-.22.68a8.42 8.42 0 0 0-.04.88v2.18h2.14v1.56h-2.16v7.92h-1.8v-7.92zm6-.4a4.89 4.89 0 0 1 1.76-1.04 5.87 5.87 0 0 1 2-.36c.693 0 1.287.087 1.78.26.507.173.92.407 1.24.7a2.64 2.64 0 0 1 .7 1.02c.16.373.24.767.24 1.18v4.84l.02.92.06.8h-1.6l-.06-1.44h-.04c-.4.613-.873 1.047-1.42 1.3s-1.18.38-1.9.38a4.36 4.36 0 0 1-1.26-.18 3.19 3.19 0 0 1-1.06-.54c-.293-.24-.527-.533-.7-.88-.173-.36-.26-.773-.26-1.24 0-.613.133-1.127.4-1.54.28-.413.653-.747 1.12-1 .48-.267 1.033-.453 1.66-.56.64-.12 1.32-.18 2.04-.18h1.32v-.4a1.98 1.98 0 0 0-.14-.72c-.093-.24-.233-.453-.42-.64a1.84 1.84 0 0 0-.7-.46c-.28-.12-.613-.18-1-.18-.347 0-.653.033-.92.1a3.62 3.62 0 0 0-.7.26 2.76 2.76 0 0 0-.58.34l-.5.38-1.08-1.12zm5.08 3.76c-.427 0-.867.027-1.32.08a4.96 4.96 0 0 0-1.22.26c-.36.133-.66.32-.9.56-.227.24-.34.547-.34.92 0 .547.18.94.54 1.18.373.24.873.36 1.5.36.493 0 .913-.08 1.26-.24.347-.173.627-.393.84-.66s.367-.56.46-.88c.093-.333.14-.66.14-.98v-.6h-.96zm12.031-2.4c-.333-.347-.687-.607-1.06-.78-.36-.187-.793-.28-1.3-.28-.493 0-.927.093-1.3.28-.36.173-.667.42-.92.74-.24.307-.427.667-.56 1.08a4.36 4.36 0 0 0-.18 1.26c0 .44.073.86.22 1.26.147.387.353.727.62 1.02a2.98 2.98 0 0 0 .96.7c.373.16.793.24 1.26.24.507 0 .94-.087 1.3-.26.36-.187.693-.453 1-.8l1.28 1.28a4.02 4.02 0 0 1-1.64 1.12 5.6 5.6 0 0 1-1.96.34c-.733 0-1.407-.12-2.02-.36a4.74 4.74 0 0 1-1.56-1 4.59 4.59 0 0 1-1.02-1.56c-.24-.613-.36-1.287-.36-2.02s.12-1.407.36-2.02.573-1.14 1-1.58a4.59 4.59 0 0 1 1.56-1.02c.613-.253 1.293-.38 2.04-.38a5.24 5.24 0 0 1 1.98.38 4.26 4.26 0 0 1 1.66 1.12l-1.36 1.24zm3.008-2.52h1.8v9.48h-1.8v-9.48zm-.42-3.4c0-.36.127-.667.38-.92.267-.267.58-.4.94-.4a1.22 1.22 0 0 1 1.32 1.32c0 .36-.133.673-.4.94-.253.253-.56.38-.92.38a1.32 1.32 0 0 1-1.32-1.32zm5.225-2.24h1.8v15.12h-1.8v-15.12zm4.805 5.64h1.8v9.48h-1.8v-9.48zm-.42-3.4a1.25 1.25 0 0 1 .38-.92c.266-.267.58-.4.94-.4a1.22 1.22 0 0 1 .92.4c.266.253.4.56.4.92a1.29 1.29 0 0 1-.4.94c-.254.253-.56.38-.92.38a1.32 1.32 0 0 1-.94-.38c-.254-.267-.38-.58-.38-.94zm10.165 4.96h-2.58v4.3l.02.8a2.32 2.32 0 0 0 .14.7 1.32 1.32 0 0 0 .4.5c.186.12.453.18.8.18a3.8 3.8 0 0 0 .66-.06c.226-.04.433-.113.62-.22v1.64c-.214.12-.494.2-.84.24-.334.053-.594.08-.78.08-.694 0-1.234-.093-1.62-.28-.374-.2-.654-.453-.84-.76-.174-.307-.28-.647-.32-1.02l-.04-1.16v-4.94h-2.08v-1.56h2.08v-2.66h1.8v2.66h2.58v1.56zm2.362-.4a4.89 4.89 0 0 1 1.76-1.04 5.87 5.87 0 0 1 2-.36c.693 0 1.287.087 1.78.26.507.173.92.407 1.24.7a2.64 2.64 0 0 1 .7 1.02c.16.373.24.767.24 1.18v4.84l.02.92.06.8h-1.6l-.06-1.44h-.04c-.4.613-.873 1.047-1.42 1.3s-1.18.38-1.9.38a4.36 4.36 0 0 1-1.26-.18 3.19 3.19 0 0 1-1.06-.54c-.293-.24-.527-.533-.7-.88-.173-.36-.26-.773-.26-1.24 0-.613.133-1.127.4-1.54.28-.413.653-.747 1.12-1 .48-.267 1.033-.453 1.66-.56.64-.12 1.32-.18 2.04-.18h1.32v-.4a1.98 1.98 0 0 0-.14-.72c-.093-.24-.233-.453-.42-.64a1.84 1.84 0 0 0-.7-.46c-.28-.12-.613-.18-1-.18-.347 0-.653.033-.92.1a3.62 3.62 0 0 0-.7.26 2.76 2.76 0 0 0-.58.34l-.5.38-1.08-1.12zm5.08 3.76c-.427 0-.867.027-1.32.08a4.96 4.96 0 0 0-1.22.26c-.36.133-.66.32-.9.56-.227.24-.34.547-.34.92 0 .547.18.94.54 1.18.373.24.873.36 1.5.36.493 0 .913-.08 1.26-.24.347-.173.627-.393.84-.66s.367-.56.46-.88c.093-.333.14-.66.14-.98v-.6h-.96zm10.331-3.36h-2.58v4.3l.02.8a2.32 2.32 0 0 0 .14.7 1.33 1.33 0 0 0 .4.5c.187.12.453.18.8.18a3.8 3.8 0 0 0 .66-.06 1.9 1.9 0 0 0 .62-.22v1.64c-.213.12-.493.2-.84.24-.333.053-.593.08-.78.08-.693 0-1.233-.093-1.62-.28-.373-.2-.653-.453-.84-.76-.173-.307-.28-.647-.32-1.02l-.04-1.16v-4.94h-2.08v-1.56h2.08v-2.66h1.8v2.66h2.58v1.56zm3.682 3.84a2.52 2.52 0 0 0 .26 1.14 3 3 0 0 0 .72.86c.294.24.634.427 1.02.56s.787.2 1.2.2c.56 0 1.047-.127 1.46-.38.414-.267.794-.613 1.14-1.04l1.36 1.04c-1 1.293-2.4 1.94-4.2 1.94-.746 0-1.426-.127-2.04-.38-.6-.253-1.113-.6-1.54-1.04-.413-.453-.733-.98-.96-1.58a5.68 5.68 0 0 1-.34-1.98c0-.707.12-1.36.36-1.96a4.99 4.99 0 0 1 1.02-1.58 4.69 4.69 0 0 1 1.56-1.06c.6-.253 1.254-.38 1.96-.38.84 0 1.547.147 2.12.44.587.293 1.067.68 1.44 1.16.374.467.64 1 .8 1.6a6.3 6.3 0 0 1 .26 1.8v.64h-7.6zm5.68-1.44c-.013-.4-.08-.767-.2-1.1-.106-.333-.273-.62-.5-.86-.226-.253-.513-.447-.86-.58-.333-.147-.726-.22-1.18-.22-.44 0-.846.087-1.22.26a2.85 2.85 0 0 0-.92.64 3.15 3.15 0 0 0-.6.9c-.133.32-.2.64-.2.96h5.68zm9.64-3.96h1.68v1.48h.04c.04-.133.14-.3.3-.5a3.31 3.31 0 0 1 .64-.56 3.7 3.7 0 0 1 .92-.46 3.38 3.38 0 0 1 1.18-.2c.707 0 1.3.147 1.78.44s.873.733 1.18 1.32c.307-.587.74-1.027 1.3-1.32s1.127-.44 1.7-.44c.733 0 1.333.12 1.8.36s.833.56 1.1.96a3.41 3.41 0 0 1 .54 1.34c.107.493.16 1.007.16 1.54v5.52h-1.8v-5.28c0-.36-.027-.707-.08-1.04-.04-.333-.133-.627-.28-.88s-.353-.453-.62-.6c-.267-.16-.62-.24-1.06-.24-.867 0-1.487.267-1.86.8s-.56 1.22-.56 2.06v5.18h-1.8v-4.96a8.86 8.86 0 0 0-.08-1.24c-.04-.373-.133-.693-.28-.96-.133-.28-.333-.493-.6-.64-.253-.16-.6-.24-1.04-.24-.32 0-.633.067-.94.2-.293.12-.553.307-.78.56s-.407.58-.54.98c-.133.387-.2.847-.2 1.38v4.92h-1.8v-9.48zm18.491 4.74c0 .48.074.927.22 1.34a3.14 3.14 0 0 0 .62 1.04c.267.28.594.507.98.68.387.16.82.24 1.3.24s.914-.08 1.3-.24a3.05 3.05 0 0 0 .98-.68c.267-.293.474-.64.62-1.04a3.97 3.97 0 0 0 .22-1.34 3.8 3.8 0 0 0-.22-1.32 2.87 2.87 0 0 0-.62-1.04c-.266-.293-.593-.52-.98-.68-.386-.173-.82-.26-1.3-.26a3.15 3.15 0 0 0-1.3.26 2.71 2.71 0 0 0-.98.68c-.266.28-.473.627-.62 1.04-.146.4-.22.84-.22 1.32zm-1.92 0c0-.693.127-1.34.38-1.94.267-.6.627-1.127 1.08-1.58a4.87 4.87 0 0 1 1.6-1.06 4.91 4.91 0 0 1 1.98-.4c.707 0 1.367.133 1.98.4a4.85 4.85 0 0 1 1.6 1.06c.454.453.807.98 1.06 1.58.267.6.4 1.247.4 1.94s-.133 1.347-.4 1.96c-.253.6-.606 1.127-1.06 1.58a5.31 5.31 0 0 1-1.6 1.06c-.613.253-1.273.38-1.98.38s-1.366-.127-1.98-.38c-.613-.267-1.146-.62-1.6-1.06-.453-.453-.813-.98-1.08-1.58a5.09 5.09 0 0 1-.38-1.96zm12.335-4.74h1.8v1.46h.04c.12-.253.28-.48.48-.68.2-.213.42-.393.66-.54.254-.147.527-.26.82-.34.294-.093.587-.14.88-.14s.56.04.8.12l-.08 1.94-.44-.1c-.146-.027-.293-.04-.44-.04-.88 0-1.553.247-2.02.74s-.7 1.26-.7 2.3v4.76h-1.8v-9.48zm8.411 5.4a2.52 2.52 0 0 0 .26 1.14 3 3 0 0 0 .72.86 3.27 3.27 0 0 0 1.02.56c.387.133.787.2 1.2.2.56 0 1.047-.127 1.46-.38.413-.267.793-.613 1.14-1.04l1.36 1.04c-1 1.293-2.4 1.94-4.2 1.94-.747 0-1.427-.127-2.04-.38-.6-.253-1.113-.6-1.54-1.04-.413-.453-.733-.98-.96-1.58-.227-.613-.34-1.273-.34-1.98s.12-1.36.36-1.96c.253-.613.593-1.14 1.02-1.58a4.69 4.69 0 0 1 1.56-1.06c.6-.253 1.253-.38 1.96-.38.84 0 1.547.147 2.12.44.587.293 1.067.68 1.44 1.16.373.467.64 1 .8 1.6.173.587.26 1.187.26 1.8v.64h-7.6zm5.68-1.44c-.013-.4-.08-.767-.2-1.1a2.22 2.22 0 0 0-.5-.86c-.227-.253-.513-.447-.86-.58-.333-.147-.727-.22-1.18-.22-.44 0-.847.087-1.22.26-.36.16-.667.373-.92.64a3.15 3.15 0 0 0-.6.9c-.133.32-.2.64-.2.96h5.68zm11 1.44c0 .413.086.793.26 1.14a2.97 2.97 0 0 0 .72.86 3.27 3.27 0 0 0 1.02.56 3.66 3.66 0 0 0 1.2.2c.56 0 1.046-.127 1.46-.38.413-.267.793-.613 1.14-1.04l1.36 1.04c-1 1.293-2.4 1.94-4.2 1.94-.747 0-1.427-.127-2.04-.38-.6-.253-1.114-.6-1.54-1.04a4.85 4.85 0 0 1-.96-1.58c-.227-.613-.34-1.273-.34-1.98s.12-1.36.36-1.96c.253-.613.593-1.14 1.02-1.58a4.69 4.69 0 0 1 1.56-1.06c.6-.253 1.253-.38 1.96-.38.84 0 1.546.147 2.12.44.586.293 1.066.68 1.44 1.16.373.467.64 1 .8 1.6.173.587.26 1.187.26 1.8v.64h-7.6zm5.68-1.44c-.014-.4-.08-.767-.2-1.1-.107-.333-.274-.62-.5-.86a2.19 2.19 0 0 0-.86-.58c-.334-.147-.727-.22-1.18-.22-.44 0-.847.087-1.22.26-.36.16-.667.373-.92.64s-.454.567-.6.9c-.134.32-.2.64-.2.96h5.68zm4.773-2.4h-2.04v-1.56h2.04v-2.12c0-1.267.24-2.207.72-2.82.493-.627 1.333-.94 2.52-.94l.62.02a3.63 3.63 0 0 1 .72.12l-.2 1.6a2.57 2.57 0 0 0-.5-.14 3.13 3.13 0 0 0-.52-.04c-.333 0-.6.053-.8.16a1.12 1.12 0 0 0-.48.42c-.107.187-.18.413-.22.68a8.42 8.42 0 0 0-.04.88v2.18h2.14v1.56h-2.16v7.92h-1.8v-7.92zm6.309 0h-2.04v-1.56h2.04v-2.12c0-1.267.24-2.207.72-2.82.493-.627 1.333-.94 2.52-.94l.62.02c.226.013.466.053.72.12l-.2 1.6a2.59 2.59 0 0 0-.5-.14c-.16-.027-.334-.04-.52-.04-.334 0-.6.053-.8.16a1.12 1.12 0 0 0-.48.42c-.107.187-.18.413-.22.68a8.42 8.42 0 0 0-.04.88v2.18h2.14v1.56h-2.16v7.92h-1.8v-7.92zm6.1-1.56h1.8v9.48h-1.8v-9.48zm-.42-3.4a1.25 1.25 0 0 1 .38-.92c.266-.267.58-.4.94-.4a1.22 1.22 0 0 1 .92.4c.266.253.4.56.4.92a1.29 1.29 0 0 1-.4.94c-.254.253-.56.38-.92.38a1.32 1.32 0 0 1-.94-.38c-.254-.267-.38-.58-.38-.94zm11.864 5.92c-.333-.347-.686-.607-1.06-.78-.36-.187-.793-.28-1.3-.28-.493 0-.926.093-1.3.28a2.6 2.6 0 0 0-.92.74c-.24.307-.426.667-.56 1.08a4.36 4.36 0 0 0-.18 1.26c0 .44.074.86.22 1.26.147.387.354.727.62 1.02a2.98 2.98 0 0 0 .96.7c.374.16.794.24 1.26.24.507 0 .94-.087 1.3-.26a3.47 3.47 0 0 0 1-.8l1.28 1.28c-.466.52-1.013.893-1.64 1.12-.613.227-1.266.34-1.96.34-.733 0-1.406-.12-2.02-.36a4.74 4.74 0 0 1-1.56-1 4.59 4.59 0 0 1-1.02-1.56c-.24-.613-.36-1.287-.36-2.02s.12-1.407.36-2.02.574-1.14 1-1.58a4.59 4.59 0 0 1 1.56-1.02c.614-.253 1.294-.38 2.04-.38.694 0 1.354.127 1.98.38.64.24 1.194.613 1.66 1.12l-1.36 1.24zm3.009-2.52h1.8v9.48h-1.8v-9.48zm-.42-3.4c0-.36.127-.667.38-.92.267-.267.58-.4.94-.4a1.22 1.22 0 0 1 1.32 1.32c0 .36-.133.673-.4.94-.253.253-.56.38-.92.38a1.32 1.32 0 0 1-1.32-1.32zm6.445 8.8c0 .413.086.793.26 1.14a2.97 2.97 0 0 0 .72.86 3.27 3.27 0 0 0 1.02.56 3.66 3.66 0 0 0 1.2.2c.56 0 1.046-.127 1.46-.38.413-.267.793-.613 1.14-1.04l1.36 1.04c-1 1.293-2.4 1.94-4.2 1.94-.747 0-1.427-.127-2.04-.38-.6-.253-1.114-.6-1.54-1.04a4.85 4.85 0 0 1-.96-1.58c-.227-.613-.34-1.273-.34-1.98s.12-1.36.36-1.96c.253-.613.593-1.14 1.02-1.58a4.69 4.69 0 0 1 1.56-1.06c.6-.253 1.253-.38 1.96-.38.84 0 1.546.147 2.12.44.586.293 1.066.68 1.44 1.16.373.467.64 1 .8 1.6.173.587.26 1.187.26 1.8v.64h-7.6zm5.68-1.44c-.014-.4-.08-.767-.2-1.1-.107-.333-.274-.62-.5-.86a2.19 2.19 0 0 0-.86-.58c-.334-.147-.727-.22-1.18-.22-.44 0-.847.087-1.22.26-.36.16-.667.373-.92.64s-.454.567-.6.9c-.134.32-.2.64-.2.96h5.68zm4.073-3.96h1.8v1.46h.04c.226-.507.62-.913 1.18-1.22.56-.32 1.206-.48 1.94-.48.453 0 .886.073 1.3.22a2.76 2.76 0 0 1 1.1.64c.32.293.573.673.76 1.14.186.453.28.993.28 1.62v6.1h-1.8v-5.6c0-.44-.06-.813-.18-1.12-.12-.32-.28-.573-.48-.76a1.65 1.65 0 0 0-.7-.42c-.254-.093-.52-.14-.8-.14-.374 0-.72.06-1.04.18s-.6.313-.84.58c-.24.253-.427.58-.56.98s-.2.873-.2 1.42v4.88h-1.8v-9.48zm16.193 1.56h-2.58v4.3l.02.8a2.32 2.32 0 0 0 .14.7 1.33 1.33 0 0 0 .4.5c.187.12.453.18.8.18a3.8 3.8 0 0 0 .66-.06 1.9 1.9 0 0 0 .62-.22v1.64c-.213.12-.493.2-.84.24-.333.053-.593.08-.78.08-.693 0-1.233-.093-1.62-.28-.373-.2-.653-.453-.84-.76-.173-.307-.28-.647-.32-1.02l-.04-1.16v-4.94h-2.08v-1.56h2.08v-2.66h1.8v2.66h2.58v1.56zm7.929-.4a4.89 4.89 0 0 1 1.76-1.04 5.87 5.87 0 0 1 2-.36c.693 0 1.287.087 1.78.26.507.173.92.407 1.24.7a2.64 2.64 0 0 1 .7 1.02c.16.373.24.767.24 1.18v4.84l.02.92.06.8h-1.6l-.06-1.44h-.04c-.4.613-.873 1.047-1.42 1.3s-1.18.38-1.9.38a4.36 4.36 0 0 1-1.26-.18 3.19 3.19 0 0 1-1.06-.54c-.293-.24-.527-.533-.7-.88-.173-.36-.26-.773-.26-1.24 0-.613.133-1.127.4-1.54.28-.413.653-.747 1.12-1 .48-.267 1.033-.453 1.66-.56.64-.12 1.32-.18 2.04-.18h1.32v-.4a1.98 1.98 0 0 0-.14-.72c-.093-.24-.233-.453-.42-.64a1.84 1.84 0 0 0-.7-.46c-.28-.12-.613-.18-1-.18-.347 0-.653.033-.92.1a3.62 3.62 0 0 0-.7.26 2.76 2.76 0 0 0-.58.34l-.5.38-1.08-1.12zm5.08 3.76c-.427 0-.867.027-1.32.08a4.96 4.96 0 0 0-1.22.26c-.36.133-.66.32-.9.56-.227.24-.34.547-.34.92 0 .547.18.94.54 1.18.373.24.873.36 1.5.36.493 0 .913-.08 1.26-.24.347-.173.627-.393.84-.66s.367-.56.46-.88c.093-.333.14-.66.14-.98v-.6h-.96zm5.251-4.92h1.8v1.46h.04c.227-.507.62-.913 1.18-1.22.56-.32 1.207-.48 1.94-.48a3.85 3.85 0 0 1 1.3.22c.427.133.793.347 1.1.64.32.293.573.673.76 1.14.187.453.28.993.28 1.62v6.1h-1.8v-5.6c0-.44-.06-.813-.18-1.12-.12-.32-.28-.573-.48-.76-.2-.2-.433-.34-.7-.42a2.3 2.3 0 0 0-.8-.14 2.94 2.94 0 0 0-1.04.18c-.32.12-.6.313-.84.58-.24.253-.427.58-.56.98s-.2.873-.2 1.42v4.88h-1.8v-9.48zm20.613 9.48h-1.8v-1.36h-.04c-.346.507-.826.9-1.44 1.18a4.35 4.35 0 0 1-1.86.42c-.733 0-1.4-.127-2-.38-.586-.253-1.093-.607-1.52-1.06-.413-.453-.733-.98-.96-1.58s-.34-1.253-.34-1.96.114-1.36.34-1.96c.227-.613.547-1.14.96-1.58.427-.453.934-.807 1.52-1.06.6-.253 1.267-.38 2-.38a4.32 4.32 0 0 1 1.92.44c.6.28 1.06.667 1.38 1.16h.04v-7h1.8v15.12zm-4.92-1.44c.48 0 .914-.08 1.3-.24a3.05 3.05 0 0 0 .98-.68c.267-.293.474-.64.62-1.04a3.97 3.97 0 0 0 .22-1.34 3.8 3.8 0 0 0-.22-1.32 2.87 2.87 0 0 0-.62-1.04c-.266-.293-.593-.52-.98-.68-.386-.173-.82-.26-1.3-.26a3.15 3.15 0 0 0-1.3.26 2.71 2.71 0 0 0-.98.68c-.266.28-.473.627-.62 1.04-.146.4-.22.84-.22 1.32s.074.927.22 1.34a3.14 3.14 0 0 0 .62 1.04c.267.28.594.507.98.68.387.16.82.24 1.3.24zm14.573-2.64a2.52 2.52 0 0 0 .26 1.14 3 3 0 0 0 .72.86c.294.24.634.427 1.02.56s.787.2 1.2.2c.56 0 1.047-.127 1.46-.38.414-.267.794-.613 1.14-1.04l1.36 1.04c-1 1.293-2.4 1.94-4.2 1.94-.746 0-1.426-.127-2.04-.38-.6-.253-1.113-.6-1.54-1.04-.413-.453-.733-.98-.96-1.58a5.68 5.68 0 0 1-.34-1.98c0-.707.12-1.36.36-1.96a4.99 4.99 0 0 1 1.02-1.58 4.69 4.69 0 0 1 1.56-1.06c.6-.253 1.254-.38 1.96-.38.84 0 1.547.147 2.12.44.587.293 1.067.68 1.44 1.16.374.467.64 1 .8 1.6a6.3 6.3 0 0 1 .26 1.8v.64h-7.6zm5.68-1.44c-.013-.4-.08-.767-.2-1.1-.106-.333-.273-.62-.5-.86-.226-.253-.513-.447-.86-.58-.333-.147-.726-.22-1.18-.22-.44 0-.846.087-1.22.26a2.85 2.85 0 0 0-.92.64 3.15 3.15 0 0 0-.6.9c-.133.32-.2.64-.2.96h5.68zm4.773-2.4h-2.04v-1.56h2.04v-2.12c0-1.267.24-2.207.72-2.82.494-.627 1.334-.94 2.52-.94l.62.02a3.63 3.63 0 0 1 .72.12l-.2 1.6a2.57 2.57 0 0 0-.5-.14 3.13 3.13 0 0 0-.52-.04c-.333 0-.6.053-.8.16a1.12 1.12 0 0 0-.48.42c-.106.187-.18.413-.22.68-.026.253-.04.547-.04.88v2.18h2.14v1.56h-2.16v7.92h-1.8v-7.92zm6.309 0h-2.04v-1.56h2.04v-2.12c0-1.267.24-2.207.72-2.82.493-.627 1.333-.94 2.52-.94l.62.02a3.63 3.63 0 0 1 .72.12l-.2 1.6a2.57 2.57 0 0 0-.5-.14 3.13 3.13 0 0 0-.52-.04c-.333 0-.6.053-.8.16a1.12 1.12 0 0 0-.48.42c-.107.187-.18.413-.22.68a8.42 8.42 0 0 0-.04.88v2.18h2.14v1.56h-2.16v7.92h-1.8v-7.92zm7.32 3.84a2.52 2.52 0 0 0 .26 1.14 3 3 0 0 0 .72.86c.294.24.634.427 1.02.56s.787.2 1.2.2c.56 0 1.047-.127 1.46-.38.414-.267.794-.613 1.14-1.04l1.36 1.04c-1 1.293-2.4 1.94-4.2 1.94-.746 0-1.426-.127-2.04-.38-.6-.253-1.113-.6-1.54-1.04-.413-.453-.733-.98-.96-1.58a5.68 5.68 0 0 1-.34-1.98c0-.707.12-1.36.36-1.96a4.99 4.99 0 0 1 1.02-1.58 4.69 4.69 0 0 1 1.56-1.06c.6-.253 1.254-.38 1.96-.38.84 0 1.547.147 2.12.44.587.293 1.067.68 1.44 1.16.374.467.64 1 .8 1.6a6.3 6.3 0 0 1 .26 1.8v.64h-7.6zm5.68-1.44c-.013-.4-.08-.767-.2-1.1-.106-.333-.273-.62-.5-.86-.226-.253-.513-.447-.86-.58-.333-.147-.726-.22-1.18-.22-.44 0-.846.087-1.22.26a2.85 2.85 0 0 0-.92.64 3.15 3.15 0 0 0-.6.9c-.133.32-.2.64-.2.96h5.68zm10.853-1.44c-.333-.347-.686-.607-1.06-.78-.36-.187-.793-.28-1.3-.28-.493 0-.926.093-1.3.28a2.6 2.6 0 0 0-.92.74c-.24.307-.426.667-.56 1.08a4.36 4.36 0 0 0-.18 1.26c0 .44.074.86.22 1.26.147.387.354.727.62 1.02a2.98 2.98 0 0 0 .96.7c.374.16.794.24 1.26.24.507 0 .94-.087 1.3-.26a3.47 3.47 0 0 0 1-.8l1.28 1.28c-.466.52-1.013.893-1.64 1.12-.613.227-1.266.34-1.96.34-.733 0-1.406-.12-2.02-.36a4.74 4.74 0 0 1-1.56-1 4.59 4.59 0 0 1-1.02-1.56c-.24-.613-.36-1.287-.36-2.02s.12-1.407.36-2.02.574-1.14 1-1.58a4.59 4.59 0 0 1 1.56-1.02c.614-.253 1.294-.38 2.04-.38.694 0 1.354.127 1.98.38.64.24 1.194.613 1.66 1.12l-1.36 1.24zm7.949-.96h-2.58v4.3l.02.8a2.32 2.32 0 0 0 .14.7 1.33 1.33 0 0 0 .4.5c.187.12.453.18.8.18a3.8 3.8 0 0 0 .66-.06 1.9 1.9 0 0 0 .62-.22v1.64c-.213.12-.493.2-.84.24-.333.053-.593.08-.78.08-.693 0-1.233-.093-1.62-.28-.373-.2-.653-.453-.84-.76-.173-.307-.28-.647-.32-1.02l-.04-1.16v-4.94h-2.08v-1.56h2.08v-2.66h1.8v2.66h2.58v1.56zm2.462-1.56h1.8v9.48h-1.8v-9.48zm-.42-3.4c0-.36.127-.667.38-.92.267-.267.58-.4.94-.4a1.22 1.22 0 0 1 1.32 1.32c0 .36-.133.673-.4.94-.253.253-.56.38-.92.38a1.32 1.32 0 0 1-1.32-1.32zm3.945 3.4h2.08l2.84 7.26 2.72-7.26h1.92l-3.72 9.48h-1.98l-3.86-9.48zm12.5 5.4a2.52 2.52 0 0 0 .26 1.14 3 3 0 0 0 .72.86 3.27 3.27 0 0 0 1.02.56c.387.133.787.2 1.2.2.56 0 1.047-.127 1.46-.38.413-.267.793-.613 1.14-1.04l1.36 1.04c-1 1.293-2.4 1.94-4.2 1.94-.747 0-1.427-.127-2.04-.38-.6-.253-1.113-.6-1.54-1.04-.413-.453-.733-.98-.96-1.58-.227-.613-.34-1.273-.34-1.98s.12-1.36.36-1.96c.253-.613.593-1.14 1.02-1.58a4.69 4.69 0 0 1 1.56-1.06c.6-.253 1.253-.38 1.96-.38.84 0 1.547.147 2.12.44.587.293 1.067.68 1.44 1.16.373.467.64 1 .8 1.6.173.587.26 1.187.26 1.8v.64h-7.6zm5.68-1.44c-.013-.4-.08-.767-.2-1.1a2.22 2.22 0 0 0-.5-.86c-.227-.253-.513-.447-.86-.58-.333-.147-.727-.22-1.18-.22-.44 0-.847.087-1.22.26-.36.16-.667.373-.92.64a3.15 3.15 0 0 0-.6.9c-.133.32-.2.64-.2.96h5.68zm16.42-1.44c-.334-.347-.687-.607-1.06-.78-.36-.187-.794-.28-1.3-.28-.494 0-.927.093-1.3.28-.36.173-.667.42-.92.74-.24.307-.427.667-.56 1.08a4.36 4.36 0 0 0-.18 1.26c0 .44.073.86.22 1.26a3.15 3.15 0 0 0 .62 1.02 2.96 2.96 0 0 0 .96.7c.373.16.793.24 1.26.24.506 0 .94-.087 1.3-.26.36-.187.693-.453 1-.8l1.28 1.28c-.467.52-1.014.893-1.64 1.12-.614.227-1.267.34-1.96.34-.734 0-1.407-.12-2.02-.36a4.74 4.74 0 0 1-1.56-1 4.59 4.59 0 0 1-1.02-1.56c-.24-.613-.36-1.287-.36-2.02s.12-1.407.36-2.02.573-1.14 1-1.58a4.59 4.59 0 0 1 1.56-1.02c.613-.253 1.293-.38 2.04-.38a5.24 5.24 0 0 1 1.98.38 4.26 4.26 0 0 1 1.66 1.12l-1.36 1.24zm4.328 2.22a3.97 3.97 0 0 0 .22 1.34c.147.4.353.747.62 1.04a3.06 3.06 0 0 0 .98.68c.387.16.82.24 1.3.24s.913-.08 1.3-.24a3.06 3.06 0 0 0 .98-.68c.267-.293.473-.64.62-1.04a3.97 3.97 0 0 0 .22-1.34 3.8 3.8 0 0 0-.22-1.32c-.147-.413-.353-.76-.62-1.04a2.7 2.7 0 0 0-.98-.68 3.15 3.15 0 0 0-1.3-.26 3.15 3.15 0 0 0-1.3.26 2.7 2.7 0 0 0-.98.68c-.267.28-.473.627-.62 1.04a3.8 3.8 0 0 0-.22 1.32zm-1.92 0c0-.693.127-1.34.38-1.94.267-.6.627-1.127 1.08-1.58a4.86 4.86 0 0 1 1.6-1.06c.613-.267 1.273-.4 1.98-.4s1.367.133 1.98.4a4.86 4.86 0 0 1 1.6 1.06 4.91 4.91 0 0 1 1.06 1.58c.267.6.4 1.247.4 1.94s-.133 1.347-.4 1.96a4.91 4.91 0 0 1-1.06 1.58c-.453.44-.987.793-1.6 1.06-.613.253-1.273.38-1.98.38s-1.367-.127-1.98-.38c-.613-.267-1.147-.62-1.6-1.06-.453-.453-.813-.98-1.08-1.58a5.09 5.09 0 0 1-.38-1.96zm12.475-10.38h1.8v15.12h-1.8v-15.12zm4.805 0h1.8v15.12h-1.8v-15.12zm4.704 6.8a4.9 4.9 0 0 1 1.76-1.04c.667-.24 1.334-.36 2-.36.694 0 1.287.087 1.78.26.507.173.92.407 1.24.7a2.63 2.63 0 0 1 .7 1.02c.16.373.24.767.24 1.18v4.84l.02.92.06.8h-1.6l-.06-1.44h-.04c-.4.613-.873 1.047-1.42 1.3s-1.18.38-1.9.38a4.36 4.36 0 0 1-1.26-.18 3.19 3.19 0 0 1-1.06-.54 2.67 2.67 0 0 1-.7-.88c-.173-.36-.26-.773-.26-1.24 0-.613.134-1.127.4-1.54.28-.413.654-.747 1.12-1a5.19 5.19 0 0 1 1.66-.56c.64-.12 1.32-.18 2.04-.18h1.32v-.4a1.96 1.96 0 0 0-.14-.72c-.093-.24-.233-.453-.42-.64a1.83 1.83 0 0 0-.7-.46c-.28-.12-.613-.18-1-.18a3.8 3.8 0 0 0-.92.1c-.253.067-.486.153-.7.26a2.79 2.79 0 0 0-.58.34l-.5.38-1.08-1.12zm5.08 3.76a11.39 11.39 0 0 0-1.32.08 4.97 4.97 0 0 0-1.22.26c-.36.133-.66.32-.9.56-.226.24-.34.547-.34.92 0 .547.18.94.54 1.18.374.24.874.36 1.5.36.494 0 .914-.08 1.26-.24.347-.173.627-.393.84-.66a2.52 2.52 0 0 0 .46-.88c.094-.333.14-.66.14-.98v-.6h-.96zm5.252-10.56h1.8v7h.04c.32-.493.78-.88 1.38-1.16a4.32 4.32 0 0 1 1.92-.44c.733 0 1.393.127 1.98.38.6.253 1.106.607 1.52 1.06.426.44.753.967.98 1.58.226.6.34 1.253.34 1.96s-.114 1.36-.34 1.96a4.72 4.72 0 0 1-.98 1.58c-.414.453-.92.807-1.52 1.06-.587.253-1.247.38-1.98.38-.64 0-1.267-.14-1.88-.42-.6-.28-1.074-.673-1.42-1.18h-.04v1.36h-1.8v-15.12zm4.92 13.68c.48 0 .913-.08 1.3-.24.386-.173.713-.4.98-.68a3.14 3.14 0 0 0 .62-1.04c.146-.413.22-.86.22-1.34s-.074-.92-.22-1.32c-.147-.413-.354-.76-.62-1.04a2.71 2.71 0 0 0-.98-.68 3.15 3.15 0 0 0-1.3-.26c-.48 0-.914.087-1.3.26-.387.16-.714.387-.98.68a2.87 2.87 0 0 0-.62 1.04 3.8 3.8 0 0 0-.22 1.32 3.97 3.97 0 0 0 .22 1.34c.146.4.353.747.62 1.04a3.05 3.05 0 0 0 .98.68c.386.16.82.24 1.3.24zm8.766-3.3a3.97 3.97 0 0 0 .22 1.34c.147.4.353.747.62 1.04a3.06 3.06 0 0 0 .98.68c.387.16.82.24 1.3.24s.913-.08 1.3-.24a3.06 3.06 0 0 0 .98-.68c.267-.293.473-.64.62-1.04a3.97 3.97 0 0 0 .22-1.34 3.8 3.8 0 0 0-.22-1.32c-.147-.413-.353-.76-.62-1.04a2.7 2.7 0 0 0-.98-.68 3.15 3.15 0 0 0-1.3-.26 3.15 3.15 0 0 0-1.3.26 2.7 2.7 0 0 0-.98.68c-.267.28-.473.627-.62 1.04a3.8 3.8 0 0 0-.22 1.32zm-1.92 0c0-.693.127-1.34.38-1.94.267-.6.627-1.127 1.08-1.58a4.86 4.86 0 0 1 1.6-1.06c.613-.267 1.273-.4 1.98-.4s1.367.133 1.98.4a4.86 4.86 0 0 1 1.6 1.06 4.91 4.91 0 0 1 1.06 1.58c.267.6.4 1.247.4 1.94s-.133 1.347-.4 1.96a4.91 4.91 0 0 1-1.06 1.58c-.453.44-.987.793-1.6 1.06-.613.253-1.273.38-1.98.38s-1.367-.127-1.98-.38c-.613-.267-1.147-.62-1.6-1.06-.453-.453-.813-.98-1.08-1.58a5.09 5.09 0 0 1-.38-1.96zm12.333-4.74h1.8v1.46h.04c.12-.253.28-.48.48-.68.2-.213.42-.393.66-.54.26-.147.53-.26.82-.34.3-.093.59-.14.88-.14a2.49 2.49 0 0 1 .8.12l-.08 1.94a4.56 4.56 0 0 0-.44-.1c-.14-.027-.29-.04-.44-.04-.88 0-1.55.247-2.02.74-.46.493-.7 1.26-.7 2.3v4.76h-1.8v-9.48zm7.44 1.16c.51-.467 1.1-.813 1.76-1.04.67-.24 1.34-.36 2-.36.7 0 1.29.087 1.78.26.51.173.92.407 1.24.7s.56.633.7 1.02c.16.373.24.767.24 1.18v4.84l.02.92.06.8h-1.6l-.06-1.44h-.04c-.4.613-.87 1.047-1.42 1.3-.54.253-1.18.38-1.9.38a4.36 4.36 0 0 1-1.26-.18 3.22 3.22 0 0 1-1.06-.54 2.79 2.79 0 0 1-.7-.88c-.17-.36-.26-.773-.26-1.24 0-.613.14-1.127.4-1.54.28-.413.66-.747 1.12-1 .48-.267 1.04-.453 1.66-.56.64-.12 1.32-.18 2.04-.18h1.32v-.4c0-.24-.04-.48-.14-.72-.09-.24-.23-.453-.42-.64-.18-.2-.42-.353-.7-.46-.28-.12-.61-.18-1-.18-.34 0-.65.033-.92.1-.25.067-.48.153-.7.26a3.04 3.04 0 0 0-.58.34l-.5.38-1.08-1.12zm5.08 3.76a11.55 11.55 0 0 0-1.32.08 5.03 5.03 0 0 0-1.22.26c-.36.133-.66.32-.9.56-.22.24-.34.547-.34.92 0 .547.18.94.54 1.18.38.24.88.36 1.5.36.5 0 .92-.08 1.26-.24.35-.173.63-.393.84-.66.22-.267.37-.56.46-.88a3.38 3.38 0 0 0 .14-.98v-.6h-.96zm10.34-3.36h-2.58v4.3l.02.8c.01.253.06.487.14.7a1.24 1.24 0 0 0 .4.5c.18.12.45.18.8.18.21 0 .43-.02.66-.06.22-.04.43-.113.62-.22v1.64c-.22.12-.5.2-.84.24-.34.053-.6.08-.78.08-.7 0-1.24-.093-1.62-.28-.38-.2-.66-.453-.84-.76s-.28-.647-.32-1.02l-.04-1.16v-4.94h-2.08v-1.56h2.08v-2.66h1.8v2.66h2.58v1.56zm2.46-1.56h1.8v9.48h-1.8v-9.48zm-.42-3.4c0-.36.12-.667.38-.92.26-.267.58-.4.94-.4a1.23 1.23 0 0 1 .92.4c.26.253.4.56.4.92s-.14.673-.4.94c-.26.253-.56.38-.92.38a1.31 1.31 0 0 1-.94-.38c-.26-.267-.38-.58-.38-.94zm6.54 8.14a4.15 4.15 0 0 0 .22 1.34 3.3 3.3 0 0 0 .62 1.04c.27.28.6.507.98.68.39.16.82.24 1.3.24s.92-.08 1.3-.24c.39-.173.72-.4.98-.68.27-.293.48-.64.62-1.04.15-.413.22-.86.22-1.34s-.07-.92-.22-1.32a2.75 2.75 0 0 0-.62-1.04 2.62 2.62 0 0 0-.98-.68c-.38-.173-.82-.26-1.3-.26a3.16 3.16 0 0 0-1.3.26 2.79 2.79 0 0 0-.98.68c-.26.28-.47.627-.62 1.04a3.97 3.97 0 0 0-.22 1.32zm-1.92 0c0-.693.13-1.34.38-1.94.27-.6.63-1.127 1.08-1.58.46-.453.99-.807 1.6-1.06.62-.267 1.28-.4 1.98-.4.71 0 1.37.133 1.98.4a4.76 4.76 0 0 1 1.6 1.06c.46.453.81.98 1.06 1.58a4.67 4.67 0 0 1 .4 1.94c0 .693-.13 1.347-.4 1.96-.25.6-.6 1.127-1.06 1.58a5.2 5.2 0 0 1-1.6 1.06c-.61.253-1.27.38-1.98.38a5.19 5.19 0 0 1-1.98-.38 5.45 5.45 0 0 1-1.6-1.06c-.45-.453-.81-.98-1.08-1.58-.25-.613-.38-1.267-.38-1.96zm12.34-4.74h1.8v1.46h.04c.22-.507.62-.913 1.18-1.22.56-.32 1.2-.48 1.94-.48.45 0 .88.073 1.3.22.42.133.79.347 1.1.64.32.293.57.673.76 1.14.18.453.28.993.28 1.62v6.1h-1.8v-5.6c0-.44-.06-.813-.18-1.12-.12-.32-.28-.573-.48-.76-.2-.2-.44-.34-.7-.42a2.33 2.33 0 0 0-.8-.14c-.38 0-.72.06-1.04.18s-.6.313-.84.58c-.24.253-.43.58-.56.98-.14.4-.2.873-.2 1.42v4.88h-1.8v-9.48zm-445.646 41.16a4.89 4.89 0 0 1 1.76-1.04 5.87 5.87 0 0 1 2-.36c.693 0 1.287.087 1.78.26.507.173.92.407 1.24.7a2.64 2.64 0 0 1 .7 1.02c.16.373.24.767.24 1.18v4.84l.02.92.06.8h-1.6l-.06-1.44h-.04c-.4.613-.873 1.047-1.42 1.3s-1.18.38-1.9.38a4.36 4.36 0 0 1-1.26-.18 3.19 3.19 0 0 1-1.06-.54c-.293-.24-.527-.533-.7-.88-.173-.36-.26-.773-.26-1.24 0-.613.133-1.127.4-1.54.28-.413.653-.747 1.12-1 .48-.267 1.033-.453 1.66-.56.64-.12 1.32-.18 2.04-.18h1.32v-.4a1.98 1.98 0 0 0-.14-.72c-.093-.24-.233-.453-.42-.64a1.84 1.84 0 0 0-.7-.46c-.28-.12-.613-.18-1-.18-.347 0-.653.033-.92.1a3.62 3.62 0 0 0-.7.26 2.76 2.76 0 0 0-.58.34l-.5.38-1.08-1.12zm5.08 3.76c-.427 0-.867.027-1.32.08a4.96 4.96 0 0 0-1.22.26c-.36.133-.66.32-.9.56-.227.24-.34.547-.34.92 0 .547.18.94.54 1.18.373.24.873.36 1.5.36.493 0 .913-.08 1.26-.24.347-.173.627-.393.84-.66s.367-.56.46-.88c.093-.333.14-.66.14-.98v-.6h-.96zm5.251-4.92h1.8v1.46h.04c.227-.507.62-.913 1.18-1.22.56-.32 1.207-.48 1.94-.48a3.85 3.85 0 0 1 1.3.22c.427.133.793.347 1.1.64.32.293.573.673.76 1.14.187.453.28.993.28 1.62v6.1h-1.8v-5.6c0-.44-.06-.813-.18-1.12-.12-.32-.28-.573-.48-.76-.2-.2-.433-.34-.7-.42a2.3 2.3 0 0 0-.8-.14 2.94 2.94 0 0 0-1.04.18c-.32.12-.6.313-.84.58-.24.253-.427.58-.56.98s-.2.873-.2 1.42v4.88h-1.8v-9.48zm20.613 9.48h-1.8v-1.36h-.04c-.346.507-.826.9-1.44 1.18a4.35 4.35 0 0 1-1.86.42c-.733 0-1.4-.127-2-.38-.586-.253-1.093-.607-1.52-1.06-.413-.453-.733-.98-.96-1.58s-.34-1.253-.34-1.96.114-1.36.34-1.96c.227-.613.547-1.14.96-1.58.427-.453.934-.807 1.52-1.06.6-.253 1.267-.38 2-.38a4.32 4.32 0 0 1 1.92.44c.6.28 1.06.667 1.38 1.16h.04v-7h1.8v15.12zm-4.92-1.44c.48 0 .914-.08 1.3-.24a3.05 3.05 0 0 0 .98-.68c.267-.293.474-.64.62-1.04a3.97 3.97 0 0 0 .22-1.34 3.8 3.8 0 0 0-.22-1.32 2.87 2.87 0 0 0-.62-1.04c-.266-.293-.593-.52-.98-.68-.386-.173-.82-.26-1.3-.26a3.15 3.15 0 0 0-1.3.26 2.71 2.71 0 0 0-.98.68c-.266.28-.473.627-.62 1.04-.146.4-.22.84-.22 1.32s.074.927.22 1.34a3.14 3.14 0 0 0 .62 1.04c.267.28.594.507.98.68.387.16.82.24 1.3.24zm19.993-5.52c-.333-.347-.686-.607-1.06-.78-.36-.187-.793-.28-1.3-.28-.493 0-.926.093-1.3.28a2.6 2.6 0 0 0-.92.74c-.24.307-.426.667-.56 1.08a4.36 4.36 0 0 0-.18 1.26c0 .44.074.86.22 1.26.147.387.354.727.62 1.02a2.98 2.98 0 0 0 .96.7c.374.16.794.24 1.26.24.507 0 .94-.087 1.3-.26a3.47 3.47 0 0 0 1-.8l1.28 1.28c-.466.52-1.013.893-1.64 1.12-.613.227-1.266.34-1.96.34-.733 0-1.406-.12-2.02-.36a4.74 4.74 0 0 1-1.56-1 4.59 4.59 0 0 1-1.02-1.56c-.24-.613-.36-1.287-.36-2.02s.12-1.407.36-2.02.574-1.14 1-1.58a4.59 4.59 0 0 1 1.56-1.02c.614-.253 1.294-.38 2.04-.38.694 0 1.354.127 1.98.38.64.24 1.194.613 1.66 1.12l-1.36 1.24zm4.329 2.22a3.97 3.97 0 0 0 .22 1.34c.146.4.353.747.62 1.04a3.05 3.05 0 0 0 .98.68c.386.16.82.24 1.3.24s.913-.08 1.3-.24c.386-.173.713-.4.98-.68a3.14 3.14 0 0 0 .62-1.04c.146-.413.22-.86.22-1.34s-.074-.92-.22-1.32c-.147-.413-.354-.76-.62-1.04a2.71 2.71 0 0 0-.98-.68 3.15 3.15 0 0 0-1.3-.26c-.48 0-.914.087-1.3.26-.387.16-.714.387-.98.68a2.87 2.87 0 0 0-.62 1.04 3.8 3.8 0 0 0-.22 1.32zm-1.92 0c0-.693.126-1.34.38-1.94a5.17 5.17 0 0 1 1.08-1.58 4.85 4.85 0 0 1 1.6-1.06c.613-.267 1.273-.4 1.98-.4a4.91 4.91 0 0 1 1.98.4 4.87 4.87 0 0 1 1.6 1.06 4.93 4.93 0 0 1 1.06 1.58c.266.6.4 1.247.4 1.94s-.134 1.347-.4 1.96a4.93 4.93 0 0 1-1.06 1.58c-.454.44-.987.793-1.6 1.06-.614.253-1.274.38-1.98.38s-1.367-.127-1.98-.38a5.31 5.31 0 0 1-1.6-1.06 5.17 5.17 0 0 1-1.08-1.58 5.07 5.07 0 0 1-.38-1.96zm12.335-4.74h1.68v1.48h.04c.04-.133.14-.3.3-.5.173-.2.386-.387.64-.56.266-.187.573-.34.92-.46a3.38 3.38 0 0 1 1.18-.2c.706 0 1.3.147 1.78.44s.873.733 1.18 1.32c.306-.587.74-1.027 1.3-1.32s1.126-.44 1.7-.44c.733 0 1.333.12 1.8.36s.833.56 1.1.96a3.44 3.44 0 0 1 .54 1.34 7.31 7.31 0 0 1 .16 1.54v5.52h-1.8v-5.28c0-.36-.027-.707-.08-1.04a2.29 2.29 0 0 0-.28-.88 1.59 1.59 0 0 0-.62-.6c-.267-.16-.62-.24-1.06-.24-.867 0-1.487.267-1.86.8s-.56 1.22-.56 2.06v5.18h-1.8v-4.96a8.86 8.86 0 0 0-.08-1.24c-.04-.373-.134-.693-.28-.96-.134-.28-.334-.493-.6-.64-.254-.16-.6-.24-1.04-.24a2.34 2.34 0 0 0-.94.2c-.294.12-.554.307-.78.56s-.407.58-.54.98c-.134.387-.2.847-.2 1.38v4.92h-1.8v-9.48zm17.031 0h1.68v1.48h.04c.04-.133.14-.3.3-.5a3.31 3.31 0 0 1 .64-.56 3.7 3.7 0 0 1 .92-.46 3.38 3.38 0 0 1 1.18-.2c.707 0 1.3.147 1.78.44s.873.733 1.18 1.32c.307-.587.74-1.027 1.3-1.32s1.127-.44 1.7-.44c.733 0 1.333.12 1.8.36s.833.56 1.1.96a3.41 3.41 0 0 1 .54 1.34c.107.493.16 1.007.16 1.54v5.52h-1.8v-5.28c0-.36-.027-.707-.08-1.04-.04-.333-.133-.627-.28-.88s-.353-.453-.62-.6c-.267-.16-.62-.24-1.06-.24-.867 0-1.487.267-1.86.8s-.56 1.22-.56 2.06v5.18h-1.8v-4.96a8.86 8.86 0 0 0-.08-1.24c-.04-.373-.133-.693-.28-.96-.133-.28-.333-.493-.6-.64-.253-.16-.6-.24-1.04-.24-.32 0-.633.067-.94.2-.293.12-.553.307-.78.56s-.407.58-.54.98c-.133.387-.2.847-.2 1.38v4.92h-1.8v-9.48zm25.431 9.48h-1.8v-1.46h-.04c-.226.507-.62.92-1.18 1.24-.56.307-1.206.46-1.94.46-.466 0-.906-.073-1.32-.22a2.95 2.95 0 0 1-1.1-.64c-.306-.293-.553-.667-.74-1.12-.186-.467-.28-1.013-.28-1.64v-6.1h1.8v5.6c0 .44.06.82.18 1.14.12.307.28.56.48.76.2.187.427.327.68.42a2.84 2.84 0 0 0 .82.12c.374 0 .72-.06 1.04-.18a2.22 2.22 0 0 0 .84-.56 2.79 2.79 0 0 0 .56-1c.134-.4.2-.873.2-1.42v-4.88h1.8v9.48zm2.714-9.48h1.8v1.46h.04c.226-.507.62-.913 1.18-1.22.56-.32 1.206-.48 1.94-.48.453 0 .886.073 1.3.22a2.76 2.76 0 0 1 1.1.64c.32.293.573.673.76 1.14.186.453.28.993.28 1.62v6.1h-1.8v-5.6c0-.44-.06-.813-.18-1.12-.12-.32-.28-.573-.48-.76a1.65 1.65 0 0 0-.7-.42c-.254-.093-.52-.14-.8-.14-.374 0-.72.06-1.04.18s-.6.313-.84.58c-.24.253-.427.58-.56.98s-.2.873-.2 1.42v4.88h-1.8v-9.48zm11.253 0h1.8v9.48h-1.8v-9.48zm-.42-3.4c0-.36.127-.667.38-.92.267-.267.58-.4.94-.4a1.22 1.22 0 0 1 1.32 1.32c0 .36-.133.673-.4.94-.253.253-.56.38-.92.38a1.32 1.32 0 0 1-1.32-1.32zm11.865 5.92c-.334-.347-.687-.607-1.06-.78-.36-.187-.794-.28-1.3-.28-.494 0-.927.093-1.3.28-.36.173-.667.42-.92.74-.24.307-.427.667-.56 1.08a4.36 4.36 0 0 0-.18 1.26c0 .44.073.86.22 1.26a3.15 3.15 0 0 0 .62 1.02 2.96 2.96 0 0 0 .96.7c.373.16.793.24 1.26.24.506 0 .94-.087 1.3-.26.36-.187.693-.453 1-.8l1.28 1.28c-.467.52-1.014.893-1.64 1.12-.614.227-1.267.34-1.96.34-.734 0-1.407-.12-2.02-.36a4.74 4.74 0 0 1-1.56-1 4.59 4.59 0 0 1-1.02-1.56c-.24-.613-.36-1.287-.36-2.02s.12-1.407.36-2.02.573-1.14 1-1.58a4.59 4.59 0 0 1 1.56-1.02c.613-.253 1.293-.38 2.04-.38a5.24 5.24 0 0 1 1.98.38 4.26 4.26 0 0 1 1.66 1.12l-1.36 1.24zm2.908-1.36a4.89 4.89 0 0 1 1.76-1.04 5.87 5.87 0 0 1 2-.36c.693 0 1.287.087 1.78.26.507.173.92.407 1.24.7a2.64 2.64 0 0 1 .7 1.02c.16.373.24.767.24 1.18v4.84l.02.92.06.8h-1.6l-.06-1.44h-.04c-.4.613-.873 1.047-1.42 1.3s-1.18.38-1.9.38a4.36 4.36 0 0 1-1.26-.18 3.19 3.19 0 0 1-1.06-.54c-.293-.24-.527-.533-.7-.88-.173-.36-.26-.773-.26-1.24 0-.613.133-1.127.4-1.54.28-.413.653-.747 1.12-1 .48-.267 1.033-.453 1.66-.56.64-.12 1.32-.18 2.04-.18h1.32v-.4a1.98 1.98 0 0 0-.14-.72c-.093-.24-.233-.453-.42-.64a1.84 1.84 0 0 0-.7-.46c-.28-.12-.613-.18-1-.18-.347 0-.653.033-.92.1a3.62 3.62 0 0 0-.7.26 2.76 2.76 0 0 0-.58.34l-.5.38-1.08-1.12zm5.08 3.76c-.427 0-.867.027-1.32.08a4.96 4.96 0 0 0-1.22.26c-.36.133-.66.32-.9.56-.227.24-.34.547-.34.92 0 .547.18.94.54 1.18.373.24.873.36 1.5.36.493 0 .913-.08 1.26-.24.347-.173.627-.393.84-.66s.367-.56.46-.88c.093-.333.14-.66.14-.98v-.6h-.96zm10.331-3.36h-2.58v4.3l.02.8a2.32 2.32 0 0 0 .14.7 1.33 1.33 0 0 0 .4.5c.187.12.453.18.8.18a3.8 3.8 0 0 0 .66-.06 1.9 1.9 0 0 0 .62-.22v1.64c-.213.12-.493.2-.84.24-.333.053-.593.08-.78.08-.693 0-1.233-.093-1.62-.28-.373-.2-.653-.453-.84-.76-.173-.307-.28-.647-.32-1.02l-.04-1.16v-4.94h-2.08v-1.56h2.08v-2.66h1.8v2.66h2.58v1.56zm2.462-1.56h1.8v9.48h-1.8v-9.48zm-.42-3.4c0-.36.127-.667.38-.92.267-.267.58-.4.94-.4a1.22 1.22 0 0 1 1.32 1.32c0 .36-.133.673-.4.94-.253.253-.56.38-.92.38a1.32 1.32 0 0 1-1.32-1.32zm6.545 8.14a3.97 3.97 0 0 0 .22 1.34c.147.4.353.747.62 1.04a3.06 3.06 0 0 0 .98.68c.387.16.82.24 1.3.24s.913-.08 1.3-.24a3.06 3.06 0 0 0 .98-.68c.267-.293.473-.64.62-1.04a3.97 3.97 0 0 0 .22-1.34 3.8 3.8 0 0 0-.22-1.32c-.147-.413-.353-.76-.62-1.04a2.7 2.7 0 0 0-.98-.68 3.15 3.15 0 0 0-1.3-.26 3.15 3.15 0 0 0-1.3.26 2.7 2.7 0 0 0-.98.68c-.267.28-.473.627-.62 1.04a3.8 3.8 0 0 0-.22 1.32zm-1.92 0c0-.693.127-1.34.38-1.94.267-.6.627-1.127 1.08-1.58a4.86 4.86 0 0 1 1.6-1.06c.613-.267 1.273-.4 1.98-.4s1.367.133 1.98.4a4.86 4.86 0 0 1 1.6 1.06 4.91 4.91 0 0 1 1.06 1.58c.267.6.4 1.247.4 1.94s-.133 1.347-.4 1.96a4.91 4.91 0 0 1-1.06 1.58c-.453.44-.987.793-1.6 1.06-.613.253-1.273.38-1.98.38s-1.367-.127-1.98-.38c-.613-.267-1.147-.62-1.6-1.06-.453-.453-.813-.98-1.08-1.58a5.09 5.09 0 0 1-.38-1.96zm12.335-4.74h1.8v1.46h.04c.227-.507.62-.913 1.18-1.22.56-.32 1.207-.48 1.94-.48a3.85 3.85 0 0 1 1.3.22c.427.133.793.347 1.1.64.32.293.573.673.76 1.14.187.453.28.993.28 1.62v6.1h-1.8v-5.6c0-.44-.06-.813-.18-1.12-.12-.32-.28-.573-.48-.76-.2-.2-.433-.34-.7-.42a2.3 2.3 0 0 0-.8-.14 2.94 2.94 0 0 0-1.04.18c-.32.12-.6.313-.84.58-.24.253-.427.58-.56.98s-.2.873-.2 1.42v4.88h-1.8v-9.48zm16.68-5.64h1.8v7h.04c.32-.493.78-.88 1.38-1.16a4.32 4.32 0 0 1 1.92-.44c.733 0 1.393.127 1.98.38.6.253 1.106.607 1.52 1.06.426.44.753.967.98 1.58.226.6.34 1.253.34 1.96s-.114 1.36-.34 1.96a4.72 4.72 0 0 1-.98 1.58c-.414.453-.92.807-1.52 1.06-.587.253-1.247.38-1.98.38-.64 0-1.267-.14-1.88-.42-.6-.28-1.074-.673-1.42-1.18h-.04v1.36h-1.8v-15.12zm4.92 13.68c.48 0 .913-.08 1.3-.24.386-.173.713-.4.98-.68a3.14 3.14 0 0 0 .62-1.04c.146-.413.22-.86.22-1.34s-.074-.92-.22-1.32c-.147-.413-.354-.76-.62-1.04a2.71 2.71 0 0 0-.98-.68 3.15 3.15 0 0 0-1.3-.26c-.48 0-.914.087-1.3.26-.387.16-.714.387-.98.68a2.87 2.87 0 0 0-.62 1.04 3.8 3.8 0 0 0-.22 1.32 3.97 3.97 0 0 0 .22 1.34c.146.4.353.747.62 1.04a3.05 3.05 0 0 0 .98.68c.386.16.82.24 1.3.24zm8.666-2.64a2.52 2.52 0 0 0 .26 1.14 3 3 0 0 0 .72.86c.294.24.634.427 1.02.56s.787.2 1.2.2c.56 0 1.047-.127 1.46-.38.414-.267.794-.613 1.14-1.04l1.36 1.04c-1 1.293-2.4 1.94-4.2 1.94-.746 0-1.426-.127-2.04-.38-.6-.253-1.113-.6-1.54-1.04-.413-.453-.733-.98-.96-1.58a5.68 5.68 0 0 1-.34-1.98c0-.707.12-1.36.36-1.96a4.99 4.99 0 0 1 1.02-1.58 4.69 4.69 0 0 1 1.56-1.06c.6-.253 1.254-.38 1.96-.38.84 0 1.547.147 2.12.44.587.293 1.067.68 1.44 1.16.374.467.64 1 .8 1.6a6.3 6.3 0 0 1 .26 1.8v.64h-7.6zm5.68-1.44c-.013-.4-.08-.767-.2-1.1-.106-.333-.273-.62-.5-.86-.226-.253-.513-.447-.86-.58-.333-.147-.726-.22-1.18-.22-.44 0-.846.087-1.22.26a2.85 2.85 0 0 0-.92.64 3.15 3.15 0 0 0-.6.9c-.133.32-.2.64-.2.96h5.68zm9.154-2.4h-2.58v4.3l.02.8a2.32 2.32 0 0 0 .14.7 1.32 1.32 0 0 0 .4.5c.186.12.453.18.8.18a3.8 3.8 0 0 0 .66-.06c.226-.04.433-.113.62-.22v1.64c-.214.12-.494.2-.84.24-.334.053-.594.08-.78.08-.694 0-1.234-.093-1.62-.28-.374-.2-.654-.453-.84-.76-.174-.307-.28-.647-.32-1.02l-.04-1.16v-4.94h-2.08v-1.56h2.08v-2.66h1.8v2.66h2.58v1.56zm1.182-1.56h2.02l2.14 7.08h.04l2.26-7.08h1.9l2.4 7.08h.04l2.04-7.08h1.9l-3.06 9.48h-1.82l-2.5-7.08h-.04l-2.26 7.08h-1.94l-3.12-9.48zm17.676 5.4c0 .413.086.793.26 1.14a2.97 2.97 0 0 0 .72.86 3.27 3.27 0 0 0 1.02.56 3.66 3.66 0 0 0 1.2.2c.56 0 1.046-.127 1.46-.38.413-.267.793-.613 1.14-1.04l1.36 1.04c-1 1.293-2.4 1.94-4.2 1.94-.747 0-1.427-.127-2.04-.38-.6-.253-1.114-.6-1.54-1.04a4.85 4.85 0 0 1-.96-1.58c-.227-.613-.34-1.273-.34-1.98s.12-1.36.36-1.96c.253-.613.593-1.14 1.02-1.58a4.69 4.69 0 0 1 1.56-1.06c.6-.253 1.253-.38 1.96-.38.84 0 1.546.147 2.12.44.586.293 1.066.68 1.44 1.16.373.467.64 1 .8 1.6.173.587.26 1.187.26 1.8v.64h-7.6zm5.68-1.44c-.014-.4-.08-.767-.2-1.1-.107-.333-.274-.62-.5-.86a2.19 2.19 0 0 0-.86-.58c-.334-.147-.727-.22-1.18-.22-.44 0-.847.087-1.22.26-.36.16-.667.373-.92.64s-.454.567-.6.9c-.134.32-.2.64-.2.96h5.68zm5.433 1.44a2.52 2.52 0 0 0 .26 1.14 3 3 0 0 0 .72.86 3.27 3.27 0 0 0 1.02.56c.387.133.787.2 1.2.2.56 0 1.047-.127 1.46-.38.413-.267.793-.613 1.14-1.04l1.36 1.04c-1 1.293-2.4 1.94-4.2 1.94-.747 0-1.427-.127-2.04-.38-.6-.253-1.113-.6-1.54-1.04-.413-.453-.733-.98-.96-1.58-.227-.613-.34-1.273-.34-1.98s.12-1.36.36-1.96c.253-.613.593-1.14 1.02-1.58a4.69 4.69 0 0 1 1.56-1.06c.6-.253 1.253-.38 1.96-.38.84 0 1.547.147 2.12.44.587.293 1.067.68 1.44 1.16.373.467.64 1 .8 1.6.173.587.26 1.187.26 1.8v.64h-7.6zm5.68-1.44c-.013-.4-.08-.767-.2-1.1a2.22 2.22 0 0 0-.5-.86c-.227-.253-.513-.447-.86-.58-.333-.147-.727-.22-1.18-.22-.44 0-.847.087-1.22.26-.36.16-.667.373-.92.64a3.15 3.15 0 0 0-.6.9c-.133.32-.2.64-.2.96h5.68zm4.073-3.96h1.8v1.46h.04c.227-.507.62-.913 1.18-1.22.56-.32 1.207-.48 1.94-.48.454 0 .887.073 1.3.22.427.133.794.347 1.1.64.32.293.574.673.76 1.14.187.453.28.993.28 1.62v6.1h-1.8v-5.6c0-.44-.06-.813-.18-1.12-.12-.32-.28-.573-.48-.76-.2-.2-.433-.34-.7-.42a2.3 2.3 0 0 0-.8-.14 2.94 2.94 0 0 0-1.04.18c-.32.12-.6.313-.84.58-.24.253-.426.58-.56.98s-.2.873-.2 1.42v4.88h-1.8v-9.48zm26.18 9.48h-1.8v-1.36h-.04c-.347.507-.827.9-1.44 1.18a4.35 4.35 0 0 1-1.86.42c-.733 0-1.4-.127-2-.38-.587-.253-1.093-.607-1.52-1.06-.413-.453-.733-.98-.96-1.58s-.34-1.253-.34-1.96.113-1.36.34-1.96c.227-.613.547-1.14.96-1.58.427-.453.933-.807 1.52-1.06.6-.253 1.267-.38 2-.38a4.32 4.32 0 0 1 1.92.44c.6.28 1.06.667 1.38 1.16h.04v-7h1.8v15.12zm-4.92-1.44c.48 0 .913-.08 1.3-.24a3.06 3.06 0 0 0 .98-.68c.267-.293.473-.64.62-1.04a3.97 3.97 0 0 0 .22-1.34 3.8 3.8 0 0 0-.22-1.32c-.147-.413-.353-.76-.62-1.04a2.7 2.7 0 0 0-.98-.68 3.15 3.15 0 0 0-1.3-.26 3.15 3.15 0 0 0-1.3.26 2.7 2.7 0 0 0-.98.68c-.267.28-.473.627-.62 1.04a3.8 3.8 0 0 0-.22 1.32 3.97 3.97 0 0 0 .22 1.34c.147.4.353.747.62 1.04a3.06 3.06 0 0 0 .98.68c.387.16.82.24 1.3.24zm9.007-2.64c0 .413.086.793.26 1.14a2.97 2.97 0 0 0 .72.86 3.27 3.27 0 0 0 1.02.56 3.66 3.66 0 0 0 1.2.2c.56 0 1.046-.127 1.46-.38.413-.267.793-.613 1.14-1.04l1.36 1.04c-1 1.293-2.4 1.94-4.2 1.94-.747 0-1.427-.127-2.04-.38-.6-.253-1.114-.6-1.54-1.04a4.85 4.85 0 0 1-.96-1.58c-.227-.613-.34-1.273-.34-1.98s.12-1.36.36-1.96c.253-.613.593-1.14 1.02-1.58a4.69 4.69 0 0 1 1.56-1.06c.6-.253 1.253-.38 1.96-.38.84 0 1.546.147 2.12.44.586.293 1.066.68 1.44 1.16.373.467.64 1 .8 1.6.173.587.26 1.187.26 1.8v.64h-7.6zm5.68-1.44c-.014-.4-.08-.767-.2-1.1-.107-.333-.274-.62-.5-.86a2.19 2.19 0 0 0-.86-.58c-.334-.147-.727-.22-1.18-.22-.44 0-.847.087-1.22.26-.36.16-.667.373-.92.64s-.454.567-.6.9c-.134.32-.2.64-.2.96h5.68zm9.113-1.58c-.213-.267-.48-.487-.8-.66-.307-.187-.687-.28-1.14-.28-.427 0-.8.093-1.12.28a.84.84 0 0 0-.46.78.92.92 0 0 0 .26.68c.187.173.4.313.64.42a3.92 3.92 0 0 0 .8.24l.72.14c.387.093.747.207 1.08.34.347.133.64.307.88.52.253.213.447.473.58.78.147.307.22.68.22 1.12 0 .533-.113.993-.34 1.38a2.91 2.91 0 0 1-.88.92c-.36.24-.773.413-1.24.52-.453.107-.913.16-1.38.16-.787 0-1.48-.12-2.08-.36-.587-.24-1.113-.68-1.58-1.32l1.36-1.12a5.62 5.62 0 0 0 .98.78c.36.227.8.34 1.32.34.227 0 .453-.02.68-.06.24-.053.447-.127.62-.22.187-.107.333-.233.44-.38.12-.16.18-.34.18-.54 0-.267-.087-.487-.26-.66-.16-.173-.36-.307-.6-.4-.227-.107-.473-.187-.74-.24l-.68-.16-1.1-.32c-.347-.12-.653-.28-.92-.48a2.21 2.21 0 0 1-.64-.76c-.16-.307-.24-.687-.24-1.14 0-.493.1-.92.3-1.28.213-.373.487-.68.82-.92.347-.24.733-.42 1.16-.54.44-.12.88-.18 1.32-.18.64 0 1.253.12 1.84.36s1.053.64 1.4 1.2l-1.4 1.06zm3.987-2.38h1.8v9.48h-1.8v-9.48zm-.42-3.4a1.25 1.25 0 0 1 .38-.92c.266-.267.58-.4.94-.4a1.22 1.22 0 0 1 .92.4c.266.253.4.56.4.92a1.29 1.29 0 0 1-.4.94c-.254.253-.56.38-.92.38a1.32 1.32 0 0 1-.94-.38c-.254-.267-.38-.58-.38-.94zm14.584 12.8c0 .72-.126 1.373-.38 1.96a4.25 4.25 0 0 1-1.04 1.54c-.453.44-1 .78-1.64 1.02s-1.346.36-2.12.36c-.906 0-1.74-.127-2.5-.38-.746-.253-1.46-.693-2.14-1.32l1.22-1.52c.467.507.974.887 1.52 1.14.547.267 1.167.4 1.86.4.667 0 1.22-.1 1.66-.3.44-.187.787-.433 1.04-.74.267-.307.454-.66.56-1.06.107-.387.16-.78.16-1.18v-1.4h-.06c-.346.573-.82 1-1.42 1.28-.586.267-1.206.4-1.86.4-.693 0-1.34-.12-1.94-.36-.586-.253-1.093-.593-1.52-1.02-.426-.44-.76-.953-1-1.54-.24-.6-.36-1.247-.36-1.94a5.46 5.46 0 0 1 .34-1.94c.227-.613.547-1.147.96-1.6.427-.453.934-.807 1.52-1.06.6-.253 1.267-.38 2-.38a4.35 4.35 0 0 1 1.86.42c.614.28 1.094.673 1.44 1.18h.04v-1.36h1.8v9.4zm-4.92-7.96a3.15 3.15 0 0 0-1.3.26 2.71 2.71 0 0 0-.98.68c-.266.28-.473.627-.62 1.04-.146.4-.22.84-.22 1.32 0 .96.28 1.733.84 2.32.56.573 1.32.86 2.28.86s1.72-.287 2.28-.86c.56-.587.84-1.36.84-2.32a3.8 3.8 0 0 0-.22-1.32 2.87 2.87 0 0 0-.62-1.04c-.266-.293-.593-.52-.98-.68-.386-.173-.82-.26-1.3-.26zm7.647-1.44h1.8v1.46h.04c.226-.507.62-.913 1.18-1.22.56-.32 1.206-.48 1.94-.48.453 0 .886.073 1.3.22a2.76 2.76 0 0 1 1.1.64c.32.293.573.673.76 1.14.186.453.28.993.28 1.62v6.1h-1.8v-5.6c0-.44-.06-.813-.18-1.12-.12-.32-.28-.573-.48-.76a1.65 1.65 0 0 0-.7-.42c-.254-.093-.52-.14-.8-.14-.374 0-.72.06-1.04.18s-.6.313-.84.58c-.24.253-.427.58-.56.98s-.2.873-.2 1.42v4.88h-1.8v-9.48zm12.473 5.4a2.52 2.52 0 0 0 .26 1.14 3 3 0 0 0 .72.86 3.27 3.27 0 0 0 1.02.56c.387.133.787.2 1.2.2.56 0 1.047-.127 1.46-.38.413-.267.793-.613 1.14-1.04l1.36 1.04c-1 1.293-2.4 1.94-4.2 1.94-.747 0-1.427-.127-2.04-.38-.6-.253-1.113-.6-1.54-1.04-.413-.453-.733-.98-.96-1.58-.227-.613-.34-1.273-.34-1.98s.12-1.36.36-1.96c.253-.613.593-1.14 1.02-1.58a4.69 4.69 0 0 1 1.56-1.06c.6-.253 1.253-.38 1.96-.38.84 0 1.547.147 2.12.44.587.293 1.067.68 1.44 1.16.373.467.64 1 .8 1.6.173.587.26 1.187.26 1.8v.64h-7.6zm5.68-1.44c-.013-.4-.08-.767-.2-1.1a2.22 2.22 0 0 0-.5-.86c-.227-.253-.513-.447-.86-.58-.333-.147-.727-.22-1.18-.22-.44 0-.847.087-1.22.26-.36.16-.667.373-.92.64a3.15 3.15 0 0 0-.6.9c-.133.32-.2.64-.2.96h5.68zm4.073-3.96h1.8v1.46h.04c.12-.253.28-.48.48-.68.2-.213.42-.393.66-.54.254-.147.527-.26.82-.34.294-.093.587-.14.88-.14s.56.04.8.12l-.08 1.94-.44-.1c-.146-.027-.293-.04-.44-.04-.88 0-1.553.247-2.02.74s-.7 1.26-.7 2.3v4.76h-1.8v-9.48zm12.443 2.38c-.214-.267-.48-.487-.8-.66-.307-.187-.687-.28-1.14-.28-.427 0-.8.093-1.12.28a.84.84 0 0 0-.46.78c0 .28.086.507.26.68a2.32 2.32 0 0 0 .64.42 3.92 3.92 0 0 0 .8.24l.72.14c.386.093.746.207 1.08.34.346.133.64.307.88.52.253.213.446.473.58.78.146.307.22.68.22 1.12 0 .533-.114.993-.34 1.38a2.91 2.91 0 0 1-.88.92 3.71 3.71 0 0 1-1.24.52c-.454.107-.914.16-1.38.16-.787 0-1.48-.12-2.08-.36-.587-.24-1.114-.68-1.58-1.32l1.36-1.12a5.62 5.62 0 0 0 .98.78c.36.227.8.34 1.32.34.226 0 .453-.02.68-.06.24-.053.446-.127.62-.22.186-.107.333-.233.44-.38.12-.16.18-.34.18-.54 0-.267-.087-.487-.26-.66-.16-.173-.36-.307-.6-.4-.227-.107-.474-.187-.74-.24l-.68-.16-1.1-.32a3.33 3.33 0 0 1-.92-.48 2.21 2.21 0 0 1-.64-.76c-.16-.307-.24-.687-.24-1.14 0-.493.1-.92.3-1.28.213-.373.486-.68.82-.92.346-.24.733-.42 1.16-.54.44-.12.88-.18 1.32-.18.64 0 1.253.12 1.84.36s1.053.64 1.4 1.2l-1.4 1.06zm9.453-1.22a4.89 4.89 0 0 1 1.76-1.04 5.87 5.87 0 0 1 2-.36c.693 0 1.287.087 1.78.26.507.173.92.407 1.24.7a2.64 2.64 0 0 1 .7 1.02c.16.373.24.767.24 1.18v4.84l.02.92.06.8h-1.6l-.06-1.44h-.04c-.4.613-.873 1.047-1.42 1.3s-1.18.38-1.9.38a4.36 4.36 0 0 1-1.26-.18 3.19 3.19 0 0 1-1.06-.54c-.293-.24-.527-.533-.7-.88-.173-.36-.26-.773-.26-1.24 0-.613.133-1.127.4-1.54.28-.413.653-.747 1.12-1 .48-.267 1.033-.453 1.66-.56.64-.12 1.32-.18 2.04-.18h1.32v-.4a1.98 1.98 0 0 0-.14-.72c-.093-.24-.233-.453-.42-.64a1.84 1.84 0 0 0-.7-.46c-.28-.12-.613-.18-1-.18-.347 0-.653.033-.92.1a3.62 3.62 0 0 0-.7.26 2.76 2.76 0 0 0-.58.34l-.5.38-1.08-1.12zm5.08 3.76c-.427 0-.867.027-1.32.08a4.96 4.96 0 0 0-1.22.26c-.36.133-.66.32-.9.56-.227.24-.34.547-.34.92 0 .547.18.94.54 1.18.373.24.873.36 1.5.36.493 0 .913-.08 1.26-.24.347-.173.627-.393.84-.66s.367-.56.46-.88c.093-.333.14-.66.14-.98v-.6h-.96zm5.251-4.92h1.8v1.46h.04c.227-.507.62-.913 1.18-1.22.56-.32 1.207-.48 1.94-.48a3.85 3.85 0 0 1 1.3.22c.427.133.793.347 1.1.64.32.293.573.673.76 1.14.187.453.28.993.28 1.62v6.1h-1.8v-5.6c0-.44-.06-.813-.18-1.12-.12-.32-.28-.573-.48-.76-.2-.2-.433-.34-.7-.42a2.3 2.3 0 0 0-.8-.14 2.94 2.94 0 0 0-1.04.18c-.32.12-.6.313-.84.58-.24.253-.427.58-.56.98s-.2.873-.2 1.42v4.88h-1.8v-9.48zm20.613 9.48h-1.8v-1.36h-.04c-.346.507-.826.9-1.44 1.18a4.35 4.35 0 0 1-1.86.42c-.733 0-1.4-.127-2-.38-.586-.253-1.093-.607-1.52-1.06-.413-.453-.733-.98-.96-1.58s-.34-1.253-.34-1.96.114-1.36.34-1.96c.227-.613.547-1.14.96-1.58.427-.453.934-.807 1.52-1.06.6-.253 1.267-.38 2-.38a4.32 4.32 0 0 1 1.92.44c.6.28 1.06.667 1.38 1.16h.04v-7h1.8v15.12zm-4.92-1.44c.48 0 .914-.08 1.3-.24a3.05 3.05 0 0 0 .98-.68c.267-.293.474-.64.62-1.04a3.97 3.97 0 0 0 .22-1.34 3.8 3.8 0 0 0-.22-1.32 2.87 2.87 0 0 0-.62-1.04c-.266-.293-.593-.52-.98-.68-.386-.173-.82-.26-1.3-.26a3.15 3.15 0 0 0-1.3.26 2.71 2.71 0 0 0-.98.68c-.266.28-.473.627-.62 1.04-.146.4-.22.84-.22 1.32s.074.927.22 1.34a3.14 3.14 0 0 0 .62 1.04c.267.28.594.507.98.68.387.16.82.24 1.3.24zm19.992-5.52c-.33-.347-.69-.607-1.06-.78-.36-.187-.79-.28-1.3-.28-.49 0-.93.093-1.3.28-.36.173-.67.42-.919.74-.24.307-.426.667-.56 1.08a4.36 4.36 0 0 0-.18 1.26c0 .44.074.86.22 1.26a3.2 3.2 0 0 0 .619 1.02c.27.293.59.527.96.7.37.16.79.24 1.26.24.51 0 .94-.087 1.3-.26.36-.187.69-.453 1-.8l1.28 1.28c-.47.52-1.01.893-1.64 1.12a5.6 5.6 0 0 1-1.96.34c-.73 0-1.41-.12-2.02-.36-.599-.24-1.119-.573-1.559-1a4.59 4.59 0 0 1-1.02-1.56c-.24-.613-.36-1.287-.36-2.02s.12-1.407.36-2.02.574-1.14 1-1.58c.44-.44.96-.78 1.559-1.02.61-.253 1.29-.38 2.04-.38.69 0 1.35.127 1.98.38.64.24 1.19.613 1.66 1.12l-1.36 1.24zm3.01-8.16h1.8v15.12h-1.8v-15.12zm4.8 5.64h1.8v9.48h-1.8v-9.48zm-.42-3.4c0-.36.13-.667.38-.92a1.29 1.29 0 0 1 .94-.4c.36 0 .67.133.92.4a1.21 1.21 0 0 1 .4.92c0 .36-.13.673-.4.94a1.25 1.25 0 0 1-.92.38c-.36 0-.67-.127-.94-.38-.25-.267-.38-.58-.38-.94zm6.45 8.8a2.56 2.56 0 0 0 .26 1.14 3.1 3.1 0 0 0 .72.86c.29.24.63.427 1.02.56s.79.2 1.2.2c.56 0 1.05-.127 1.46-.38.41-.267.79-.613 1.14-1.04l1.36 1.04c-1 1.293-2.4 1.94-4.2 1.94-.75 0-1.43-.127-2.04-.38-.6-.253-1.11-.6-1.54-1.04-.41-.453-.73-.98-.96-1.58-.23-.613-.34-1.273-.34-1.98s.12-1.36.36-1.96c.25-.613.59-1.14 1.02-1.58a4.69 4.69 0 0 1 1.56-1.06c.6-.253 1.25-.38 1.96-.38.84 0 1.55.147 2.12.44a4.07 4.07 0 0 1 1.44 1.16 4.36 4.36 0 0 1 .8 1.6c.17.587.26 1.187.26 1.8v.64h-7.6zm5.68-1.44c-.01-.4-.08-.767-.2-1.1a2.22 2.22 0 0 0-.5-.86c-.23-.253-.51-.447-.86-.58-.33-.147-.73-.22-1.18-.22-.44 0-.85.087-1.22.26-.36.16-.67.373-.92.64s-.45.567-.6.9c-.13.32-.2.64-.2.96h5.68zm4.07-3.96h1.8v1.46h.04c.23-.507.62-.913 1.18-1.22.56-.32 1.21-.48 1.94-.48a3.81 3.81 0 0 1 1.3.22c.43.133.8.347 1.1.64.32.293.58.673.76 1.14.19.453.28.993.28 1.62v6.1h-1.8v-5.6c0-.44-.06-.813-.18-1.12-.12-.32-.28-.573-.48-.76-.2-.2-.43-.34-.7-.42a2.29 2.29 0 0 0-.8-.14c-.37 0-.72.06-1.04.18s-.6.313-.84.58c-.24.253-.42.58-.56.98-.13.4-.2.873-.2 1.42v4.88h-1.8v-9.48zm16.2 1.56h-2.58v4.3l.02.8c.01.253.06.487.14.7a1.24 1.24 0 0 0 .4.5c.18.12.45.18.8.18.21 0 .43-.02.66-.06.22-.04.43-.113.62-.22v1.64c-.22.12-.5.2-.84.24-.34.053-.6.08-.78.08-.7 0-1.24-.093-1.62-.28-.38-.2-.66-.453-.84-.76s-.28-.647-.32-1.02l-.04-1.16v-4.94h-2.08v-1.56h2.08v-2.66h1.8v2.66h2.58v1.56zm7.36.82a2.66 2.66 0 0 0-.8-.66c-.31-.187-.69-.28-1.14-.28-.43 0-.8.093-1.12.28-.31.173-.46.433-.46.78 0 .28.08.507.26.68s.4.313.64.42c.25.107.52.187.8.24l.72.14c.38.093.74.207 1.08.34s.64.307.88.52a2.21 2.21 0 0 1 .58.78c.14.307.22.68.22 1.12 0 .533-.12.993-.34 1.38a2.94 2.94 0 0 1-.88.92c-.36.24-.78.413-1.24.52s-.92.16-1.38.16c-.79 0-1.48-.12-2.08-.36-.59-.24-1.12-.68-1.58-1.32l1.36-1.12a5.51 5.51 0 0 0 .98.78c.36.227.8.34 1.32.34.22 0 .45-.02.68-.06.24-.053.44-.127.62-.22.18-.107.33-.233.44-.38.12-.16.18-.34.18-.54 0-.267-.09-.487-.26-.66-.16-.173-.36-.307-.6-.4a3.34 3.34 0 0 0-.74-.24l-.68-.16-1.1-.32c-.35-.12-.66-.28-.92-.48a2.18 2.18 0 0 1-.64-.76c-.16-.307-.24-.687-.24-1.14 0-.493.1-.92.3-1.28.21-.373.48-.68.82-.92s.73-.42 1.16-.54c.44-.12.88-.18 1.32-.18.64 0 1.25.12 1.84.36a2.96 2.96 0 0 1 1.4 1.2l-1.4 1.06zm-391.769 39.18h-2.58v4.3l.02.8c.014.253.06.487.14.7a1.34 1.34 0 0 0 .4.5c.187.12.454.18.8.18.214 0 .434-.02.66-.06a1.89 1.89 0 0 0 .62-.22v1.64c-.213.12-.493.2-.84.24-.333.053-.593.08-.78.08-.693 0-1.233-.093-1.62-.28-.373-.2-.653-.453-.84-.76-.173-.307-.28-.647-.32-1.02l-.04-1.16v-4.94h-2.08v-1.56h2.08v-2.66h1.8v2.66h2.58v1.56zm2.323-7.2h1.8v7.1h.04c.226-.507.62-.913 1.18-1.22.56-.32 1.206-.48 1.94-.48.453 0 .886.073 1.3.22a2.76 2.76 0 0 1 1.1.64c.32.293.573.673.76 1.14.186.453.28.993.28 1.62v6.1h-1.8v-5.6c0-.44-.06-.813-.18-1.12-.12-.32-.28-.573-.48-.76a1.65 1.65 0 0 0-.7-.42c-.254-.093-.52-.14-.8-.14-.374 0-.72.06-1.04.18s-.6.313-.84.58c-.24.253-.427.58-.56.98s-.2.873-.2 1.42v4.88h-1.8v-15.12zm11.113 5.64h1.8v1.46h.04c.12-.253.28-.48.48-.68.2-.213.42-.393.66-.54.253-.147.527-.26.82-.34a2.9 2.9 0 0 1 .88-.14 2.52 2.52 0 0 1 .8.12l-.08 1.94-.44-.1c-.147-.027-.293-.04-.44-.04-.88 0-1.553.247-2.02.74s-.7 1.26-.7 2.3v4.76h-1.8v-9.48zm8.511 4.74a3.97 3.97 0 0 0 .22 1.34c.146.4.353.747.62 1.04a3.05 3.05 0 0 0 .98.68c.386.16.82.24 1.3.24s.913-.08 1.3-.24c.386-.173.713-.4.98-.68a3.14 3.14 0 0 0 .62-1.04c.146-.413.22-.86.22-1.34s-.074-.92-.22-1.32c-.147-.413-.354-.76-.62-1.04a2.71 2.71 0 0 0-.98-.68 3.15 3.15 0 0 0-1.3-.26c-.48 0-.914.087-1.3.26-.387.16-.714.387-.98.68a2.87 2.87 0 0 0-.62 1.04 3.8 3.8 0 0 0-.22 1.32zm-1.92 0c0-.693.126-1.34.38-1.94a5.17 5.17 0 0 1 1.08-1.58 4.85 4.85 0 0 1 1.6-1.06c.613-.267 1.273-.4 1.98-.4a4.91 4.91 0 0 1 1.98.4 4.87 4.87 0 0 1 1.6 1.06 4.93 4.93 0 0 1 1.06 1.58c.266.6.4 1.247.4 1.94s-.134 1.347-.4 1.96a4.93 4.93 0 0 1-1.06 1.58c-.454.44-.987.793-1.6 1.06-.614.253-1.274.38-1.98.38s-1.367-.127-1.98-.38a5.31 5.31 0 0 1-1.6-1.06 5.17 5.17 0 0 1-1.08-1.58 5.07 5.07 0 0 1-.38-1.96zm20.735 4.74h-1.8v-1.46h-.04c-.227.507-.62.92-1.18 1.24-.56.307-1.207.46-1.94.46-.467 0-.907-.073-1.32-.22-.414-.133-.78-.347-1.1-.64-.307-.293-.554-.667-.74-1.12-.187-.467-.28-1.013-.28-1.64v-6.1h1.8v5.6c0 .44.06.82.18 1.14.12.307.28.56.48.76.2.187.426.327.68.42.266.08.54.12.82.12a2.94 2.94 0 0 0 1.04-.18 2.22 2.22 0 0 0 .84-.56c.24-.267.426-.6.56-1s.2-.873.2-1.42v-4.88h1.8v9.48zm12.213-.08c0 .72-.127 1.373-.38 1.96a4.26 4.26 0 0 1-1.04 1.54c-.453.44-1 .78-1.64 1.02s-1.347.36-2.12.36c-.907 0-1.74-.127-2.5-.38-.747-.253-1.46-.693-2.14-1.32l1.22-1.52c.467.507.973.887 1.52 1.14.547.267 1.167.4 1.86.4.667 0 1.22-.1 1.66-.3.44-.187.787-.433 1.04-.74.267-.307.453-.66.56-1.06.107-.387.16-.78.16-1.18v-1.4h-.06a3.22 3.22 0 0 1-1.42 1.28 4.44 4.44 0 0 1-1.86.4c-.693 0-1.34-.12-1.94-.36-.587-.253-1.093-.593-1.52-1.02a4.79 4.79 0 0 1-1-1.54c-.24-.6-.36-1.247-.36-1.94s.113-1.34.34-1.94c.227-.613.547-1.147.96-1.6.427-.453.933-.807 1.52-1.06.6-.253 1.267-.38 2-.38a4.35 4.35 0 0 1 1.86.42c.613.28 1.093.673 1.44 1.18h.04v-1.36h1.8v9.4zm-4.92-7.96a3.15 3.15 0 0 0-1.3.26 2.7 2.7 0 0 0-.98.68c-.267.28-.473.627-.62 1.04a3.8 3.8 0 0 0-.22 1.32c0 .96.28 1.733.84 2.32.56.573 1.32.86 2.28.86s1.72-.287 2.28-.86c.56-.587.84-1.36.84-2.32a3.8 3.8 0 0 0-.22-1.32c-.147-.413-.353-.76-.62-1.04a2.7 2.7 0 0 0-.98-.68 3.15 3.15 0 0 0-1.3-.26zm7.647-7.08h1.8v7.1h.04c.226-.507.62-.913 1.18-1.22.56-.32 1.206-.48 1.94-.48.453 0 .886.073 1.3.22a2.76 2.76 0 0 1 1.1.64c.32.293.573.673.76 1.14.186.453.28.993.28 1.62v6.1h-1.8v-5.6c0-.44-.06-.813-.18-1.12-.12-.32-.28-.573-.48-.76a1.65 1.65 0 0 0-.7-.42c-.254-.093-.52-.14-.8-.14-.374 0-.72.06-1.04.18s-.6.313-.84.58c-.24.253-.427.58-.56.98s-.2.873-.2 1.42v4.88h-1.8v-15.12zm12.573 10.38a3.97 3.97 0 0 0 .22 1.34c.146.4.353.747.62 1.04a3.05 3.05 0 0 0 .98.68c.386.16.82.24 1.3.24s.913-.08 1.3-.24c.386-.173.713-.4.98-.68a3.14 3.14 0 0 0 .62-1.04c.146-.413.22-.86.22-1.34s-.074-.92-.22-1.32c-.147-.413-.354-.76-.62-1.04a2.71 2.71 0 0 0-.98-.68 3.15 3.15 0 0 0-1.3-.26c-.48 0-.914.087-1.3.26-.387.16-.714.387-.98.68a2.87 2.87 0 0 0-.62 1.04 3.8 3.8 0 0 0-.22 1.32zm-1.92 0c0-.693.126-1.34.38-1.94a5.17 5.17 0 0 1 1.08-1.58 4.85 4.85 0 0 1 1.6-1.06c.613-.267 1.273-.4 1.98-.4a4.91 4.91 0 0 1 1.98.4 4.87 4.87 0 0 1 1.6 1.06 4.93 4.93 0 0 1 1.06 1.58c.266.6.4 1.247.4 1.94s-.134 1.347-.4 1.96a4.93 4.93 0 0 1-1.06 1.58c-.454.44-.987.793-1.6 1.06-.614.253-1.274.38-1.98.38s-1.367-.127-1.98-.38a5.31 5.31 0 0 1-1.6-1.06 5.17 5.17 0 0 1-1.08-1.58 5.07 5.07 0 0 1-.38-1.96zm20.735 4.74h-1.8v-1.46h-.04c-.227.507-.62.92-1.18 1.24-.56.307-1.207.46-1.94.46-.467 0-.907-.073-1.32-.22-.414-.133-.78-.347-1.1-.64-.307-.293-.554-.667-.74-1.12-.187-.467-.28-1.013-.28-1.64v-6.1h1.8v5.6c0 .44.06.82.18 1.14.12.307.28.56.48.76.2.187.426.327.68.42.266.08.54.12.82.12a2.94 2.94 0 0 0 1.04-.18 2.22 2.22 0 0 0 .84-.56c.24-.267.426-.6.56-1s.2-.873.2-1.42v-4.88h1.8v9.48zm7.793-7.92h-2.58v4.3l.02.8a2.32 2.32 0 0 0 .14.7 1.33 1.33 0 0 0 .4.5c.187.12.453.18.8.18a3.8 3.8 0 0 0 .66-.06 1.9 1.9 0 0 0 .62-.22v1.64c-.213.12-.493.2-.84.24-.333.053-.593.08-.78.08-.693 0-1.233-.093-1.62-.28-.373-.2-.653-.453-.84-.76-.173-.307-.28-.647-.32-1.02l-.04-1.16v-4.94h-2.08v-1.56h2.08v-2.66h1.8v2.66h2.58v1.56zm12.969 0h-2.58v4.3l.02.8a2.32 2.32 0 0 0 .14.7 1.33 1.33 0 0 0 .4.5c.187.12.453.18.8.18a3.8 3.8 0 0 0 .66-.06 1.9 1.9 0 0 0 .62-.22v1.64c-.213.12-.493.2-.84.24-.333.053-.593.08-.78.08-.693 0-1.233-.093-1.62-.28-.373-.2-.653-.453-.84-.76-.173-.307-.28-.647-.32-1.02l-.04-1.16v-4.94h-2.08v-1.56h2.08v-2.66h1.8v2.66h2.58v1.56zm2.322-7.2h1.8v7.1h.04c.227-.507.62-.913 1.18-1.22.56-.32 1.207-.48 1.94-.48.454 0 .887.073 1.3.22.427.133.794.347 1.1.64.32.293.574.673.76 1.14.187.453.28.993.28 1.62v6.1h-1.8v-5.6c0-.44-.06-.813-.18-1.12-.12-.32-.28-.573-.48-.76-.2-.2-.433-.34-.7-.42a2.3 2.3 0 0 0-.8-.14 2.94 2.94 0 0 0-1.04.18c-.32.12-.6.313-.84.58-.24.253-.426.58-.56.98s-.2.873-.2 1.42v4.88h-1.8v-15.12zm12.473 11.04a2.52 2.52 0 0 0 .26 1.14 3 3 0 0 0 .72.86c.294.24.634.427 1.02.56s.787.2 1.2.2c.56 0 1.047-.127 1.46-.38.414-.267.794-.613 1.14-1.04l1.36 1.04c-1 1.293-2.4 1.94-4.2 1.94-.746 0-1.426-.127-2.04-.38-.6-.253-1.113-.6-1.54-1.04-.413-.453-.733-.98-.96-1.58a5.68 5.68 0 0 1-.34-1.98c0-.707.12-1.36.36-1.96a4.99 4.99 0 0 1 1.02-1.58 4.69 4.69 0 0 1 1.56-1.06c.6-.253 1.254-.38 1.96-.38.84 0 1.547.147 2.12.44.587.293 1.067.68 1.44 1.16.374.467.64 1 .8 1.6a6.3 6.3 0 0 1 .26 1.8v.64h-7.6zm5.68-1.44c-.013-.4-.08-.767-.2-1.1-.106-.333-.273-.62-.5-.86-.226-.253-.513-.447-.86-.58-.333-.147-.726-.22-1.18-.22-.44 0-.846.087-1.22.26a2.85 2.85 0 0 0-.92.64 3.15 3.15 0 0 0-.6.9c-.133.32-.2.64-.2.96h5.68zm11 1.44a2.52 2.52 0 0 0 .26 1.14 3 3 0 0 0 .72.86 3.27 3.27 0 0 0 1.02.56c.387.133.787.2 1.2.2.56 0 1.047-.127 1.46-.38.413-.267.793-.613 1.14-1.04l1.36 1.04c-1 1.293-2.4 1.94-4.2 1.94-.747 0-1.427-.127-2.04-.38-.6-.253-1.113-.6-1.54-1.04-.413-.453-.733-.98-.96-1.58-.227-.613-.34-1.273-.34-1.98s.12-1.36.36-1.96c.253-.613.593-1.14 1.02-1.58a4.69 4.69 0 0 1 1.56-1.06c.6-.253 1.253-.38 1.96-.38.84 0 1.547.147 2.12.44.587.293 1.067.68 1.44 1.16.373.467.64 1 .8 1.6.173.587.26 1.187.26 1.8v.64h-7.6zm5.68-1.44c-.013-.4-.08-.767-.2-1.1a2.22 2.22 0 0 0-.5-.86c-.227-.253-.513-.447-.86-.58-.333-.147-.727-.22-1.18-.22-.44 0-.847.087-1.22.26-.36.16-.667.373-.92.64a3.15 3.15 0 0 0-.6.9c-.133.32-.2.64-.2.96h5.68zm4.073-3.96h1.8v1.46h.04c.227-.507.62-.913 1.18-1.22.56-.32 1.207-.48 1.94-.48.454 0 .887.073 1.3.22.427.133.794.347 1.1.64.32.293.574.673.76 1.14.187.453.28.993.28 1.62v6.1h-1.8v-5.6c0-.44-.06-.813-.18-1.12-.12-.32-.28-.573-.48-.76-.2-.2-.433-.34-.7-.42a2.3 2.3 0 0 0-.8-.14 2.94 2.94 0 0 0-1.04.18c-.32.12-.6.313-.84.58-.24.253-.426.58-.56.98s-.2.873-.2 1.42v4.88h-1.8v-9.48zm16.194 1.56h-2.58v4.3l.02.8a2.32 2.32 0 0 0 .14.7 1.32 1.32 0 0 0 .4.5c.186.12.453.18.8.18a3.8 3.8 0 0 0 .66-.06c.226-.04.433-.113.62-.22v1.64c-.214.12-.494.2-.84.24-.334.053-.594.08-.78.08-.694 0-1.234-.093-1.62-.28-.374-.2-.654-.453-.84-.76-.174-.307-.28-.647-.32-1.02l-.04-1.16v-4.94h-2.08v-1.56h2.08v-2.66h1.8v2.66h2.58v1.56zm2.462-1.56h1.8v9.48h-1.8v-9.48zm-.42-3.4c0-.36.127-.667.38-.92.267-.267.58-.4.94-.4a1.22 1.22 0 0 1 1.32 1.32c0 .36-.133.673-.4.94-.253.253-.56.38-.92.38a1.32 1.32 0 0 1-1.32-1.32zm5.085 3.4h1.8v1.46h.04c.12-.253.28-.48.48-.68.2-.213.42-.393.66-.54a3.4 3.4 0 0 1 .82-.34c.293-.093.586-.14.88-.14a2.52 2.52 0 0 1 .8.12l-.08 1.94-.44-.1c-.147-.027-.294-.04-.44-.04-.88 0-1.554.247-2.02.74s-.7 1.26-.7 2.3v4.76h-1.8v-9.48zm8.411 5.4c0 .413.086.793.26 1.14a2.97 2.97 0 0 0 .72.86 3.27 3.27 0 0 0 1.02.56 3.66 3.66 0 0 0 1.2.2c.56 0 1.046-.127 1.46-.38.413-.267.793-.613 1.14-1.04l1.36 1.04c-1 1.293-2.4 1.94-4.2 1.94-.747 0-1.427-.127-2.04-.38-.6-.253-1.114-.6-1.54-1.04a4.85 4.85 0 0 1-.96-1.58c-.227-.613-.34-1.273-.34-1.98s.12-1.36.36-1.96c.253-.613.593-1.14 1.02-1.58a4.69 4.69 0 0 1 1.56-1.06c.6-.253 1.253-.38 1.96-.38.84 0 1.546.147 2.12.44.586.293 1.066.68 1.44 1.16.373.467.64 1 .8 1.6.173.587.26 1.187.26 1.8v.64h-7.6zm5.68-1.44c-.014-.4-.08-.767-.2-1.1-.107-.333-.274-.62-.5-.86a2.19 2.19 0 0 0-.86-.58c-.334-.147-.727-.22-1.18-.22-.44 0-.847.087-1.22.26-.36.16-.667.373-.92.64s-.454.567-.6.9c-.134.32-.2.64-.2.96h5.68zm9.639-3.96h1.8v1.36h.04a3.44 3.44 0 0 1 1.42-1.18c.614-.28 1.24-.42 1.88-.42.734 0 1.394.127 1.98.38.6.253 1.107.607 1.52 1.06a4.65 4.65 0 0 1 .98 1.6c.227.6.34 1.247.34 1.94 0 .707-.113 1.367-.34 1.98-.226.6-.553 1.127-.98 1.58-.413.44-.92.787-1.52 1.04-.586.253-1.246.38-1.98.38-.68 0-1.32-.14-1.92-.42-.6-.293-1.06-.687-1.38-1.18h-.04v7h-1.8v-15.12zm4.92 1.44a3.15 3.15 0 0 0-1.3.26 2.71 2.71 0 0 0-.98.68c-.266.28-.473.627-.62 1.04-.146.4-.22.84-.22 1.32s.074.927.22 1.34a3.14 3.14 0 0 0 .62 1.04c.267.28.594.507.98.68.387.16.82.24 1.3.24s.914-.08 1.3-.24a3.05 3.05 0 0 0 .98-.68c.267-.293.474-.64.62-1.04a3.97 3.97 0 0 0 .22-1.34 3.8 3.8 0 0 0-.22-1.32 2.87 2.87 0 0 0-.62-1.04c-.266-.293-.593-.52-.98-.68-.386-.173-.82-.26-1.3-.26zm7.307-1.44h1.8v1.46h.04c.12-.253.28-.48.48-.68.2-.213.42-.393.66-.54a3.4 3.4 0 0 1 .82-.34c.293-.093.586-.14.88-.14a2.52 2.52 0 0 1 .8.12l-.08 1.94-.44-.1c-.147-.027-.294-.04-.44-.04-.88 0-1.554.247-2.02.74s-.7 1.26-.7 2.3v4.76h-1.8v-9.48zm8.511 4.74a3.97 3.97 0 0 0 .22 1.34c.146.4.353.747.62 1.04a3.05 3.05 0 0 0 .98.68c.386.16.82.24 1.3.24s.913-.08 1.3-.24c.386-.173.713-.4.98-.68a3.14 3.14 0 0 0 .62-1.04c.146-.413.22-.86.22-1.34s-.074-.92-.22-1.32c-.147-.413-.354-.76-.62-1.04a2.71 2.71 0 0 0-.98-.68 3.15 3.15 0 0 0-1.3-.26c-.48 0-.914.087-1.3.26-.387.16-.714.387-.98.68a2.87 2.87 0 0 0-.62 1.04 3.8 3.8 0 0 0-.22 1.32zm-1.92 0c0-.693.126-1.34.38-1.94a5.17 5.17 0 0 1 1.08-1.58 4.85 4.85 0 0 1 1.6-1.06c.613-.267 1.273-.4 1.98-.4a4.91 4.91 0 0 1 1.98.4 4.87 4.87 0 0 1 1.6 1.06 4.93 4.93 0 0 1 1.06 1.58c.266.6.4 1.247.4 1.94s-.134 1.347-.4 1.96a4.93 4.93 0 0 1-1.06 1.58c-.454.44-.987.793-1.6 1.06-.614.253-1.274.38-1.98.38s-1.367-.127-1.98-.38a5.31 5.31 0 0 1-1.6-1.06 5.17 5.17 0 0 1-1.08-1.58 5.07 5.07 0 0 1-.38-1.96zm14.275-4.74v10.84c0 .24-.02.553-.06.94a2.88 2.88 0 0 1-.32 1.14c-.174.373-.46.693-.86.96-.387.267-.94.4-1.66.4-.2 0-.394-.013-.58-.04a2.82 2.82 0 0 1-.58-.14l.2-1.66c.106.04.226.073.36.1a1.32 1.32 0 0 0 .38.06c.493 0 .833-.16 1.02-.48.2-.307.3-.76.3-1.36v-10.76h1.8zm-2.22-3.4a1.25 1.25 0 0 1 .38-.92c.266-.267.58-.4.94-.4a1.22 1.22 0 0 1 .92.4c.266.253.4.56.4.92a1.29 1.29 0 0 1-.4.94c-.254.253-.56.38-.92.38a1.32 1.32 0 0 1-.94-.38c-.254-.267-.38-.58-.38-.94zm6.444 8.8a2.52 2.52 0 0 0 .26 1.14 3 3 0 0 0 .72.86c.294.24.634.427 1.02.56s.787.2 1.2.2c.56 0 1.047-.127 1.46-.38.414-.267.794-.613 1.14-1.04l1.36 1.04c-1 1.293-2.4 1.94-4.2 1.94-.746 0-1.426-.127-2.04-.38-.6-.253-1.113-.6-1.54-1.04-.413-.453-.733-.98-.96-1.58a5.68 5.68 0 0 1-.34-1.98c0-.707.12-1.36.36-1.96a4.99 4.99 0 0 1 1.02-1.58 4.69 4.69 0 0 1 1.56-1.06c.6-.253 1.254-.38 1.96-.38.84 0 1.547.147 2.12.44.587.293 1.067.68 1.44 1.16.374.467.64 1 .8 1.6a6.3 6.3 0 0 1 .26 1.8v.64h-7.6zm5.68-1.44c-.013-.4-.08-.767-.2-1.1-.106-.333-.273-.62-.5-.86-.226-.253-.513-.447-.86-.58-.333-.147-.726-.22-1.18-.22-.44 0-.846.087-1.22.26a2.85 2.85 0 0 0-.92.64 3.15 3.15 0 0 0-.6.9c-.133.32-.2.64-.2.96h5.68zm10.854-1.44c-.334-.347-.687-.607-1.06-.78-.36-.187-.794-.28-1.3-.28-.494 0-.927.093-1.3.28-.36.173-.667.42-.92.74-.24.307-.427.667-.56 1.08a4.36 4.36 0 0 0-.18 1.26c0 .44.073.86.22 1.26a3.15 3.15 0 0 0 .62 1.02 2.96 2.96 0 0 0 .96.7c.373.16.793.24 1.26.24.506 0 .94-.087 1.3-.26.36-.187.693-.453 1-.8l1.28 1.28c-.467.52-1.014.893-1.64 1.12-.614.227-1.267.34-1.96.34-.734 0-1.407-.12-2.02-.36a4.74 4.74 0 0 1-1.56-1 4.59 4.59 0 0 1-1.02-1.56c-.24-.613-.36-1.287-.36-2.02s.12-1.407.36-2.02.573-1.14 1-1.58a4.59 4.59 0 0 1 1.56-1.02c.613-.253 1.293-.38 2.04-.38a5.24 5.24 0 0 1 1.98.38 4.26 4.26 0 0 1 1.66 1.12l-1.36 1.24zm7.948-.96h-2.58v4.3l.02.8a2.32 2.32 0 0 0 .14.7 1.33 1.33 0 0 0 .4.5c.187.12.453.18.8.18a3.8 3.8 0 0 0 .66-.06 1.9 1.9 0 0 0 .62-.22v1.64c-.213.12-.493.2-.84.24-.333.053-.593.08-.78.08-.693 0-1.233-.093-1.62-.28-.373-.2-.653-.453-.84-.76-.173-.307-.28-.647-.32-1.02l-.04-1.16v-4.94h-2.08v-1.56h2.08v-2.66h1.8v2.66h2.58v1.56zm8.029-7.2h1.8v15.12h-1.8v-15.12zm4.804 5.64h1.8v9.48h-1.8v-9.48zm-.42-3.4c0-.36.127-.667.38-.92.267-.267.58-.4.94-.4a1.22 1.22 0 0 1 1.32 1.32c0 .36-.133.673-.4.94-.253.253-.56.38-.92.38a1.32 1.32 0 0 1-1.32-1.32zm5.785 4.96h-2.04v-1.56h2.04v-2.12c0-1.267.24-2.207.72-2.82.493-.627 1.333-.94 2.52-.94l.62.02a3.63 3.63 0 0 1 .72.12l-.2 1.6a2.57 2.57 0 0 0-.5-.14 3.13 3.13 0 0 0-.52-.04c-.333 0-.6.053-.8.16a1.12 1.12 0 0 0-.48.42c-.107.187-.18.413-.22.68a8.42 8.42 0 0 0-.04.88v2.18h2.14v1.56h-2.16v7.92h-1.8v-7.92zm7.32 3.84a2.52 2.52 0 0 0 .26 1.14 3 3 0 0 0 .72.86c.294.24.634.427 1.02.56s.787.2 1.2.2c.56 0 1.047-.127 1.46-.38.414-.267.794-.613 1.14-1.04l1.36 1.04c-1 1.293-2.4 1.94-4.2 1.94-.746 0-1.426-.127-2.04-.38-.6-.253-1.113-.6-1.54-1.04-.413-.453-.733-.98-.96-1.58a5.68 5.68 0 0 1-.34-1.98c0-.707.12-1.36.36-1.96a4.99 4.99 0 0 1 1.02-1.58 4.69 4.69 0 0 1 1.56-1.06c.6-.253 1.254-.38 1.96-.38.84 0 1.547.147 2.12.44.587.293 1.067.68 1.44 1.16.374.467.64 1 .8 1.6a6.3 6.3 0 0 1 .26 1.8v.64h-7.6zm5.68-1.44c-.013-.4-.08-.767-.2-1.1-.106-.333-.273-.62-.5-.86-.226-.253-.513-.447-.86-.58-.333-.147-.726-.22-1.18-.22-.44 0-.846.087-1.22.26a2.85 2.85 0 0 0-.92.64 3.15 3.15 0 0 0-.6.9c-.133.32-.2.64-.2.96h5.68zm10.854-1.44c-.334-.347-.687-.607-1.06-.78-.36-.187-.794-.28-1.3-.28-.494 0-.927.093-1.3.28-.36.173-.667.42-.92.74-.24.307-.427.667-.56 1.08a4.36 4.36 0 0 0-.18 1.26c0 .44.073.86.22 1.26a3.15 3.15 0 0 0 .62 1.02 2.96 2.96 0 0 0 .96.7c.373.16.793.24 1.26.24.506 0 .94-.087 1.3-.26.36-.187.693-.453 1-.8l1.28 1.28c-.467.52-1.014.893-1.64 1.12-.614.227-1.267.34-1.96.34-.734 0-1.407-.12-2.02-.36a4.74 4.74 0 0 1-1.56-1 4.59 4.59 0 0 1-1.02-1.56c-.24-.613-.36-1.287-.36-2.02s.12-1.407.36-2.02.573-1.14 1-1.58a4.59 4.59 0 0 1 1.56-1.02c.613-.253 1.293-.38 2.04-.38a5.24 5.24 0 0 1 1.98.38 4.26 4.26 0 0 1 1.66 1.12l-1.36 1.24zm1.728-2.52h2.08l2.82 7.4h.04l2.68-7.4h1.94l-4.5 11.52c-.16.413-.327.787-.5 1.12-.173.347-.38.64-.62.88a2.48 2.48 0 0 1-.88.56c-.333.133-.747.2-1.24.2a5.79 5.79 0 0 1-.82-.06c-.267-.027-.527-.093-.78-.2l.22-1.64c.36.147.72.22 1.08.22.28 0 .513-.04.7-.12.2-.067.367-.173.5-.32a1.6 1.6 0 0 0 .36-.48l.28-.64.58-1.5-3.94-9.54zm17.92 2.52c-.333-.347-.687-.607-1.06-.78-.36-.187-.793-.28-1.3-.28-.493 0-.927.093-1.3.28-.36.173-.667.42-.92.74-.24.307-.427.667-.56 1.08a4.36 4.36 0 0 0-.18 1.26c0 .44.073.86.22 1.26.147.387.353.727.62 1.02a2.98 2.98 0 0 0 .96.7c.373.16.793.24 1.26.24.507 0 .94-.087 1.3-.26.36-.187.693-.453 1-.8l1.28 1.28a4.02 4.02 0 0 1-1.64 1.12 5.6 5.6 0 0 1-1.96.34c-.733 0-1.407-.12-2.02-.36a4.74 4.74 0 0 1-1.56-1 4.59 4.59 0 0 1-1.02-1.56c-.24-.613-.36-1.287-.36-2.02s.12-1.407.36-2.02.573-1.14 1-1.58a4.59 4.59 0 0 1 1.56-1.02c.613-.253 1.293-.38 2.04-.38a5.24 5.24 0 0 1 1.98.38 4.26 4.26 0 0 1 1.66 1.12l-1.36 1.24zm3.008-8.16h1.8v15.12h-1.8v-15.12zm6.025 11.04a2.52 2.52 0 0 0 .26 1.14 3 3 0 0 0 .72.86 3.27 3.27 0 0 0 1.02.56c.387.133.787.2 1.2.2.56 0 1.047-.127 1.46-.38.413-.267.793-.613 1.14-1.04l1.36 1.04c-1 1.293-2.4 1.94-4.2 1.94-.747 0-1.427-.127-2.04-.38-.6-.253-1.113-.6-1.54-1.04-.413-.453-.733-.98-.96-1.58-.227-.613-.34-1.273-.34-1.98s.12-1.36.36-1.96c.253-.613.593-1.14 1.02-1.58a4.69 4.69 0 0 1 1.56-1.06c.6-.253 1.253-.38 1.96-.38.84 0 1.547.147 2.12.44.587.293 1.067.68 1.44 1.16.373.467.64 1 .8 1.6.173.587.26 1.187.26 1.8v.64h-7.6zm5.68-1.44c-.013-.4-.08-.767-.2-1.1a2.22 2.22 0 0 0-.5-.86c-.227-.253-.513-.447-.86-.58-.333-.147-.727-.22-1.18-.22-.44 0-.847.087-1.22.26-.36.16-.667.373-.92.64a3.15 3.15 0 0 0-.6.9c-.133.32-.2.64-.2.96h5.68z"/><path d="M79.099 303.252h4.719v14.109h17.065v-14.109h4.767V337h-4.767v-15.444H83.818V337h-4.719v-33.748zm57.368 22.403c0 1.748-.318 3.353-.953 4.815-.604 1.461-1.462 2.733-2.574 3.813-1.081 1.049-2.368 1.875-3.861 2.479-1.494.572-3.099.858-4.815.858s-3.321-.286-4.814-.858c-1.494-.604-2.781-1.43-3.861-2.479-1.081-1.08-1.939-2.352-2.574-3.813-.604-1.462-.906-3.067-.906-4.815s.302-3.336.906-4.766c.635-1.462 1.493-2.717 2.574-3.766s2.367-1.859 3.861-2.431c1.493-.604 3.098-.906 4.814-.906s3.321.302 4.815.906c1.493.572 2.78 1.382 3.861 2.431 1.112 1.049 1.97 2.304 2.574 3.766.635 1.43.953 3.019.953 4.766zm-4.671 0c0-1.08-.175-2.113-.525-3.098-.318-.985-.794-1.843-1.43-2.574-.635-.763-1.43-1.366-2.383-1.811-.922-.445-1.986-.668-3.194-.668s-2.288.223-3.241.668c-.922.445-1.7 1.048-2.336 1.811-.635.731-1.128 1.589-1.477 2.574-.318.985-.477 2.018-.477 3.098s.159 2.114.477 3.099c.349.985.842 1.859 1.477 2.621a6.91 6.91 0 0 0 2.336 1.812c.953.445 2.034.667 3.241.667s2.272-.222 3.194-.667c.953-.445 1.748-1.049 2.383-1.812a7.77 7.77 0 0 0 1.43-2.621c.35-.985.525-2.018.525-3.099zm12.553-11.249l5.1 17.255h.095l5.387-17.255h4.719l5.481 17.255h.096l5.1-17.255h4.719L167.562 337h-4.671l-5.577-16.969h-.095L151.689 337h-4.671l-7.531-22.594h4.862zm64.8 14.777h.095l9.962-25.931h7.341V337h-4.719v-28.219h-.095L210.531 337h-3.003l-11.154-28.219h-.095V337h-4.576v-33.748h7.34l10.106 25.931zM239.051 337h-4.481v-22.594h4.481V337zm.762-30.745a2.63 2.63 0 0 1-.905 2.05 2.94 2.94 0 0 1-2.098.81c-.826 0-1.525-.27-2.097-.81-.572-.572-.858-1.256-.858-2.05 0-.826.286-1.509.858-2.05a2.85 2.85 0 0 1 2.097-.858 2.85 2.85 0 0 1 2.098.858 2.63 2.63 0 0 1 .905 2.05zm8.809 34.606c.985 1.112 2.208 2.002 3.67 2.669 1.494.668 3.019 1.001 4.576 1.001 1.494 0 2.749-.222 3.766-.667 1.017-.413 1.827-1.001 2.431-1.764.635-.731 1.08-1.604 1.334-2.621a12.11 12.11 0 0 0 .429-3.289v-2.908h-.095c-.826 1.271-1.954 2.24-3.384 2.908s-2.956 1.001-4.576 1.001c-1.716 0-3.289-.302-4.719-.906-1.398-.604-2.59-1.43-3.575-2.479s-1.748-2.272-2.288-3.67c-.54-1.43-.811-2.955-.811-4.576s.271-3.146.811-4.576 1.303-2.669 2.288-3.718c.985-1.08 2.177-1.923 3.575-2.526 1.398-.636 2.955-.954 4.671-.954a10.59 10.59 0 0 1 4.624 1.049c1.493.699 2.669 1.764 3.527 3.194h.095v-3.623h4.338v21.45c0 1.652-.206 3.225-.62 4.719-.413 1.525-1.112 2.86-2.097 4.004-.985 1.176-2.272 2.113-3.861 2.812s-3.559 1.049-5.911 1.049c-1.97 0-3.956-.365-5.958-1.096-1.97-.699-3.67-1.7-5.1-3.003l2.86-3.48zm1.382-15.396c0 1.048.159 2.049.477 3.003.349.953.842 1.795 1.477 2.526.668.731 1.462 1.319 2.384 1.764s1.97.667 3.146.667c1.144 0 2.192-.207 3.146-.62s1.763-.969 2.431-1.668a7.57 7.57 0 0 0 1.525-2.526c.381-.985.572-2.034.572-3.146 0-1.081-.191-2.098-.572-3.051a7.2 7.2 0 0 0-1.573-2.526c-.667-.731-1.478-1.303-2.431-1.716-.921-.445-1.954-.668-3.098-.668-1.176 0-2.225.223-3.146.668a7.15 7.15 0 0 0-2.384 1.716c-.635.699-1.128 1.541-1.477 2.526-.318.953-.477 1.97-.477 3.051zm31.643-7.627c.54-1.112 1.462-2.066 2.765-2.86s2.764-1.192 4.385-1.192c1.462 0 2.717.255 3.766.763 1.048.477 1.922 1.128 2.621 1.954s1.208 1.796 1.526 2.908c.349 1.112.524 2.304.524 3.575V337h-4.481v-12.489c0-.921-.079-1.795-.238-2.621-.127-.827-.381-1.557-.763-2.193a4.25 4.25 0 0 0-1.573-1.525c-.635-.382-1.477-.572-2.526-.572a5.46 5.46 0 0 0-4.385 2.049c-1.144 1.335-1.716 3.13-1.716 5.387V337h-4.481v-36.036h4.481v16.874h.095zm34.224.238h-6.006v11.774c0 1.366.254 2.352.763 2.955.508.572 1.318.858 2.431.858.413 0 .858-.047 1.334-.143a5.07 5.07 0 0 0 1.287-.429l.143 3.671a9.57 9.57 0 0 1-1.811.429c-.636.127-1.303.19-2.002.19-2.129 0-3.766-.588-4.91-1.763-1.112-1.176-1.668-2.94-1.668-5.291v-12.251h-4.338v-3.67h4.338v-6.483h4.433v6.483h6.006v3.67zm25.138 12.06h.096l7.912-26.884h5.196l7.865 26.884h.095l7.436-26.884h5.005L364.7 337h-4.91l-8.199-27.122h-.095L343.297 337h-4.909l-9.915-33.748h5.1l7.436 26.884zm52.775-6.435c-.032-.89-.191-1.716-.477-2.479-.254-.794-.652-1.477-1.192-2.049-.508-.572-1.16-1.017-1.954-1.335-.763-.35-1.668-.524-2.717-.524-.953 0-1.859.174-2.717.524-.826.318-1.557.763-2.193 1.335a7.66 7.66 0 0 0-1.525 2.049c-.381.763-.604 1.589-.667 2.479h13.442zm4.528 1.811v.763a6.12 6.12 0 0 1-.048.763h-17.922a7.21 7.21 0 0 0 .619 2.717c.413.826.954 1.557 1.621 2.192.667.604 1.43 1.081 2.288 1.43.89.35 1.827.525 2.812.525 1.526 0 2.844-.334 3.957-1.001s1.986-1.478 2.621-2.431l3.146 2.526c-1.207 1.589-2.637 2.765-4.29 3.527-1.62.731-3.432 1.097-5.434 1.097-1.716 0-3.305-.286-4.766-.858s-2.717-1.367-3.766-2.384c-1.049-1.048-1.875-2.304-2.479-3.765s-.905-3.083-.905-4.862c0-1.748.286-3.353.858-4.815.603-1.493 1.43-2.764 2.478-3.813s2.288-1.859 3.718-2.431c1.43-.604 2.971-.906 4.624-.906s3.146.27 4.481.811c1.366.54 2.51 1.318 3.432 2.335.953 1.017 1.684 2.257 2.192 3.718.509 1.43.763 3.051.763 4.862zm11.785 8.628c0 .826-.302 1.557-.906 2.193s-1.366.953-2.288.953c-.889 0-1.652-.302-2.288-.906-.603-.635-.905-1.366-.905-2.192a2.99 2.99 0 0 1 .905-2.193c.604-.636 1.367-.953 2.288-.953s1.685.302 2.288.905.906 1.335.906 2.193zm12.382 0c0 .826-.302 1.557-.905 2.193s-1.367.953-2.288.953a3.2 3.2 0 0 1-2.288-.906c-.604-.635-.906-1.366-.906-2.192 0-.858.302-1.589.906-2.193.603-.636 1.366-.953 2.288-.953s1.684.302 2.288.905a2.99 2.99 0 0 1 .905 2.193zm12.382 0c0 .826-.302 1.557-.905 2.193s-1.367.953-2.288.953a3.2 3.2 0 0 1-2.288-.906c-.604-.635-.906-1.366-.906-2.192 0-.858.302-1.589.906-2.193.603-.636 1.366-.953 2.288-.953s1.684.302 2.288.905a2.99 2.99 0 0 1 .905 2.193z"/></g></g><defs><linearGradient id="A" x1="492" y1="645" x2="-129.346" y2="170.307" gradientUnits="userSpaceOnUse"><stop stop-color="#ffc9de"/><stop offset="1" stop-color="#ffd282"/></linearGradient><clipPath id="B"><rect width="1144" height="643.5" rx="10" fill="#fff"/></clipPath></defs></svg>