<svg xmlns="http://www.w3.org/2000/svg" xmlns:xlink="http://www.w3.org/1999/xlink" width="1144" height="644" fill="none" xmlns:v="https://vecta.io/nano"><g clip-path="url(#G)"><path fill="url(#B)" d="M0 0h1144v644H0z"/><g filter="url(#A)"><path d="M0 643.5V250.25c0-65.814 53.353-119.167 119.167-119.167h905.663c65.82 0 119.17 53.353 119.17 119.167V643.5H0z" fill="#fbfcfe"/></g><path d="M109.586 75.793c-.668-1.08-1.557-1.859-2.67-2.336-1.112-.508-2.272-.763-3.479-.763-.89 0-1.764.111-2.622.334s-1.637.556-2.336 1.001c-.667.445-1.207 1.033-1.621 1.764s-.62 1.589-.62 2.574c0 .763.111 1.446.334 2.05.254.572.651 1.096 1.192 1.573s1.271.922 2.193 1.335 2.05.826 3.384 1.239l3.766 1.335c1.239.477 2.32 1.08 3.241 1.811a7.63 7.63 0 0 1 2.241 2.765c.572 1.08.858 2.447.858 4.099 0 1.684-.334 3.146-1.001 4.385s-1.557 2.272-2.67 3.099c-1.08.794-2.335 1.382-3.765 1.763-1.43.413-2.908.62-4.433.62-.985 0-1.971-.095-2.956-.286-.985-.159-1.938-.413-2.86-.763-.89-.381-1.732-.858-2.526-1.43-.794-.603-1.478-1.334-2.05-2.192l3.432-2.812c.731 1.239 1.748 2.177 3.051 2.812a9.34 9.34 0 0 0 4.147.953c.858 0 1.716-.127 2.574-.381.89-.255 1.684-.62 2.383-1.097.699-.508 1.271-1.128 1.716-1.859s.668-1.573.668-2.526c0-1.049-.175-1.891-.525-2.526-.349-.667-.889-1.239-1.62-1.716s-1.653-.906-2.765-1.287l-3.909-1.335c-1.207-.381-2.319-.81-3.336-1.287-1.017-.508-1.907-1.112-2.669-1.811-.731-.731-1.319-1.589-1.764-2.574-.413-1.017-.62-2.225-.62-3.623 0-1.621.318-3.035.953-4.242a8.71 8.71 0 0 1 2.574-3.003c1.081-.826 2.304-1.446 3.67-1.859s2.796-.62 4.29-.62c1.906 0 3.638.302 5.195.906 1.589.572 3.003 1.589 4.243 3.051l-3.289 2.86zm22.006 8.628h-6.578v11.154l.047 2.05c.032.604.159 1.144.382 1.621.222.445.556.811 1.001 1.097.445.254 1.08.381 1.906.381a7.69 7.69 0 0 0 1.669-.191c.572-.127 1.112-.317 1.62-.572l.143 3.385c-.635.286-1.35.492-2.145.619-.762.127-1.493.191-2.192.191-1.335 0-2.4-.175-3.194-.524s-1.414-.842-1.859-1.478-.747-1.414-.906-2.336c-.127-.953-.19-2.002-.19-3.146v-12.25h-4.862v-3.146h4.862v-6.34h3.718v6.34h6.578v3.146zm12.753 24.262c-.381.954-.778 1.812-1.191 2.574-.382.795-.858 1.462-1.43 2.002-.54.572-1.208 1.001-2.002 1.287-.763.318-1.7.477-2.813.477a16.58 16.58 0 0 1-1.716-.095c-.572-.064-1.112-.223-1.62-.477l.476-3.241c.382.159.779.254 1.192.286a9.58 9.58 0 0 0 1.43.095c1.208 0 2.097-.334 2.669-1.001s1.065-1.557 1.478-2.669l1.525-4.195-9.247-22.451h4.338l6.911 17.494h.096l6.625-17.494h4.052l-10.773 27.408zm15.131-41.136h3.718v36.036h-3.718V67.547zm31.042 31.984c-1.335 1.716-2.796 2.924-4.385 3.623-1.589.667-3.432 1.001-5.53 1.001-1.747 0-3.32-.302-4.719-.906-1.398-.635-2.589-1.477-3.575-2.526-.953-1.049-1.7-2.288-2.24-3.718-.508-1.43-.763-2.955-.763-4.576 0-1.716.286-3.289.858-4.719.572-1.462 1.367-2.701 2.384-3.718 1.017-1.049 2.224-1.859 3.622-2.431s2.924-.858 4.576-.858c1.558 0 2.988.27 4.29.81a8.71 8.71 0 0 1 3.337 2.288c.953.985 1.684 2.209 2.193 3.67.508 1.43.762 3.067.762 4.91v1.192H173.31c.064.953.286 1.875.668 2.765.413.858.937 1.621 1.573 2.288.635.636 1.382 1.144 2.24 1.525s1.796.572 2.812.572c1.621 0 2.988-.286 4.1-.858s2.113-1.414 3.003-2.526l2.812 2.193zm-3.194-9.104c-.063-1.907-.683-3.432-1.859-4.576s-2.796-1.716-4.862-1.716-3.733.572-5.005 1.716-2.033 2.669-2.288 4.576h14.014zm52.385 10.868c-1.938 1.08-3.988 1.875-6.149 2.383a27.78 27.78 0 0 1-6.482.763c-2.638 0-5.053-.429-7.246-1.287s-4.099-2.066-5.72-3.623c-1.589-1.557-2.828-3.416-3.718-5.577-.889-2.193-1.334-4.608-1.334-7.245 0-2.669.46-5.084 1.382-7.245.953-2.193 2.256-4.052 3.909-5.577 1.652-1.557 3.575-2.765 5.767-3.623s4.56-1.287 7.103-1.287c2.224 0 4.353.334 6.387 1.001 2.066.667 3.909 1.811 5.529 3.432l-3.003 3.146c-1.144-1.239-2.542-2.193-4.194-2.86a13.03 13.03 0 0 0-5.005-1.001c-1.939 0-3.734.35-5.387 1.049s-3.098 1.668-4.337 2.908c-1.208 1.239-2.161 2.717-2.86 4.433-.668 1.716-1.001 3.591-1.001 5.625 0 2.002.333 3.861 1.001 5.577.699 1.716 1.652 3.21 2.86 4.481 1.239 1.239 2.717 2.209 4.433 2.908s3.606 1.049 5.672 1.049c1.366 0 2.796-.159 4.29-.477 1.494-.349 2.86-.842 4.099-1.477V88.425h-7.769v-3.718h11.773v16.588zm27.186-3.003l.095 2.86.095 2.431h-3.527l-.048-1.811-.047-1.859h-.096c-.254.54-.619 1.064-1.096 1.573-.445.508-.985.969-1.621 1.382a8.73 8.73 0 0 1-2.145.906c-.794.254-1.652.381-2.574.381-1.461 0-2.733-.222-3.813-.667-1.049-.445-1.923-1.065-2.622-1.859s-1.223-1.748-1.573-2.86c-.317-1.144-.476-2.383-.476-3.718V81.275h3.718v13.394c0 1.875.413 3.353 1.239 4.433s2.113 1.621 3.861 1.621c1.208 0 2.24-.207 3.098-.62a5.31 5.31 0 0 0 2.145-1.763c.572-.763.985-1.668 1.24-2.717.286-1.049.429-2.209.429-3.48V81.275h3.718v17.017zm7.372-17.017h3.718v22.308h-3.718V81.275zm-.858-8.723c0-.731.254-1.366.763-1.907a2.66 2.66 0 0 1 1.954-.81 2.51 2.51 0 0 1 1.907.81c.54.54.81 1.176.81 1.907 0 .794-.254 1.446-.763 1.954s-1.16.763-1.954.763-1.446-.254-1.954-.763-.763-1.16-.763-1.954zm30.518 27.075h-.096c-.699 1.271-1.811 2.351-3.336 3.241-1.494.858-3.242 1.287-5.244 1.287-1.557 0-3.018-.286-4.385-.858a11.28 11.28 0 0 1-3.575-2.479c-.985-1.048-1.764-2.288-2.336-3.718s-.858-2.987-.858-4.671.286-3.241.858-4.671 1.367-2.669 2.384-3.718 2.24-1.859 3.67-2.431c1.462-.604 3.067-.906 4.814-.906 1.621 0 3.099.334 4.433 1.001 1.367.667 2.559 1.605 3.575 2.812h.096V67.547h3.718v36.036h-3.718v-3.956zm0-7.198c0-1.176-.191-2.256-.572-3.241-.35-1.017-.874-1.891-1.573-2.622-.699-.763-1.541-1.35-2.527-1.764-.953-.445-2.033-.667-3.241-.667s-2.304.222-3.289.667a7.23 7.23 0 0 0-2.479 1.764c-.699.731-1.239 1.605-1.62 2.622-.35.985-.525 2.066-.525 3.241s.175 2.272.525 3.289c.381.985.921 1.859 1.62 2.622.7.731 1.526 1.319 2.479 1.763.985.413 2.082.62 3.289.62s2.288-.207 3.241-.62c.986-.444 1.828-1.032 2.527-1.763a7.61 7.61 0 0 0 1.573-2.622c.381-1.017.572-2.113.572-3.289zm30.522 7.102c-1.335 1.716-2.796 2.924-4.385 3.623-1.589.667-3.432 1.001-5.53 1.001-1.747 0-3.32-.302-4.719-.906-1.398-.635-2.589-1.477-3.575-2.526-.953-1.049-1.7-2.288-2.24-3.718-.508-1.43-.763-2.955-.763-4.576 0-1.716.286-3.289.858-4.719.572-1.462 1.367-2.701 2.384-3.718 1.017-1.049 2.224-1.859 3.622-2.431s2.924-.858 4.576-.858c1.558 0 2.988.27 4.29.81a8.71 8.71 0 0 1 3.337 2.288c.953.985 1.684 2.209 2.193 3.67.508 1.43.762 3.067.762 4.91v1.192h-18.018c.064.953.286 1.875.668 2.765.413.858.937 1.621 1.573 2.288.635.636 1.382 1.144 2.24 1.525s1.796.572 2.812.572c1.621 0 2.988-.286 4.1-.858s2.113-1.414 3.003-2.526l2.812 2.193zm-3.194-9.104c-.063-1.907-.683-3.432-1.859-4.576s-2.796-1.716-4.862-1.716-3.733.572-5.005 1.716-2.033 2.669-2.288 4.576h14.014z" fill="#000"/><rect x="181.228" y="319.684" width="154.455" height="154.455" rx="20.079" fill="#eff0f1"/><circle cx="294.099" cy="361.267" r="29.703" fill="#5ecb71"/><path d="M323.802 462.258a59.41 59.41 0 0 0-4.522-22.733 59.4 59.4 0 0 0-32.15-32.15 59.4 59.4 0 0 0-22.734-4.522v59.405h59.406z" fill="url(#C)"/><path d="M193.109 331.564c0 7.802 1.536 15.527 4.522 22.734s7.361 13.756 12.877 19.273 12.066 9.892 19.273 12.877a59.4 59.4 0 0 0 22.734 4.522v-59.406h-59.406z" fill="url(#D)"/><circle cx="222.812" cy="432.556" r="29.703" fill="#f5c242"/><rect x="397.465" y="319.684" width="154.455" height="154.455" rx="20.079" fill="#28272e"/><circle cx="510.337" cy="361.267" r="29.703" fill="#5ecb71"/><path d="M540.04 462.258a59.41 59.41 0 0 0-4.522-22.733c-2.986-7.208-7.362-13.757-12.878-19.273s-12.065-9.892-19.273-12.877a59.39 59.39 0 0 0-22.733-4.522v59.405h59.406z" fill="url(#E)"/><path d="M409.347 331.564c0 7.802 1.536 15.527 4.522 22.734s7.361 13.756 12.877 19.273 12.065 9.892 19.273 12.877 14.932 4.522 22.734 4.522v-59.406h-59.406z" fill="url(#F)"/><circle cx="439.05" cy="432.556" r="29.703" fill="#f5c242"/><g fill="#000"><path d="M209.271 517.778v1.895h-8.785v-1.895h8.785zm-8.326-15.674v17.569h-2.329v-17.569h2.329zm13.08 4.513v13.056h-2.244v-13.056h2.244zm-2.413-3.464c0-.362.109-.667.326-.917.225-.249.555-.374.989-.374.427 0 .752.125.978.374.233.25.35.555.35.917a1.26 1.26 0 0 1-.35.893c-.226.242-.551.362-.978.362-.434 0-.764-.12-.989-.362-.217-.249-.326-.547-.326-.893zm14.456 3.464h2.027v12.778c0 1.151-.233 2.132-.7 2.945s-1.118 1.428-1.954 1.846c-.829.426-1.786.639-2.872.639-.451 0-.982-.072-1.593-.217a6.43 6.43 0 0 1-1.786-.712c-.579-.33-1.066-.776-1.46-1.339l1.17-1.328c.547.66 1.119 1.119 1.714 1.376.603.258 1.199.386 1.786.386.708 0 1.319-.133 1.834-.398a2.78 2.78 0 0 0 1.195-1.183c.289-.514.434-1.15.434-1.906v-10.016l.205-2.871zm-8.99 6.672v-.253c0-.997.117-1.902.35-2.715.242-.82.583-1.524 1.026-2.112a4.6 4.6 0 0 1 1.629-1.351c.635-.322 1.351-.483 2.148-.483.82 0 1.536.145 2.148.435.619.281 1.142.695 1.568 1.242.435.539.777 1.191 1.026 1.955s.422 1.629.519 2.595v1.11c-.089.957-.261 1.818-.519 2.582-.249.764-.591 1.416-1.026 1.955-.426.539-.949.953-1.568 1.243-.62.281-1.344.422-2.172.422-.781 0-1.489-.165-2.124-.495a4.82 4.82 0 0 1-1.617-1.387c-.451-.596-.796-1.295-1.038-2.1a9.55 9.55 0 0 1-.35-2.643zm2.233-.253v.253c0 .652.064 1.263.193 1.835.136.571.342 1.074.615 1.508.282.434.64.776 1.074 1.026.434.241.953.362 1.557.362.74 0 1.351-.157 1.834-.471a3.4 3.4 0 0 0 1.146-1.243 7.17 7.17 0 0 0 .676-1.677v-2.908c-.089-.443-.225-.869-.41-1.279a3.93 3.93 0 0 0-.7-1.11c-.282-.33-.632-.592-1.05-.785s-.909-.289-1.472-.289c-.612 0-1.138.128-1.581.386a3.08 3.08 0 0 0-1.074 1.038c-.273.434-.479.941-.615 1.52-.129.571-.193 1.182-.193 1.834zm14.407-11.898v18.535h-2.232v-18.535h2.232zm-.531 11.512l-.929-.036c.008-.893.141-1.718.399-2.474.257-.764.619-1.428 1.086-1.991a4.84 4.84 0 0 1 1.665-1.303c.651-.314 1.371-.471 2.16-.471.643 0 1.223.089 1.737.266a3.15 3.15 0 0 1 1.316.82c.37.378.651.869.844 1.472.193.596.29 1.324.29 2.184v8.556h-2.244v-8.58c0-.683-.101-1.23-.302-1.641-.201-.418-.495-.72-.881-.905-.386-.193-.861-.289-1.424-.289-.555 0-1.062.116-1.52.35-.451.233-.841.555-1.171.965-.322.41-.575.881-.76 1.412a5.16 5.16 0 0 0-.266 1.665zm17.377-6.033v1.713h-7.059v-1.713h7.059zm-4.67-3.174h2.232v12.996c0 .442.069.776.205 1.001s.314.375.531.447.451.109.7.109a3.69 3.69 0 0 0 .579-.049l.471-.096.012 1.822a5.37 5.37 0 0 1-.7.157 5.34 5.34 0 0 1-1.025.084c-.548 0-1.05-.108-1.509-.326s-.824-.579-1.098-1.086c-.265-.514-.398-1.206-.398-2.075v-12.984zm14.492-1.339h2.257l5.756 14.323 5.743-14.323h2.269l-7.144 17.569h-1.761l-7.12-17.569zm-.736 0h1.991l.326 10.715v6.854h-2.317v-17.569zm15.494 0h1.991v17.569h-2.317v-6.854l.326-10.715zm5.152 11.185v-.277c0-.941.137-1.814.411-2.619.273-.812.667-1.516 1.182-2.111.515-.604 1.139-1.07 1.871-1.4.732-.338 1.552-.507 2.461-.507.917 0 1.742.169 2.474.507.74.33 1.368.796 1.882 1.4a6.12 6.12 0 0 1 1.195 2.111c.273.805.41 1.678.41 2.619v.277c0 .942-.137 1.815-.41 2.619s-.672 1.508-1.195 2.112c-.514.595-1.138 1.062-1.87 1.399-.724.33-1.545.495-2.462.495s-1.741-.165-2.473-.495a5.59 5.59 0 0 1-1.883-1.399c-.515-.604-.909-1.308-1.182-2.112a8.07 8.07 0 0 1-.411-2.619zm2.233-.277v.277c0 .652.076 1.268.229 1.847.153.571.382 1.078.688 1.52a3.48 3.48 0 0 0 1.17 1.05c.467.249 1.01.374 1.629.374.612 0 1.147-.125 1.605-.374a3.36 3.36 0 0 0 1.159-1.05 4.85 4.85 0 0 0 .687-1.52c.161-.579.242-1.195.242-1.847v-.277c0-.644-.081-1.251-.242-1.822-.152-.579-.386-1.09-.699-1.533-.306-.45-.692-.804-1.159-1.062-.458-.257-.997-.386-1.617-.386-.611 0-1.15.129-1.617.386a3.49 3.49 0 0 0-1.158 1.062c-.306.443-.535.954-.688 1.533-.153.571-.229 1.178-.229 1.822zm20.682 4.127v-16.001h2.245v18.535h-2.052l-.193-2.534zm-8.784-3.85v-.253c0-.997.12-1.902.362-2.715.249-.82.599-1.524 1.05-2.112.458-.587 1.001-1.037 1.629-1.351.635-.322 1.343-.483 2.123-.483.821 0 1.537.145 2.148.435a4.12 4.12 0 0 1 1.569 1.242c.434.539.776 1.191 1.026 1.955s.422 1.629.518 2.595v1.11c-.088.957-.261 1.818-.518 2.582-.25.764-.592 1.416-1.026 1.955a4.29 4.29 0 0 1-1.569 1.243c-.619.281-1.343.422-2.172.422-.764 0-1.464-.165-2.099-.495-.628-.329-1.171-.792-1.629-1.387-.451-.596-.801-1.295-1.05-2.1-.242-.812-.362-1.693-.362-2.643zm2.244-.253v.253c0 .652.064 1.263.193 1.835.137.571.346 1.074.628 1.508s.639.776 1.074 1.026c.434.241.953.362 1.556.362.74 0 1.348-.157 1.822-.471.483-.314.869-.728 1.159-1.243a7.17 7.17 0 0 0 .675-1.677v-2.908a6.39 6.39 0 0 0-.422-1.279 3.91 3.91 0 0 0-.7-1.11c-.281-.33-.631-.592-1.05-.785-.41-.193-.897-.289-1.46-.289-.611 0-1.138.128-1.58.386-.435.249-.793.595-1.074 1.038a4.79 4.79 0 0 0-.628 1.52c-.129.571-.193 1.182-.193 1.834zm17.678 6.878c-.909 0-1.734-.153-2.474-.458-.732-.314-1.363-.753-1.894-1.316-.523-.563-.925-1.23-1.207-2.003s-.422-1.617-.422-2.534v-.507c0-1.061.157-2.007.47-2.835.314-.837.741-1.545 1.279-2.124s1.151-1.018 1.835-1.315 1.391-.447 2.123-.447c.934 0 1.738.161 2.414.483.684.322 1.243.772 1.677 1.351.434.572.756 1.247.965 2.028.21.772.314 1.617.314 2.534v1.001h-9.75v-1.822h7.518v-.169c-.032-.579-.153-1.142-.362-1.689-.201-.547-.523-.998-.966-1.352s-1.045-.531-1.81-.531a3.04 3.04 0 0 0-1.399.326 2.97 2.97 0 0 0-1.098.941c-.306.419-.543.93-.712 1.533s-.254 1.299-.254 2.087v.507c0 .62.085 1.203.254 1.75.177.539.43 1.014.76 1.424a3.64 3.64 0 0 0 1.219.965c.482.233 1.029.35 1.641.35.788 0 1.456-.161 2.003-.483s1.025-.752 1.436-1.291l1.351 1.074c-.281.427-.639.833-1.074 1.219s-.969.7-1.605.941c-.627.242-1.371.362-2.232.362zm113.609-.241h-3.668l.024-1.895h3.644c1.255 0 2.301-.261 3.138-.784.836-.531 1.464-1.271 1.882-2.22.427-.958.64-2.076.64-3.355v-1.074c0-1.005-.121-1.898-.362-2.679-.242-.788-.596-1.452-1.062-1.991-.467-.547-1.038-.961-1.714-1.243-.667-.281-1.436-.422-2.304-.422h-3.958v-1.906h3.958c1.15 0 2.2.193 3.149.579.949.378 1.766.929 2.45 1.653.691.716 1.222 1.585 1.592 2.606.37 1.014.556 2.156.556 3.427v1.05c0 1.271-.186 2.418-.556 3.439-.37 1.014-.905 1.879-1.604 2.595-.692.716-1.529 1.267-2.51 1.653-.974.378-2.072.567-3.295.567zm-2.425-17.569v17.569h-2.329v-17.569h2.329zm21.25 15.336v-6.721c0-.515-.105-.961-.314-1.339-.201-.386-.507-.684-.917-.893s-.917-.314-1.521-.314c-.563 0-1.057.097-1.484.29-.418.193-.748.446-.989.76-.234.314-.35.652-.35 1.014h-2.233c0-.467.121-.93.362-1.388s.588-.873 1.038-1.243c.459-.378 1.006-.676 1.641-.893.644-.225 1.36-.338 2.148-.338.949 0 1.786.161 2.51.483.732.322 1.303.808 1.714 1.46.418.644.627 1.452.627 2.425v6.082a9.46 9.46 0 0 0 .109 1.388c.08.49.197.913.35 1.267v.193h-2.329c-.113-.258-.201-.599-.266-1.026-.064-.434-.096-.836-.096-1.207zm.386-5.683l.024 1.569h-2.257c-.635 0-1.202.052-1.701.157-.499.096-.917.245-1.255.446s-.595.455-.772.76c-.177.298-.266.648-.266 1.05 0 .41.093.784.278 1.122s.462.608.832.809c.379.193.841.289 1.388.289.684 0 1.287-.144 1.81-.434s.937-.644 1.243-1.062c.314-.418.483-.824.507-1.219l.953 1.074c-.056.338-.209.712-.458 1.122s-.584.805-1.002 1.183c-.41.37-.901.68-1.472.929-.563.242-1.199.362-1.907.362-.885 0-1.661-.173-2.329-.519-.659-.346-1.174-.808-1.544-1.387-.362-.588-.543-1.243-.543-1.967 0-.7.137-1.316.41-1.846a3.57 3.57 0 0 1 1.183-1.34c.515-.362 1.134-.635 1.858-.82s1.532-.278 2.425-.278h2.595zm7.59-3.089v11.005h-2.233v-13.056h2.173l.06 2.051zm4.078-2.124l-.012 2.076a3.14 3.14 0 0 0-.531-.073c-.16-.016-.345-.024-.555-.024a3.6 3.6 0 0 0-1.363.241c-.394.161-.728.387-1.002.676a3.27 3.27 0 0 0-.651 1.038c-.153.394-.254.829-.302 1.303l-.628.362c0-.788.077-1.528.23-2.22.161-.692.406-1.303.736-1.834.33-.539.748-.958 1.255-1.255.515-.306 1.126-.459 1.834-.459a2.92 2.92 0 0 1 .555.061c.209.032.354.068.434.108zm4.308-5.406v18.535h-2.244v-18.535h2.244zm7.976 5.479l-5.695 6.093-3.186 3.307-.181-2.378 2.281-2.727 4.054-4.295h2.727zm-2.039 13.056l-4.658-6.227 1.159-1.991 6.13 8.218h-2.631zm11.548-17.569h2.257l5.755 14.323 5.744-14.323h2.269l-7.144 17.569h-1.761l-7.12-17.569zm-.736 0h1.991l.326 10.715v6.854h-2.317v-17.569zm15.494 0h1.991v17.569h-2.317v-6.854l.326-10.715zm5.152 11.185v-.277c0-.941.137-1.814.411-2.619.273-.812.667-1.516 1.182-2.111.515-.604 1.139-1.07 1.871-1.4.732-.338 1.552-.507 2.461-.507.917 0 1.742.169 2.474.507.74.33 1.367.796 1.882 1.4a6.12 6.12 0 0 1 1.195 2.111c.273.805.41 1.678.41 2.619v.277c0 .942-.137 1.815-.41 2.619s-.672 1.508-1.195 2.112c-.515.595-1.138 1.062-1.87 1.399-.724.33-1.545.495-2.462.495s-1.741-.165-2.473-.495a5.59 5.59 0 0 1-1.883-1.399c-.515-.604-.909-1.308-1.182-2.112a8.07 8.07 0 0 1-.411-2.619zm2.233-.277v.277c0 .652.076 1.268.229 1.847.153.571.382 1.078.688 1.52a3.48 3.48 0 0 0 1.17 1.05c.467.249 1.01.374 1.629.374.612 0 1.147-.125 1.605-.374a3.36 3.36 0 0 0 1.159-1.05 4.85 4.85 0 0 0 .687-1.52c.161-.579.242-1.195.242-1.847v-.277c0-.644-.081-1.251-.242-1.822-.152-.579-.386-1.09-.699-1.533-.306-.45-.692-.804-1.159-1.062-.458-.257-.997-.386-1.617-.386-.611 0-1.15.129-1.617.386a3.49 3.49 0 0 0-1.158 1.062c-.306.443-.535.954-.688 1.533-.153.571-.229 1.178-.229 1.822zm20.682 4.127v-16.001h2.245v18.535h-2.052l-.193-2.534zm-8.784-3.85v-.253c0-.997.12-1.902.362-2.715.249-.82.599-1.524 1.049-2.112.459-.587 1.002-1.037 1.629-1.351.636-.322 1.344-.483 2.124-.483.821 0 1.537.145 2.148.435.62.281 1.142.695 1.569 1.242.434.539.776 1.191 1.026 1.955s.422 1.629.518 2.595v1.11c-.088.957-.261 1.818-.518 2.582-.25.764-.592 1.416-1.026 1.955a4.3 4.3 0 0 1-1.569 1.243c-.619.281-1.343.422-2.172.422a4.49 4.49 0 0 1-2.1-.495c-.627-.329-1.17-.792-1.629-1.387-.45-.596-.8-1.295-1.049-2.1-.242-.812-.362-1.693-.362-2.643zm2.244-.253v.253c0 .652.064 1.263.193 1.835.137.571.346 1.074.628 1.508s.639.776 1.074 1.026c.434.241.953.362 1.556.362.74 0 1.348-.157 1.822-.471.483-.314.869-.728 1.159-1.243a7.17 7.17 0 0 0 .675-1.677v-2.908a6.39 6.39 0 0 0-.422-1.279 3.91 3.91 0 0 0-.7-1.11c-.281-.33-.631-.592-1.05-.785-.41-.193-.897-.289-1.46-.289-.611 0-1.138.128-1.58.386-.435.249-.793.595-1.074 1.038a4.79 4.79 0 0 0-.628 1.52c-.129.571-.193 1.182-.193 1.834zm17.678 6.878c-.909 0-1.734-.153-2.474-.458-.732-.314-1.363-.753-1.894-1.316-.523-.563-.925-1.23-1.207-2.003s-.422-1.617-.422-2.534v-.507c0-1.061.157-2.007.47-2.835.314-.837.74-1.545 1.279-2.124s1.151-1.018 1.835-1.315 1.391-.447 2.123-.447c.934 0 1.738.161 2.414.483.684.322 1.243.772 1.677 1.351.434.572.756 1.247.965 2.028.21.772.314 1.617.314 2.534v1.001h-9.75v-1.822h7.518v-.169c-.032-.579-.153-1.142-.362-1.689-.201-.547-.523-.998-.966-1.352s-1.045-.531-1.81-.531a3.04 3.04 0 0 0-1.399.326 2.97 2.97 0 0 0-1.098.941c-.306.419-.543.93-.712 1.533s-.254 1.299-.254 2.087v.507c0 .62.085 1.203.254 1.75.177.539.43 1.014.76 1.424a3.64 3.64 0 0 0 1.219.965c.482.233 1.029.35 1.641.35.788 0 1.456-.161 2.003-.483s1.025-.752 1.436-1.291l1.351 1.074c-.281.427-.639.833-1.074 1.219s-.969.7-1.605.941c-.627.242-1.371.362-2.232.362z"/><path d="M314.937 255.265V258h-8.569v-2.735h8.569zm-7.435-14.285V258h-3.507v-17.02h3.507zm8.697 10.824v-.245c0-.927.133-1.781.398-2.56.265-.787.651-1.469 1.157-2.046a5.18 5.18 0 0 1 1.87-1.344c.741-.327 1.59-.491 2.549-.491s1.812.164 2.56.491c.748.319 1.375.767 1.882 1.344.514.577.904 1.259 1.169 2.046.265.779.397 1.633.397 2.56v.245c0 .92-.132 1.773-.397 2.56-.265.78-.655 1.462-1.169 2.046-.507.577-1.13 1.025-1.87 1.345s-1.59.479-2.549.479-1.812-.16-2.56-.479a5.3 5.3 0 0 1-1.882-1.345c-.506-.584-.892-1.266-1.157-2.046-.265-.787-.398-1.64-.398-2.56zm3.367-.245v.245a7.49 7.49 0 0 0 .14 1.485c.094.46.242.865.444 1.216.211.343.484.612.819.806s.744.293 1.227.293c.468 0 .869-.098 1.204-.293a2.22 2.22 0 0 0 .807-.806c.202-.351.351-.756.444-1.216.101-.46.152-.955.152-1.485v-.245c0-.514-.051-.998-.152-1.45-.093-.459-.245-.865-.456-1.215-.202-.359-.471-.639-.806-.842s-.741-.304-1.216-.304-.881.101-1.216.304a2.4 2.4 0 0 0-.807.842c-.202.35-.35.756-.444 1.215-.093.452-.14.936-.14 1.45zm18.692-6.207h3.051v12.227c0 1.154-.257 2.132-.772 2.934a4.75 4.75 0 0 1-2.127 1.836c-.912.42-1.972.631-3.18.631a7.27 7.27 0 0 1-1.683-.211c-.585-.14-1.146-.358-1.683-.654a4.44 4.44 0 0 1-1.333-1.122l1.485-1.988c.389.452.841.803 1.356 1.052.514.258 1.083.386 1.706.386.608 0 1.122-.113 1.543-.339a2.24 2.24 0 0 0 .971-.97c.226-.421.339-.931.339-1.531v-9.329l.327-2.922zm-8.51 6.476v-.246c0-.966.117-1.843.35-2.63.242-.795.581-1.477 1.017-2.046a4.64 4.64 0 0 1 1.614-1.321c.631-.311 1.344-.467 2.139-.467.842 0 1.547.156 2.116.467a3.82 3.82 0 0 1 1.402 1.333c.367.569.651 1.243.854 2.022.21.772.374 1.618.491 2.537v.538c-.117.88-.292 1.699-.526 2.455s-.542 1.418-.924 1.987c-.382.561-.857.997-1.426 1.309-.561.312-1.231.468-2.011.468s-1.484-.16-2.115-.479c-.624-.32-1.158-.768-1.602-1.345s-.787-1.255-1.029-2.034c-.233-.779-.35-1.629-.35-2.548zm3.366-.246v.246c0 .522.051 1.009.152 1.461s.258.853.468 1.204c.218.343.487.612.807.807.327.187.713.28 1.157.28.615 0 1.118-.128 1.508-.386.389-.265.682-.627.877-1.087s.307-.989.339-1.589v-1.532c-.016-.491-.082-.931-.199-1.321-.117-.397-.281-.736-.491-1.017a2.12 2.12 0 0 0-.818-.654c-.336-.156-.733-.234-1.193-.234-.444 0-.83.101-1.157.304-.32.195-.588.463-.807.806-.21.343-.37.748-.479 1.216-.109.46-.164.959-.164 1.496zm10.276.222v-.245c0-.927.132-1.781.397-2.56.265-.787.651-1.469 1.157-2.046s1.13-1.025 1.871-1.344c.74-.327 1.59-.491 2.548-.491s1.812.164 2.56.491a5.15 5.15 0 0 1 1.882 1.344 5.82 5.82 0 0 1 1.169 2.046c.265.779.398 1.633.398 2.56v.245c0 .92-.133 1.773-.398 2.56-.265.78-.654 1.462-1.169 2.046-.506.577-1.13 1.025-1.87 1.345s-1.59.479-2.548.479-1.812-.16-2.561-.479a5.31 5.31 0 0 1-1.882-1.345c-.506-.584-.892-1.266-1.157-2.046-.265-.787-.397-1.64-.397-2.56zm3.366-.245v.245c0 .53.047 1.025.141 1.485a3.99 3.99 0 0 0 .444 1.216c.21.343.483.612.818.806s.744.293 1.228.293c.467 0 .868-.098 1.204-.293a2.21 2.21 0 0 0 .806-.806 3.99 3.99 0 0 0 .444-1.216c.102-.46.152-.955.152-1.485v-.245c0-.514-.05-.998-.152-1.45-.093-.459-.245-.865-.456-1.215-.202-.359-.471-.639-.806-.842s-.74-.304-1.216-.304-.88.101-1.216.304a2.39 2.39 0 0 0-.806.842c-.203.35-.351.756-.444 1.215a7.12 7.12 0 0 0-.141 1.45zM368.838 258h-3.705l.023-2.735h3.682c.92 0 1.695-.207 2.327-.62.631-.421 1.106-1.033 1.426-1.835.327-.803.491-1.773.491-2.911v-.83c0-.873-.094-1.64-.281-2.303-.179-.662-.448-1.219-.807-1.671a3.37 3.37 0 0 0-1.32-1.017c-.523-.234-1.123-.351-1.801-.351h-3.811v-2.747h3.811c1.138 0 2.179.195 3.121.584.951.382 1.773.932 2.467 1.648s1.227 1.575 1.602 2.572c.381.99.572 2.093.572 3.308v.807c0 1.208-.191 2.311-.572 3.308-.375.998-.908 1.855-1.602 2.572a7.1 7.1 0 0 1-2.467 1.648c-.95.382-2.002.573-3.156.573zm-1.718-17.02V258h-3.507v-17.02h3.507zm17.675 17.254c-.982 0-1.863-.156-2.642-.468-.779-.319-1.442-.76-1.987-1.321a5.86 5.86 0 0 1-1.239-1.952 6.56 6.56 0 0 1-.433-2.385v-.467c0-.959.136-1.836.409-2.63s.663-1.485 1.169-2.069c.514-.585 1.138-1.033 1.87-1.345.733-.319 1.559-.479 2.479-.479.896 0 1.691.148 2.384.444a4.66 4.66 0 0 1 1.742 1.263c.476.545.834 1.2 1.076 1.963.241.756.362 1.598.362 2.525v1.403h-10.053v-2.244h6.745v-.257c0-.468-.086-.885-.257-1.251a1.99 1.99 0 0 0-.749-.889c-.335-.218-.763-.327-1.285-.327-.445 0-.826.098-1.146.292a2.26 2.26 0 0 0-.783.819c-.195.35-.343.763-.444 1.239a7.84 7.84 0 0 0-.141 1.543v.467c0 .507.07.975.211 1.403.148.429.354.799.619 1.111a2.83 2.83 0 0 0 .982.724 3.24 3.24 0 0 0 1.321.258c.608 0 1.173-.117 1.695-.351.53-.242.986-.604 1.368-1.087l1.636 1.777c-.265.381-.627.748-1.087 1.098-.452.351-.997.639-1.636.865-.639.219-1.368.328-2.186.328zm13.946-3.729c0-.242-.071-.46-.211-.655s-.401-.374-.783-.538c-.374-.171-.916-.327-1.625-.467-.639-.14-1.235-.316-1.788-.526-.546-.218-1.021-.479-1.427-.783-.397-.304-.709-.663-.935-1.076-.226-.421-.339-.9-.339-1.438 0-.53.113-1.028.339-1.496.234-.468.565-.881.994-1.239.436-.366.966-.651 1.59-.853.631-.211 1.34-.316 2.127-.316 1.099 0 2.042.175 2.829.526.795.351 1.403.834 1.824 1.449.428.608.643 1.302.643 2.081h-3.367a1.8 1.8 0 0 0-.21-.876 1.39 1.39 0 0 0-.632-.62c-.28-.156-.646-.234-1.098-.234-.375 0-.698.066-.971.199-.272.125-.483.296-.631.514a1.24 1.24 0 0 0-.21.702 1.16 1.16 0 0 0 .117.526c.085.148.222.284.409.409s.428.241.724.35c.304.102.678.195 1.123.281.911.187 1.726.433 2.443.737.717.296 1.286.701 1.706 1.215.421.507.632 1.173.632 1.999a3.23 3.23 0 0 1-.374 1.543c-.25.468-.608.877-1.076 1.228-.467.343-1.028.611-1.683.806-.647.187-1.376.281-2.186.281-1.177 0-2.174-.211-2.993-.631-.81-.421-1.426-.955-1.847-1.602-.413-.655-.619-1.325-.619-2.011h3.191c.016.46.133.83.351 1.111a1.92 1.92 0 0 0 .853.608c.351.125.729.187 1.134.187.436 0 .799-.059 1.087-.175.289-.125.507-.289.655-.491.156-.211.234-.452.234-.725zm9.012-9.153V258h-3.378v-12.648h3.378zm-3.588-3.297a1.59 1.59 0 0 1 .514-1.216c.343-.319.803-.479 1.379-.479.569 0 1.025.16 1.368.479.351.32.526.725.526 1.216s-.175.896-.526 1.216c-.343.319-.799.479-1.368.479-.576 0-1.036-.16-1.379-.479a1.59 1.59 0 0 1-.514-1.216zm14.378 3.297h3.051v12.227c0 1.154-.257 2.132-.771 2.934-.507.811-1.216 1.423-2.128 1.836-.912.42-1.972.631-3.18.631a7.27 7.27 0 0 1-1.683-.211 6.72 6.72 0 0 1-1.683-.654c-.53-.296-.974-.67-1.333-1.122l1.485-1.988c.389.452.841.803 1.356 1.052.514.258 1.083.386 1.706.386.608 0 1.123-.113 1.543-.339a2.24 2.24 0 0 0 .971-.97c.226-.421.339-.931.339-1.531v-9.329l.327-2.922zm-8.51 6.476v-.246c0-.966.117-1.843.351-2.63.241-.795.58-1.477 1.017-2.046.444-.568.982-1.009 1.613-1.321s1.344-.467 2.139-.467c.842 0 1.547.156 2.116.467a3.83 3.83 0 0 1 1.403 1.333c.366.569.65 1.243.853 2.022.21.772.374 1.618.491 2.537v.538c-.117.88-.292 1.699-.526 2.455s-.542 1.418-.924 1.987a4.08 4.08 0 0 1-1.426 1.309c-.561.312-1.231.468-2.01.468s-1.485-.16-2.116-.479c-.624-.32-1.157-.768-1.602-1.345s-.787-1.255-1.028-2.034c-.234-.779-.351-1.629-.351-2.548zm3.367-.246v.246a6.63 6.63 0 0 0 .152 1.461c.101.452.257.853.467 1.204.218.343.487.612.807.807.327.187.713.28 1.157.28.616 0 1.118-.128 1.508-.386.39-.265.682-.627.877-1.087s.308-.989.339-1.589v-1.532c-.016-.491-.082-.931-.199-1.321-.117-.397-.281-.736-.491-1.017s-.483-.499-.818-.654-.733-.234-1.193-.234c-.444 0-.83.101-1.157.304-.319.195-.588.463-.807.806-.21.343-.37.748-.479 1.216-.109.46-.163.959-.163 1.496zm14.109-3.53V258h-3.367v-12.648h3.157l.21 2.7zm-.491 3.18h-.912c0-.936.121-1.777.363-2.525.241-.756.58-1.399 1.017-1.929.436-.538.954-.947 1.554-1.228.608-.288 1.286-.432 2.034-.432a4.91 4.91 0 0 1 1.625.257 3.12 3.12 0 0 1 1.263.818c.358.374.631.869.818 1.485.195.616.292 1.368.292 2.256V258h-3.39v-8.078c0-.561-.078-.997-.233-1.309s-.386-.53-.69-.654c-.296-.133-.663-.199-1.099-.199-.452 0-.846.089-1.181.269a2.34 2.34 0 0 0-.818.748 3.54 3.54 0 0 0-.479 1.099c-.109.42-.164.872-.164 1.356z"/></g><g clip-path="url(#H)"><g clip-path="url(#I)"><rect x="962" y="319.683" width="78" height="77.228" rx="7.723" fill="#5ecb71"/><path d="M978.8 422.267l1.475-8.987h.877l-1.474 8.987h-.878zm-4.089-2.493l.14-.877h6.705l-.141.877h-6.704zm.93 2.493l1.474-8.987h.878l-1.475 8.987h-.877zm-.404-5.617l.141-.878h6.704l-.14.878h-6.705zm10.797 5.739a3.08 3.08 0 0 1-1.391-.307c-.413-.204-.743-.485-.992-.842a2.29 2.29 0 0 1-.408-1.22h1.053a1.44 1.44 0 0 0 .553 1.009c.331.263.725.395 1.185.395.368 0 .696-.086.983-.259s.516-.409.68-.711.25-.648.25-1.031c0-.392-.086-.741-.259-1.049a1.9 1.9 0 0 0-.702-.732c-.298-.179-.639-.269-1.023-.272-.274-.003-.557.039-.846.127s-.528.194-.716.329l-1.018-.123.544-4.423h4.669v.965h-3.756l-.316 2.651h.053c.184-.147.415-.268.693-.364a2.62 2.62 0 0 1 .869-.145c.55 0 1.04.131 1.47.395s.772.617 1.018 1.07.373.972.373 1.554c0 .573-.129 1.085-.386 1.535s-.606.802-1.053 1.062-.957.386-1.527.386zm4.867-.122v-8.987h5.424v.965h-4.336v3.037h4.055v.965h-4.055v3.054h4.406v.966h-5.494zm14.619-6.179h-1.09c-.07-.313-.18-.588-.34-.825a2.27 2.27 0 0 0-.58-.596c-.22-.164-.47-.287-.75-.369a2.96 2.96 0 0 0-.86-.123c-.54 0-1.04.138-1.48.413s-.786.68-1.046 1.215-.386 1.192-.386 1.97.129 1.435.386 1.971.61.94 1.046 1.215a2.75 2.75 0 0 0 1.48.412 2.96 2.96 0 0 0 .86-.122 2.4 2.4 0 0 0 .75-.365c.23-.163.42-.364.58-.601s.27-.515.34-.825h1.09c-.08.46-.23.871-.45 1.233a3.46 3.46 0 0 1-.81.926c-.32.252-.68.443-1.08.575a4.03 4.03 0 0 1-1.28.197c-.76 0-1.45-.187-2.043-.561s-1.066-.907-1.409-1.597-.513-1.51-.513-2.458.171-1.767.513-2.457.812-1.223 1.409-1.597 1.283-.562 2.043-.562a4.03 4.03 0 0 1 1.28.198 3.43 3.43 0 0 1 1.08.579c.32.251.59.559.81.921s.37.771.45 1.233zm1.76 6.179v-8.987h3.14c.62 0 1.14.108 1.55.325.4.213.71.501.9.864.2.36.3.759.3 1.198 0 .386-.07.705-.2.957-.14.251-.32.45-.54.596a2.48 2.48 0 0 1-.71.325v.088c.27.017.55.114.83.29a2.09 2.09 0 0 1 .69.754c.19.328.28.729.28 1.203 0 .45-.1.855-.3 1.215-.21.36-.53.645-.97.856s-1.02.316-1.73.316h-3.24zm1.08-.966h2.16c.71 0 1.22-.137 1.52-.412s.45-.615.45-1.009a1.65 1.65 0 0 0-.23-.843c-.16-.26-.38-.468-.67-.623-.28-.158-.62-.237-1.01-.237h-2.22v3.124zm0-4.072h2.02c.33 0 .63-.064.89-.193s.48-.31.63-.544c.16-.234.24-.509.24-.825 0-.395-.14-.73-.41-1.005-.28-.278-.72-.417-1.31-.417h-2.06v2.984zm7.08 5.038l4.01-7.951v-.071h-4.63v-.965h5.76v1.018l-4 7.969h-1.14zm9.93-8.987v8.987h-1.09v-7.846h-.05l-2.19 1.457v-1.106l2.24-1.492h1.09z" fill="#828282"/></g><g clip-path="url(#J)"><rect x="853.109" y="319.683" width="78" height="78" rx="7.723" fill="#f5c242"/><path d="M868.909 423.039l1.474-8.986h.878l-1.474 8.986h-.878zm-4.089-2.492l.14-.878h6.705l-.141.878h-6.704zm.93 2.492l1.474-8.986h.878l-1.475 8.986h-.877zm-.404-5.616l.14-.878h6.705l-.14.878h-6.705zm8.146 5.616v-8.986h5.389v.965h-4.301v3.036h3.897v.966h-3.897v4.019h-1.088zm9.903.123a3.08 3.08 0 0 1-1.391-.307c-.413-.205-.743-.486-.992-.843s-.385-.763-.408-1.22h1.053c.041.407.225.743.553 1.01s.725.395 1.185.395c.368 0 .696-.087.983-.259s.516-.41.68-.711.25-.648.25-1.031a2.1 2.1 0 0 0-.259-1.049 1.91 1.91 0 0 0-.702-.733c-.298-.178-.639-.269-1.022-.272-.275-.003-.558.04-.847.127s-.528.195-.716.329l-1.018-.122.545-4.423h4.668v.965h-3.756l-.316 2.65h.053c.184-.146.415-.267.693-.364a2.62 2.62 0 0 1 .869-.145 2.76 2.76 0 0 1 1.47.395c.433.26.772.617 1.018 1.071s.373.971.373 1.553c0 .573-.129 1.085-.386 1.536a2.84 2.84 0 0 1-1.053 1.062c-.448.257-.957.386-1.527.386zm12.098-6.301h-1.088c-.064-.313-.177-.588-.338-.825s-.351-.436-.579-.597a2.43 2.43 0 0 0-.75-.368c-.275-.082-.562-.123-.86-.123-.544 0-1.037.137-1.479.412s-.788.68-1.049 1.216-.386 1.192-.386 1.97.129 1.435.386 1.97.61.94 1.049 1.215.935.413 1.479.413c.298 0 .585-.041.86-.123a2.51 2.51 0 0 0 .75-.364c.228-.164.421-.364.579-.601a2.3 2.3 0 0 0 .338-.825h1.088a3.64 3.64 0 0 1-.447 1.233 3.38 3.38 0 0 1-.808.926 3.53 3.53 0 0 1-1.083.574c-.398.132-.824.198-1.277.198-.767 0-1.448-.187-2.045-.562s-1.066-.907-1.409-1.597-.513-1.509-.513-2.457.171-1.767.513-2.457.812-1.223 1.409-1.598 1.278-.561 2.045-.561a4.06 4.06 0 0 1 1.277.197c.4.132.762.325 1.083.579a3.32 3.32 0 0 1 .808.922c.216.36.365.771.447 1.233zm1.601 6.178v-.79l2.966-3.247.86-.992c.225-.283.392-.549.5-.798a1.92 1.92 0 0 0 .167-.79c0-.316-.076-.589-.228-.82s-.354-.41-.614-.536a1.99 1.99 0 0 0-.878-.189c-.345 0-.646.072-.904.216s-.452.337-.592.592-.206.553-.206.895h-1.036c0-.527.121-.989.364-1.387s.574-.707.992-.93.894-.333 1.417-.333.993.111 1.4.333.725.522.956.9.347.797.347 1.259a2.71 2.71 0 0 1-.18.97c-.117.313-.322.662-.614 1.049s-.692.851-1.207 1.404l-2.018 2.159v.07h4.177v.965h-5.669zm7.078-1.843v-.895l3.949-6.248h.649v1.386h-.439l-2.983 4.722v.07h5.318v.965h-6.494zm4.23 1.843v-2.115-.417-6.454h1.035v8.986h-1.035zm3.908 0v-.79l2.966-3.247.86-.992a3.65 3.65 0 0 0 .501-.798c.111-.252.166-.515.166-.79 0-.316-.076-.589-.228-.82s-.354-.41-.614-.536-.553-.189-.878-.189c-.345 0-.646.072-.904.216s-.452.337-.592.592a1.86 1.86 0 0 0-.206.895h-1.036c0-.527.122-.989.364-1.387s.574-.707.992-.93.894-.333 1.417-.333.994.111 1.4.333.726.522.957.9.346.797.346 1.259a2.73 2.73 0 0 1-.179.97c-.117.313-.322.662-.615 1.049s-.692.851-1.206 1.404l-2.019 2.159v.07h4.177v.965h-5.669z" fill="#828282"/></g><g clip-path="url(#K)"><rect x="744.99" y="319.683" width="77.228" height="77.228" rx="7.723" fill="#ff6e30"/><path d="M761.404 422.267l1.474-8.987h.878l-1.475 8.987h-.877zm-4.09-2.493l.141-.877h6.704l-.14.877h-6.705zm.93 2.493l1.475-8.987h.877l-1.474 8.987h-.878zm-.403-5.617l.14-.878h6.705l-.141.878h-6.704zm8.146 5.617v-8.987h5.388v.965h-4.3v3.037h3.897v.965h-3.897v4.02h-1.088zm7.252 0v-8.987h5.388v.965h-4.3v3.037h3.897v.965h-3.897v4.02h-1.088zm10.078.122c-.369-.005-.737-.076-1.106-.21s-.705-.361-1.009-.68-.548-.756-.733-1.304-.276-1.24-.276-2.071c0-.795.074-1.5.224-2.115s.365-1.136.649-1.557.626-.746 1.027-.966.858-.329 1.364-.329.951.101 1.343.303.717.477.966.834.409.768.482 1.233h-1.07c-.1-.404-.293-.739-.58-1.005s-.667-.399-1.141-.399c-.696 0-1.244.302-1.645.908s-.598 1.455-.601 2.549h.07a2.65 2.65 0 0 1 .584-.636 2.62 2.62 0 0 1 .754-.412c.275-.097.566-.145.874-.145.514 0 .985.128 1.412.386a2.84 2.84 0 0 1 1.027 1.057c.258.448.386.961.386 1.541 0 .555-.124 1.064-.373 1.527s-.598.824-1.048 1.097-.974.4-1.58.394zm0-.965c.369 0 .699-.092.992-.276a1.98 1.98 0 0 0 .697-.742c.173-.31.259-.655.259-1.035a2.07 2.07 0 0 0-.25-1.014 1.91 1.91 0 0 0-.68-.733c-.287-.181-.614-.272-.983-.272a1.82 1.82 0 0 0-.776.167c-.24.108-.451.257-.632.447s-.319.408-.422.654-.153.499-.153.768a2.08 2.08 0 0 0 .25 1.001c.17.31.401.56.693.75a1.82 1.82 0 0 0 1.005.285zm4.885.843v-8.987h5.423v.965h-4.335v3.037h4.055v.965h-4.055v3.054h4.406v.966h-5.494zm10.263.122c-.579 0-1.095-.099-1.549-.298s-.808-.475-1.075-.829-.406-.771-.43-1.242h1.106c.023.29.123.54.298.75a1.73 1.73 0 0 0 .689.483c.284.114.599.171.944.171a2.47 2.47 0 0 0 1.027-.202 1.69 1.69 0 0 0 .702-.561c.169-.24.254-.518.254-.834a1.56 1.56 0 0 0-.246-.873c-.163-.255-.403-.454-.719-.597s-.702-.215-1.159-.215h-.719v-.965h.719c.357 0 .67-.065.939-.193s.485-.311.637-.545.232-.509.232-.825c0-.304-.067-.568-.202-.794s-.324-.4-.57-.526-.53-.189-.86-.189a2.27 2.27 0 0 0-.878.171 1.64 1.64 0 0 0-.667.487c-.172.211-.266.465-.281.764h-1.053c.018-.471.16-.884.426-1.238s.614-.634 1.044-.833.909-.299 1.426-.299c.556 0 1.033.113 1.431.338s.703.516.917.882.32.761.32 1.185c0 .506-.133.937-.399 1.294s-.622.604-1.075.742v.07c.567.094 1.011.335 1.329.724s.479.864.479 1.435a2.27 2.27 0 0 1-.4 1.316 2.71 2.71 0 0 1-1.079.913c-.456.222-.976.333-1.558.333zm7.763 0c-.662 0-1.225-.179-1.69-.539s-.82-.888-1.066-1.576-.369-1.524-.369-2.501c0-.971.123-1.8.369-2.488s.605-1.217 1.071-1.579 1.029-.549 1.685-.549 1.215.183 1.68.549.825.889 1.071 1.579.373 1.517.373 2.488c0 .977-.123 1.811-.369 2.501s-.601 1.213-1.066 1.576-1.028.539-1.689.539zm0-.965c.655 0 1.164-.316 1.527-.948s.544-1.533.544-2.703c0-.778-.084-1.44-.25-1.987s-.401-.964-.711-1.251-.677-.43-1.11-.43c-.65 0-1.157.32-1.523.961s-.549 1.54-.549 2.707c0 .778.082 1.44.246 1.984s.4.958.707 1.241.683.426 1.119.426z" fill="#828282"/></g><g clip-path="url(#L)"><rect x="636.871" y="319.683" width="77.228" height="77.228" rx="7.723" fill="#05c8dd"/><path d="M650.785 422.267l1.474-8.987h.878l-1.474 8.987h-.878zm-4.09-2.493l.141-.877h6.705l-.141.877h-6.705zm.931 2.493l1.474-8.987h.878l-1.475 8.987h-.877zm-.404-5.617l.14-.878h6.705l-.14.878h-6.705zm10.919 5.739c-.661 0-1.224-.179-1.689-.539s-.82-.888-1.066-1.576-.369-1.524-.369-2.501c0-.971.123-1.8.369-2.488s.605-1.217 1.07-1.579 1.03-.549 1.685-.549 1.216.183 1.681.549.825.889 1.071 1.579.373 1.517.373 2.488c0 .977-.123 1.811-.369 2.501s-.601 1.213-1.066 1.576-1.028.539-1.69.539zm0-.965c.656 0 1.165-.316 1.527-.948s.545-1.533.545-2.703c0-.778-.084-1.44-.251-1.987s-.4-.964-.71-1.251a1.57 1.57 0 0 0-1.111-.43c-.649 0-1.157.32-1.522.961s-.549 1.54-.549 2.707c0 .778.082 1.44.246 1.984s.399.958.706 1.241a1.6 1.6 0 0 0 1.119.426zm7.6.965c-.515 0-.978-.102-1.391-.307a2.57 2.57 0 0 1-.991-.842 2.29 2.29 0 0 1-.408-1.22h1.053a1.44 1.44 0 0 0 .553 1.009c.33.263.725.395 1.184.395.369 0 .697-.086.983-.259a1.81 1.81 0 0 0 .68-.711c.167-.304.25-.648.25-1.031 0-.392-.086-.741-.258-1.049a1.9 1.9 0 0 0-.702-.732c-.299-.179-.64-.269-1.023-.272a2.8 2.8 0 0 0-.847.127 2.35 2.35 0 0 0-.715.329l-1.018-.123.544-4.423h4.669v.965h-3.756l-.316 2.651h.053c.184-.147.415-.268.693-.364s.567-.145.869-.145c.55 0 1.04.131 1.47.395s.772.617 1.018 1.07.373.972.373 1.554c0 .573-.129 1.085-.387 1.535a2.81 2.81 0 0 1-1.053 1.062c-.447.258-.956.386-1.527.386zm12.099-6.301h-1.088c-.065-.313-.177-.588-.338-.825s-.351-.435-.579-.596a2.47 2.47 0 0 0-.751-.369 2.99 2.99 0 0 0-.86-.123c-.544 0-1.037.138-1.478.413s-.789.68-1.049 1.215-.386 1.192-.386 1.97.128 1.435.386 1.971.61.94 1.049 1.215.934.412 1.478.412a2.99 2.99 0 0 0 .86-.122 2.53 2.53 0 0 0 .751-.365 2.3 2.3 0 0 0 .579-.601c.161-.24.273-.515.338-.825h1.088c-.082.46-.231.871-.448 1.233s-.485.672-.807.926-.683.443-1.084.575-.823.197-1.277.197c-.766 0-1.448-.187-2.044-.561s-1.067-.907-1.409-1.597-.513-1.51-.513-2.458.171-1.767.513-2.457.812-1.223 1.409-1.597 1.278-.562 2.044-.562a4.03 4.03 0 0 1 1.277.198 3.46 3.46 0 0 1 1.084.579c.322.251.591.559.807.921s.366.771.448 1.233zm4.479 6.301c-.603 0-1.135-.106-1.597-.32s-.818-.513-1.075-.891a2.23 2.23 0 0 1-.382-1.298 2.39 2.39 0 0 1 .224-1.054c.152-.324.36-.595.623-.811s.563-.359.891-.417v-.053a1.73 1.73 0 0 1-1.027-.724c-.255-.374-.38-.8-.378-1.277-.002-.456.113-.864.347-1.224s.556-.644.965-.851.882-.312 1.409-.312c.521 0 .986.104 1.395.312s.732.491.966.851.357.768.359 1.224a2.22 2.22 0 0 1-.39 1.277 1.73 1.73 0 0 1-1.014.724v.053a1.84 1.84 0 0 1 .878.417c.26.216.468.487.623.811s.234.673.237 1.054a2.27 2.27 0 0 1-.395 1.298c-.257.378-.616.675-1.075.891s-.984.32-1.584.32zm0-.965c.407 0 .758-.066 1.053-.197a1.57 1.57 0 0 0 .685-.558c.16-.239.242-.52.245-.842-.003-.339-.09-.639-.263-.9a1.79 1.79 0 0 0-.706-.614c-.296-.149-.634-.224-1.014-.224s-.726.075-1.027.224-.534.354-.706.614-.253.561-.25.9c-.003.322.074.603.232.842a1.57 1.57 0 0 0 .689.558c.298.131.652.197 1.062.197zm0-4.265c.322 0 .607-.064.856-.193s.449-.309.592-.54.216-.501.219-.812c-.003-.304-.074-.568-.215-.794s-.335-.403-.583-.526-.538-.189-.869-.189-.63.063-.882.189-.446.298-.584.526a1.47 1.47 0 0 0-.201.794c-.003.311.065.581.206.812s.341.411.592.54.541.193.869.193zm7.667 5.108h-2.773v-8.987h2.896c.871 0 1.617.18 2.238.54s1.095.87 1.426 1.54.495 1.466.495 2.396c0 .936-.166 1.742-.5 2.418s-.819 1.19-1.457 1.553-1.413.54-2.325.54zm-1.685-.966h1.615c.743 0 1.358-.143 1.847-.43s.853-.695 1.093-1.224.359-1.16.359-1.891c0-.726-.118-1.35-.355-1.874s-.591-.93-1.062-1.211-1.057-.426-1.76-.426h-1.737v7.056zm10.566.966h-2.773v-8.987h2.896c.872 0 1.618.18 2.238.54s1.095.87 1.426 1.54.496 1.466.496 2.396c0 .936-.167 1.742-.501 2.418s-.819 1.19-1.456 1.553-1.413.54-2.326.54zm-1.685-.966h1.615c.743 0 1.359-.143 1.847-.43s.853-.695 1.093-1.224.36-1.16.36-1.891c0-.726-.119-1.35-.356-1.874s-.591-.93-1.062-1.211-1.057-.426-1.759-.426h-1.738v7.056z" fill="#828282"/></g></g><path d="M645.054 250.53h-4.372l-.023-2.408h3.67c.647 0 1.177-.082 1.59-.245.413-.172.721-.417.923-.737.211-.327.316-.725.316-1.192 0-.53-.101-.959-.304-1.286-.195-.327-.503-.565-.923-.713-.413-.148-.947-.222-1.602-.222h-2.431V258h-3.507v-17.02h5.938c.99 0 1.874.093 2.654.28.787.187 1.453.472 1.999.854a3.8 3.8 0 0 1 1.25 1.449c.289.577.433 1.263.433 2.058 0 .701-.16 1.348-.479 1.94-.312.592-.807 1.076-1.485 1.45-.67.374-1.547.58-2.63.619l-1.017.9zm-.152 7.47h-5.179l1.368-2.735h3.811c.616 0 1.118-.098 1.508-.293.39-.202.678-.475.865-.818s.281-.736.281-1.181c0-.498-.086-.931-.258-1.297a1.73 1.73 0 0 0-.795-.842c-.366-.202-.849-.304-1.449-.304h-3.378l.023-2.408h4.208l.807.947c1.036-.016 1.87.168 2.501.549.64.375 1.103.862 1.392 1.462a4.3 4.3 0 0 1 .444 1.928c0 1.092-.238 2.011-.713 2.759-.476.741-1.173 1.298-2.093 1.672-.912.374-2.026.561-3.343.561zm11.935-9.89V258h-3.366v-12.648h3.167l.199 2.758zm3.811-2.84l-.058 3.121-.597-.058-.619-.035c-.476 0-.889.062-1.239.187a2.19 2.19 0 0 0-.865.526c-.226.233-.398.518-.515.853-.109.335-.171.717-.187 1.146l-.678-.211a9.7 9.7 0 0 1 .246-2.256c.163-.694.401-1.298.713-1.812.319-.514.709-.912 1.169-1.192s.986-.421 1.578-.421a3.53 3.53 0 0 1 .573.047c.195.023.354.058.479.105zm8.019 9.878v-5.635c0-.405-.066-.752-.199-1.04a1.48 1.48 0 0 0-.619-.69c-.273-.163-.627-.245-1.064-.245-.374 0-.697.066-.97.198-.273.125-.483.308-.631.55-.148.234-.222.51-.222.83h-3.367a3.3 3.3 0 0 1 .374-1.532c.249-.483.612-.907 1.087-1.274.476-.374 1.041-.666 1.695-.876.663-.211 1.403-.316 2.221-.316.982 0 1.855.164 2.619.491s1.363.818 1.8 1.473c.444.654.666 1.473.666 2.455v5.412c0 .694.043 1.262.129 1.707.086.436.21.818.374 1.145V258h-3.402c-.163-.343-.288-.772-.374-1.286-.078-.522-.117-1.044-.117-1.566zm.444-4.852l.024 1.906h-1.882c-.444 0-.83.051-1.158.152s-.596.245-.806.432a1.68 1.68 0 0 0-.468.632 2.19 2.19 0 0 0-.14.795c0 .288.066.549.199.783.132.226.323.405.573.537a1.93 1.93 0 0 0 .876.188c.507 0 .947-.102 1.321-.304s.663-.452.865-.749c.211-.296.32-.576.328-.841l.888 1.426c-.125.319-.296.651-.514.994-.211.342-.48.666-.807.97-.327.296-.721.541-1.181.736-.459.187-1.005.281-1.636.281-.803 0-1.532-.16-2.186-.479a3.99 3.99 0 0 1-1.543-1.345c-.374-.576-.561-1.231-.561-1.964 0-.662.124-1.25.374-1.765a3.43 3.43 0 0 1 1.099-1.297c.491-.359 1.102-.628 1.835-.807.732-.187 1.582-.281 2.548-.281h1.952zm8.838-2.244V258h-3.367v-12.648h3.156l.211 2.7zm-.491 3.18h-.912c0-.936.121-1.777.362-2.525.242-.756.581-1.399 1.017-1.929a4.38 4.38 0 0 1 1.555-1.228c.608-.288 1.286-.432 2.034-.432a4.91 4.91 0 0 1 1.625.257 3.12 3.12 0 0 1 1.263.818c.358.374.631.869.818 1.485.195.616.292 1.368.292 2.256V258h-3.39v-8.078c0-.561-.078-.997-.234-1.309s-.385-.53-.689-.654c-.297-.133-.663-.199-1.099-.199-.452 0-.846.089-1.181.269a2.34 2.34 0 0 0-.818.748c-.211.312-.37.678-.479 1.099s-.164.872-.164 1.356zm18.084 4.009v-15.196h3.39V258h-3.051l-.339-2.759zm-7.996-3.413v-.246c0-.966.109-1.843.327-2.63.219-.795.538-1.477.959-2.046s.939-1.009 1.555-1.321 1.317-.467 2.104-.467c.74 0 1.387.156 1.94.467.561.312 1.037.756 1.427 1.333.397.569.717 1.243.958 2.022.242.772.417 1.618.526 2.537v.538c-.109.88-.284 1.699-.526 2.455s-.561 1.418-.958 1.987c-.39.561-.866.997-1.427 1.309s-1.215.468-1.963.468c-.788 0-1.489-.16-2.105-.479a4.47 4.47 0 0 1-1.543-1.345c-.413-.576-.728-1.255-.947-2.034s-.327-1.629-.327-2.548zm3.367-.246v.246a8.6 8.6 0 0 0 .117 1.461c.085.452.222.853.409 1.204.195.343.444.612.748.807.312.187.69.28 1.134.28.577 0 1.052-.128 1.426-.386.374-.265.659-.627.853-1.087.203-.459.32-.989.351-1.589v-1.532c-.023-.491-.093-.931-.21-1.321-.109-.397-.273-.736-.491-1.017a2.17 2.17 0 0 0-.795-.654c-.312-.156-.682-.234-1.111-.234-.436 0-.81.101-1.122.304-.312.195-.565.463-.76.806-.187.343-.327.748-.421 1.216-.085.46-.128.959-.128 1.496zm26.687.772h3.496c-.07 1.145-.386 2.162-.947 3.051-.553.888-1.329 1.582-2.326 2.081-.99.498-2.183.748-3.578.748-1.091 0-2.069-.187-2.934-.561a6.25 6.25 0 0 1-2.221-1.637c-.608-.709-1.071-1.566-1.391-2.572s-.479-2.131-.479-3.378v-1.181c0-1.247.164-2.373.491-3.378.335-1.013.81-1.874 1.426-2.583.624-.71 1.368-1.255 2.233-1.637s1.831-.573 2.899-.573c1.418 0 2.614.257 3.589.772.982.514 1.741 1.223 2.279 2.127.546.904.873 1.933.982 3.086h-3.507c-.039-.685-.175-1.266-.409-1.741a2.32 2.32 0 0 0-1.064-1.088c-.467-.249-1.091-.374-1.87-.374-.585 0-1.095.11-1.531.328s-.803.549-1.099.993-.519 1.006-.667 1.684c-.14.67-.21 1.457-.21 2.361v1.204c0 .881.066 1.656.199 2.326.132.663.335 1.224.608 1.684a2.82 2.82 0 0 0 1.075 1.028c.444.226.978.339 1.601.339.733 0 1.337-.117 1.812-.35s.838-.581 1.088-1.041c.257-.46.409-1.032.455-1.718zm5.05-.55v-.245c0-.927.133-1.781.398-2.56.265-.787.651-1.469 1.157-2.046s1.13-1.025 1.871-1.344c.74-.327 1.589-.491 2.548-.491s1.812.164 2.56.491c.748.319 1.375.767 1.882 1.344.514.577.904 1.259 1.169 2.046.265.779.397 1.633.397 2.56v.245c0 .92-.132 1.773-.397 2.56-.265.78-.655 1.462-1.169 2.046-.507.577-1.13 1.025-1.87 1.345s-1.59.479-2.549.479-1.812-.16-2.56-.479a5.31 5.31 0 0 1-1.882-1.345c-.506-.584-.892-1.266-1.157-2.046-.265-.787-.398-1.64-.398-2.56zm3.367-.245v.245a7.49 7.49 0 0 0 .14 1.485c.094.46.242.865.445 1.216.21.343.483.612.818.806s.744.293 1.227.293c.468 0 .869-.098 1.204-.293a2.22 2.22 0 0 0 .807-.806 3.99 3.99 0 0 0 .444-1.216c.101-.46.152-.955.152-1.485v-.245c0-.514-.051-.998-.152-1.45-.093-.459-.245-.865-.456-1.215-.202-.359-.471-.639-.806-.842s-.741-.304-1.216-.304-.881.101-1.216.304a2.39 2.39 0 0 0-.806.842c-.203.35-.351.756-.445 1.215-.093.452-.14.936-.14 1.45zm14.238-11.514V258h-3.378v-17.955h3.378zm2.245 11.759v-.245c0-.927.132-1.781.397-2.56.265-.787.651-1.469 1.157-2.046s1.13-1.025 1.871-1.344c.74-.327 1.59-.491 2.548-.491s1.812.164 2.56.491a5.15 5.15 0 0 1 1.882 1.344 5.82 5.82 0 0 1 1.169 2.046c.265.779.398 1.633.398 2.56v.245c0 .92-.133 1.773-.398 2.56-.265.78-.654 1.462-1.169 2.046-.506.577-1.13 1.025-1.87 1.345s-1.59.479-2.549.479-1.811-.16-2.56-.479a5.31 5.31 0 0 1-1.882-1.345c-.506-.584-.892-1.266-1.157-2.046-.265-.787-.397-1.64-.397-2.56zm3.366-.245v.245c0 .53.047 1.025.141 1.485a3.99 3.99 0 0 0 .444 1.216c.21.343.483.612.818.806s.744.293 1.227.293c.468 0 .869-.098 1.204-.293a2.21 2.21 0 0 0 .807-.806 3.99 3.99 0 0 0 .444-1.216c.102-.46.152-.955.152-1.485v-.245c0-.514-.05-.998-.152-1.45-.093-.459-.245-.865-.456-1.215-.202-.359-.471-.639-.806-.842s-.741-.304-1.216-.304-.881.101-1.216.304a2.39 2.39 0 0 0-.806.842c-.203.35-.351.756-.444 1.215a7.12 7.12 0 0 0-.141 1.45zm14.051-3.449V258h-3.366v-12.648h3.168l.198 2.758zm3.811-2.84l-.058 3.121-.596-.058-.62-.035c-.475 0-.888.062-1.239.187-.343.116-.631.292-.865.526-.226.233-.398.518-.514.853-.11.335-.172.717-.188 1.146l-.678-.211a9.7 9.7 0 0 1 .246-2.256c.164-.694.401-1.298.713-1.812.32-.514.709-.912 1.169-1.192s.986-.421 1.578-.421a3.53 3.53 0 0 1 .573.047c.195.023.354.058.479.105zm8.428 9.235c0-.242-.07-.46-.21-.655s-.401-.374-.783-.538c-.374-.171-.916-.327-1.625-.467-.639-.14-1.235-.316-1.789-.526-.545-.218-1.02-.479-1.426-.783-.397-.304-.709-.663-.935-1.076-.226-.421-.339-.9-.339-1.438 0-.53.113-1.028.339-1.496.234-.468.565-.881.994-1.239.436-.366.966-.651 1.59-.853.631-.211 1.34-.316 2.127-.316 1.099 0 2.042.175 2.829.526.795.351 1.403.834 1.824 1.449.428.608.643 1.302.643 2.081h-3.367a1.79 1.79 0 0 0-.211-.876c-.132-.265-.342-.472-.631-.62-.28-.156-.647-.234-1.099-.234-.374 0-.697.066-.97.199-.273.125-.483.296-.631.514a1.24 1.24 0 0 0-.211.702 1.16 1.16 0 0 0 .117.526c.086.148.222.284.41.409s.428.241.724.35c.304.102.678.195 1.123.281.911.187 1.726.433 2.443.737.717.296 1.286.701 1.706 1.215.421.507.632 1.173.632 1.999a3.23 3.23 0 0 1-.374 1.543c-.25.468-.608.877-1.076 1.228-.468.343-1.029.611-1.683.806-.647.187-1.376.281-2.186.281-1.177 0-2.175-.211-2.993-.631-.81-.421-1.426-.955-1.847-1.602-.413-.655-.619-1.325-.619-2.011h3.191c.016.46.132.83.351 1.111a1.92 1.92 0 0 0 .853.608c.351.125.729.187 1.134.187.436 0 .799-.059 1.087-.175.288-.125.507-.289.655-.491.156-.211.233-.452.233-.725z" fill="#000"/></g><defs><filter id="A" x="-8.342" y="126.316" width="1160.68" height="529.1" filterUnits="userSpaceOnUse" color-interpolation-filters="sRGB"><feFlood flood-opacity="0" result="A"/><feColorMatrix in="SourceAlpha" values="0 0 0 0 0 0 0 0 0 0 0 0 0 0 0 0 0 0 127 0"/><feOffset dy="1.19167"/><feGaussianBlur stdDeviation=".894"/><feColorMatrix values="0 0 0 0 0 0 0 0 0 0 0 0 0 0 0 0 0 0 0.3 0"/><feBlend in2="A" result="C"/><feColorMatrix in="SourceAlpha" values="0 0 0 0 0 0 0 0 0 0 0 0 0 0 0 0 0 0 127 0"/><feMorphology radius="2.38333" operator="dilate" in="SourceAlpha"/><feOffset dy="3.575"/><feGaussianBlur stdDeviation="2.979"/><feColorMatrix values="0 0 0 0 0 0 0 0 0 0 0 0 0 0 0 0 0 0 0.15 0"/><feBlend in2="C"/><feBlend in="SourceGraphic"/></filter><linearGradient id="B" x1="572" y1="0" x2="572" y2="644" xlink:href="#M"><stop stop-color="#ffc9de"/><stop offset="1" stop-color="#ffd282" stop-opacity="0"/></linearGradient><linearGradient id="C" x1="294.099" y1="402.853" x2="294.099" y2="462.258" xlink:href="#M"><stop stop-color="#05c8dd"/><stop offset="1" stop-color="#049eaf"/></linearGradient><linearGradient id="D" x1="222.812" y1="331.564" x2="222.812" y2="390.97" xlink:href="#M"><stop stop-color="#fa4b00"/><stop offset="1" stop-color="#ff6e30"/></linearGradient><linearGradient id="E" x1="510.337" y1="402.853" x2="510.337" y2="462.258" xlink:href="#M"><stop stop-color="#05c8dd"/><stop offset="1" stop-color="#049eaf"/></linearGradient><linearGradient id="F" x1="439.05" y1="331.564" x2="439.05" y2="390.97" xlink:href="#M"><stop stop-color="#fa4b00"/><stop offset="1" stop-color="#ff6e30"/></linearGradient><clipPath id="G"><path fill="#fff" d="M0 0h1144v644H0z"/></clipPath><clipPath id="H"><path fill="#fff" transform="translate(636.871 319.683)" d="M0 0h403.129v108.119H0z"/></clipPath><clipPath id="I"><path fill="#fff" transform="translate(962 319.683)" d="M0 0h78v107.584H0z"/></clipPath><clipPath id="J"><path fill="#fff" transform="translate(853.109 319.683)" d="M0 0h78v108.356H0z"/></clipPath><clipPath id="K"><path fill="#fff" transform="translate(744.99 319.683)" d="M0 0h77.228v107.584H0z"/></clipPath><clipPath id="L"><path fill="#fff" transform="translate(636.871 319.683)" d="M0 0h77.228v107.584H0z"/></clipPath><linearGradient id="M" gradientUnits="userSpaceOnUse"/></defs></svg>