<svg width="377" height="58" viewBox="0 0 377 58" fill="none" xmlns="http://www.w3.org/2000/svg">
<path d="M51.8359 46H47.0312V12.3906H49.4219C50.9844 12.3906 52.6406 12.5938 54.3906 13C56.1562 13.4062 57.9531 13.9922 59.7812 14.7578C61.6094 15.5234 63.4297 16.4531 65.2422 17.5469C67.0703 18.625 68.8359 19.8516 70.5391 21.2266C72.2422 22.6016 73.8438 24.1016 75.3438 25.7266C76.8438 27.3359 78.1875 29.0547 79.375 30.8828V12.3906H84.1797V46H79.375C79.375 43.5312 78.9453 41.1562 78.0859 38.875C77.2266 36.5781 76.0781 34.4141 74.6406 32.3828C73.2031 30.3516 71.5469 28.4844 69.6719 26.7812C67.7969 25.0625 65.8359 23.5547 63.7891 22.2578C61.7578 20.9609 59.7109 19.8984 57.6484 19.0703C55.5859 18.2266 53.6484 17.6641 51.8359 17.3828V46ZM131.336 46H124.867L107.711 28.7266L97.0703 36.3906V46H92.2656V12.3906H97.0703V31.1172L123.414 12.3906H130.422L111.367 26.0781L131.336 46ZM192.484 29.1953C192.484 31.5234 192.109 33.7109 191.359 35.7578C190.625 37.8047 189.578 39.5859 188.219 41.1016C186.859 42.6172 185.227 43.8125 183.32 44.6875C181.43 45.5625 179.328 46 177.016 46H160.07V41.1953H177.016C178.672 41.1953 180.156 40.8828 181.469 40.2578C182.797 39.6328 183.914 38.7812 184.82 37.7031C185.742 36.6094 186.445 35.3359 186.93 33.8828C187.43 32.4141 187.68 30.8516 187.68 29.1953C187.68 27.5391 187.43 25.9844 186.93 24.5312C186.445 23.0781 185.742 21.8125 184.82 20.7344C183.914 19.6406 182.797 18.7812 181.469 18.1562C180.156 17.5156 178.672 17.1953 177.016 17.1953H157.68V46H152.875V12.3906H177.016C179.328 12.3906 181.43 12.8359 183.32 13.7266C185.227 14.6016 186.859 15.8047 188.219 17.3359C189.578 18.8516 190.625 20.6328 191.359 22.6797C192.109 24.7109 192.484 26.8828 192.484 29.1953ZM225.602 46H198.039V19.5156H225.602V24.3438H202.891V41.1484H225.602V46ZM222.531 35.0547H205.164V30.2031H222.531V35.0547ZM259.891 38.2188C259.891 39.2969 259.688 40.3125 259.281 41.2656C258.875 42.2031 258.32 43.0234 257.617 43.7266C256.93 44.4297 256.109 44.9844 255.156 45.3906C254.219 45.7969 253.211 46 252.133 46H229.703V41.1953H252.133C252.555 41.1953 252.945 41.125 253.305 40.9844C253.68 40.8281 254 40.6172 254.266 40.3516C254.547 40.0703 254.766 39.75 254.922 39.3906C255.078 39.0312 255.156 38.6406 255.156 38.2188C255.156 37.7969 255.078 37.4062 254.922 37.0469C254.766 36.6719 254.547 36.3516 254.266 36.0859C254 35.8047 253.68 35.5859 253.305 35.4297C252.945 35.2734 252.555 35.1953 252.133 35.1953H237.438C236.375 35.1953 235.375 34.9922 234.438 34.5859C233.5 34.1797 232.68 33.625 231.977 32.9219C231.273 32.2031 230.719 31.3672 230.312 30.4141C229.906 29.4609 229.703 28.4453 229.703 27.3672C229.703 26.3203 229.906 25.3281 230.312 24.3906C230.719 23.4375 231.273 22.6094 231.977 21.9062C232.68 21.2031 233.5 20.6484 234.438 20.2422C235.375 19.8203 236.375 19.6094 237.438 19.6094H258.133V24.3438H237.438C237.031 24.3438 236.641 24.4297 236.266 24.6016C235.906 24.7578 235.594 24.9766 235.328 25.2578C235.062 25.5234 234.852 25.8438 234.695 26.2188C234.539 26.5781 234.461 26.9609 234.461 27.3672C234.461 27.7891 234.539 28.1875 234.695 28.5625C234.852 28.9219 235.062 29.2422 235.328 29.5234C235.594 29.7891 235.906 30 236.266 30.1562C236.641 30.3125 237.031 30.3906 237.438 30.3906H252.133C253.211 30.3906 254.219 30.6016 255.156 31.0234C256.109 31.4297 256.93 31.9922 257.617 32.7109C258.32 33.4141 258.875 34.2422 259.281 35.1953C259.688 36.1484 259.891 37.1562 259.891 38.2188ZM269.641 46H264.883V19.6094H269.641V46ZM304.352 46H287.312C285.453 46 283.766 45.6562 282.25 44.9688C280.734 44.2812 279.438 43.3438 278.359 42.1562C277.281 40.9531 276.445 39.5469 275.852 37.9375C275.273 36.3125 274.984 34.5703 274.984 32.7109C274.984 30.8672 275.273 29.1484 275.852 27.5547C276.445 25.9453 277.281 24.5469 278.359 23.3594C279.438 22.1719 280.734 21.2344 282.25 20.5469C283.766 19.8594 285.453 19.5156 287.312 19.5156H304.352V24.3438H287.312C286.156 24.3438 285.109 24.5625 284.172 25C283.25 25.4375 282.469 26.0312 281.828 26.7812C281.188 27.5312 280.695 28.4141 280.352 29.4297C280.008 30.4453 279.836 31.5391 279.836 32.7109C279.836 33.8984 280.008 35.0078 280.352 36.0391C280.695 37.0547 281.188 37.9453 281.828 38.7109C282.469 39.4609 283.25 40.0547 284.172 40.4922C285.109 40.9297 286.156 41.1484 287.312 41.1484H299.5V35.0547H285.742V30.2031H304.352V46ZM334.703 46C334.703 44.25 334.406 42.5547 333.812 40.9141C333.234 39.2578 332.445 37.7031 331.445 36.25C330.461 34.7812 329.312 33.4141 328 32.1484C326.703 30.8828 325.336 29.7578 323.898 28.7734C322.461 27.7734 320.992 26.9375 319.492 26.2656C318.008 25.5781 316.594 25.0703 315.25 24.7422V46H310.445V19.6094H313.047V19.6562C314.766 19.75 316.594 20.1328 318.531 20.8047C320.484 21.4609 322.422 22.3594 324.344 23.5C326.281 24.625 328.141 25.9688 329.922 27.5312C331.719 29.0781 333.312 30.7891 334.703 32.6641V19.6094H339.484V46H334.703ZM375.344 38.2188C375.344 39.2969 375.141 40.3125 374.734 41.2656C374.328 42.2031 373.773 43.0234 373.07 43.7266C372.383 44.4297 371.562 44.9844 370.609 45.3906C369.672 45.7969 368.664 46 367.586 46H345.156V41.1953H367.586C368.008 41.1953 368.398 41.125 368.758 40.9844C369.133 40.8281 369.453 40.6172 369.719 40.3516C370 40.0703 370.219 39.75 370.375 39.3906C370.531 39.0312 370.609 38.6406 370.609 38.2188C370.609 37.7969 370.531 37.4062 370.375 37.0469C370.219 36.6719 370 36.3516 369.719 36.0859C369.453 35.8047 369.133 35.5859 368.758 35.4297C368.398 35.2734 368.008 35.1953 367.586 35.1953H352.891C351.828 35.1953 350.828 34.9922 349.891 34.5859C348.953 34.1797 348.133 33.625 347.43 32.9219C346.727 32.2031 346.172 31.3672 345.766 30.4141C345.359 29.4609 345.156 28.4453 345.156 27.3672C345.156 26.3203 345.359 25.3281 345.766 24.3906C346.172 23.4375 346.727 22.6094 347.43 21.9062C348.133 21.2031 348.953 20.6484 349.891 20.2422C350.828 19.8203 351.828 19.6094 352.891 19.6094H373.586V24.3438H352.891C352.484 24.3438 352.094 24.4297 351.719 24.6016C351.359 24.7578 351.047 24.9766 350.781 25.2578C350.516 25.5234 350.305 25.8438 350.148 26.2188C349.992 26.5781 349.914 26.9609 349.914 27.3672C349.914 27.7891 349.992 28.1875 350.148 28.5625C350.305 28.9219 350.516 29.2422 350.781 29.5234C351.047 29.7891 351.359 30 351.719 30.1562C352.094 30.3125 352.484 30.3906 352.891 30.3906H367.586C368.664 30.3906 369.672 30.6016 370.609 31.0234C371.562 31.4297 372.383 31.9922 373.07 32.7109C373.773 33.4141 374.328 34.2422 374.734 35.1953C375.141 36.1484 375.344 37.1562 375.344 38.2188Z" fill="white"/>
<path d="M23 11L42.9186 46.25H3.08142L23 11Z" fill="white"/>
</svg>
